<svg width="20" height="20" viewBox="0 0 20 20" fill="none" xmlns="http://www.w3.org/2000/svg">
<path d="M1 3C1 2.05719 1 1.58579 1.29289 1.29289C1.58579 1 2.05719 1 3 1H6C6.94281 1 7.41421 1 7.70711 1.29289C8 1.58579 8 2.05719 8 3V6C8 6.94281 8 7.41421 7.70711 7.70711C7.41421 8 6.94281 8 6 8H3C2.05719 8 1.58579 8 1.29289 7.70711C1 7.41421 1 6.94281 1 6V3Z" stroke="#1F2023" stroke-width="1.5" stroke-miterlimit="10"/>
<path d="M1 14C1 13.0572 1 12.5858 1.29289 12.2929C1.58579 12 2.05719 12 3 12H6C6.94281 12 7.41421 12 7.70711 12.2929C8 12.5858 8 13.0572 8 14V17C8 17.9428 8 18.4142 7.70711 18.7071C7.41421 19 6.94281 19 6 19H3C2.05719 19 1.58579 19 1.29289 18.7071C1 18.4142 1 17.9428 1 17V14Z" stroke="#1F2023" stroke-width="1.5" stroke-miterlimit="10"/>
<path d="M12 3C12 2.05719 12 1.58579 12.2929 1.29289C12.5858 1 13.0572 1 14 1H17C17.9428 1 18.4142 1 18.7071 1.29289C19 1.58579 19 2.05719 19 3V6C19 6.94281 19 7.41421 18.7071 7.70711C18.4142 8 17.9428 8 17 8H14C13.0572 8 12.5858 8 12.2929 7.70711C12 7.41421 12 6.94281 12 6V3Z" stroke="#1F2023" stroke-width="1.5" stroke-miterlimit="10"/>
<path d="M12 14C12 13.0572 12 12.5858 12.2929 12.2929C12.5858 12 13.0572 12 14 12H17C17.9428 12 18.4142 12 18.7071 12.2929C19 12.5858 19 13.0572 19 14V17C19 17.9428 19 18.4142 18.7071 18.7071C18.4142 19 17.9428 19 17 19H14C13.0572 19 12.5858 19 12.2929 18.7071C12 18.4142 12 17.9428 12 17V14Z" stroke="#1F2023" stroke-width="1.5" stroke-miterlimit="10"/>
</svg>
