<svg width="47" height="46" viewBox="0 0 47 46" fill="none" xmlns="http://www.w3.org/2000/svg">
<rect x="0.5" width="46" height="46" rx="23" fill="#F5F5F5"/>
<path d="M35.5 23C35.5 16.3719 30.1281 11 23.5 11C16.8719 11 11.5 16.3719 11.5 23C11.5 28.9902 15.8856 33.9547 21.6259 34.8552V26.4716H18.5814V23H21.6259V20.3567C21.6259 17.3516 23.4142 15.6884 26.1564 15.6884C27.4713 15.6884 28.8456 15.9252 28.8456 15.9252V18.8773H27.3334C25.8409 18.8773 25.3806 19.8045 25.3806 20.7514V23H28.7078L28.1753 26.4716H25.3806V34.8552C31.1144 33.9547 35.5 28.9902 35.5 23Z" fill="#1877F2"/>
<path d="M28.1683 26.4715L28.7012 23H25.374V20.7514C25.374 19.8045 25.8409 18.8773 27.3269 18.8773H28.839V15.9251C28.839 15.9251 27.4647 15.6884 26.1498 15.6884C23.4081 15.6884 21.6194 17.352 21.6194 20.3567V23H18.5748V26.4715H21.6194V34.8551C22.2311 34.9536 22.8555 35 23.4934 35C24.1314 35 24.7558 34.9475 25.3675 34.8551V26.4715H28.1683Z" fill="white"/>
</svg>
