<svg width="296" height="296" viewBox="0 0 296 296" fill="none" xmlns="http://www.w3.org/2000/svg">
<path d="M112.273 135.361C114.35 136.976 116.839 137.974 119.457 138.24C122.075 138.506 124.714 138.029 127.074 136.864C129.433 135.699 131.416 133.894 132.797 131.654C134.177 129.414 134.899 126.83 134.879 124.199C134.859 121.568 134.098 118.996 132.684 116.777C131.27 114.558 129.26 112.783 126.883 111.654C124.507 110.524 121.86 110.087 119.247 110.393C116.634 110.698 114.159 111.733 112.107 113.38L109.04 111.012L104.476 112.439L104.997 107.874L101.149 104.885L96.5907 106.305L97.1117 101.741L93.8024 99.1719L91.02 100.036L91.3397 97.2538L89.392 95.7383L85.023 96.1645L84.431 102.878L107.318 120.667C106.607 123.332 106.697 126.148 107.579 128.762C108.46 131.375 110.093 133.671 112.273 135.361ZM128.949 130.583C128.462 131.21 127.801 131.678 127.048 131.929C126.295 132.179 125.484 132.201 124.719 131.991C123.953 131.781 123.268 131.349 122.748 130.749C122.228 130.15 121.897 129.41 121.798 128.622C121.699 127.835 121.835 127.036 122.19 126.326C122.545 125.616 123.102 125.027 123.791 124.634C124.481 124.241 125.271 124.061 126.063 124.116C126.854 124.172 127.612 124.461 128.239 124.948C129.079 125.602 129.625 126.563 129.758 127.619C129.891 128.675 129.6 129.741 128.949 130.583Z" fill="#EBEBEB"/>
<path d="M130.72 81.8559C131.612 80.7654 132.179 79.4457 132.356 78.0478C132.533 76.65 132.313 75.2305 131.72 73.9521C131.128 72.6738 130.187 71.5881 129.006 70.8195C127.825 70.0509 126.452 69.6305 125.043 69.6064C123.634 69.5823 122.247 69.9555 121.041 70.6833C119.834 71.411 118.857 72.4639 118.221 73.7213C117.585 74.9787 117.317 76.3897 117.446 77.7928C117.575 79.1959 118.096 80.5342 118.951 81.6546L117.631 83.2648L118.335 85.7276L115.896 85.3901L114.256 87.4148L114.961 89.8775L112.527 89.5341L111.107 91.2746L111.533 92.7724L110.047 92.5652L109.224 93.5775L109.396 95.9455L112.983 96.348L122.799 84.3245C124.215 84.7371 125.722 84.723 127.131 84.284C128.54 83.8449 129.788 83.0004 130.72 81.8559ZM128.352 72.8693C128.68 73.1386 128.922 73.4993 129.046 73.9058C129.169 74.3124 129.17 74.7465 129.047 75.1533C128.924 75.5601 128.683 75.9213 128.355 76.1913C128.027 76.4613 127.626 76.6279 127.203 76.6701C126.78 76.7123 126.355 76.6282 125.98 76.4284C125.604 76.2286 125.297 75.9221 125.096 75.5476C124.895 75.1731 124.81 74.7475 124.851 74.3245C124.892 73.9015 125.057 73.5002 125.327 73.1712C125.505 72.9486 125.726 72.7638 125.977 72.6278C126.228 72.4917 126.503 72.4072 126.787 72.379C127.071 72.3509 127.358 72.3798 127.631 72.464C127.904 72.5482 128.157 72.686 128.375 72.8693H128.352Z" fill="#EBEBEB"/>
<path d="M99.0535 31.0031V74.444H36.6508L34.4071 31.305L99.0535 31.0031Z" fill="#E0E0E0"/>
<path d="M34.4071 31.305V74.3552H96.8098V31.305L34.4071 31.305Z" fill="white"/>
<path d="M97.088 74.6515H34.1111V31.0092H97.088V74.6515ZM34.6912 74.0595H96.496V31.6012H34.7031L34.6912 74.0595Z" fill="#E0E0E0"/>
<path d="M90.0433 36.6508H41.1619V69.0036H90.0433V36.6508Z" fill="white"/>
<path d="M90.0491 36.6507H89.8064H89.1079L86.432 36.704H76.368L41.1795 36.7751L41.3216 36.633C41.3216 46.5194 41.3216 57.4714 41.3216 68.9858L41.1677 68.8319L90.0551 68.8674L89.9308 68.9858C89.9308 59.1408 89.9781 51.0719 89.9959 45.4479C89.9959 42.6359 89.9959 40.4455 90.0255 38.9359C90.0255 38.1899 90.0255 37.6216 90.0255 37.225C90.0255 36.8283 90.0255 36.633 90.0255 36.633C90.0255 36.633 90.0255 36.8224 90.0255 37.225C90.0255 37.6275 90.0255 38.1781 90.0255 38.9122C90.0255 40.4099 90.0255 42.6003 90.0255 45.4242C90.0255 51.0659 90.0669 59.1645 90.0906 69.0391V69.1634H89.9722H41.0848H40.9309V69.0035C40.9309 57.4891 40.9309 46.5371 40.9309 36.6507V36.5087H41.073L76.3562 36.5797L86.4202 36.6211H89.0783H89.7591L90.0491 36.6507Z" fill="#E0E0E0"/>
<path d="M34.4011 31.1807C34.7866 31.3701 35.1483 31.6046 35.4786 31.8792C36.1179 32.341 36.9822 32.9922 37.9235 33.744C38.8648 34.4959 39.6995 35.2063 40.2915 35.7391C40.626 36.0048 40.9263 36.3111 41.1854 36.6507C41.1262 36.7159 39.6285 35.4667 37.7518 33.9867C36.5776 33.122 35.4585 32.1849 34.4011 31.1807Z" fill="#E0E0E0"/>
<path d="M96.8039 31.305C95.7811 32.3114 94.6891 33.2451 93.5361 34.0992C92.4386 35.0296 91.2774 35.8822 90.061 36.6508C91.0877 35.6439 92.1836 34.7102 93.3407 33.8565C94.4337 32.9257 95.591 32.0731 96.8039 31.305Z" fill="#E0E0E0"/>
<path d="M96.7565 74.3611L89.8005 68.7194L96.7565 74.3611Z" fill="white"/>
<path d="M89.8005 68.7194C91.0438 69.5384 92.2305 70.4403 93.3525 71.4189C94.5438 72.3294 95.673 73.3183 96.7329 74.3789C95.4884 73.5614 94.3016 72.6595 93.1809 71.6794C91.9848 70.7747 90.8551 69.7855 89.8005 68.7194Z" fill="#E0E0E0"/>
<path d="M34.4011 74.3552C35.4177 73.3579 36.5038 72.434 37.6512 71.5906C38.7374 70.6688 39.8867 69.8242 41.0907 69.0627C40.0798 70.0657 38.9954 70.9918 37.8466 71.8333C36.7594 72.7546 35.608 73.5974 34.4011 74.3552Z" fill="#E0E0E0"/>
<path d="M51.0896 46.7325V57.5661H81.8499V46.7325H51.0896Z" fill="#E0E0E0"/>
<path d="M253.968 277.766C253.968 277.849 203.127 277.92 140.422 277.92C77.7177 277.92 26.859 277.849 26.859 277.766C26.859 277.684 77.694 277.612 140.422 277.612C203.151 277.612 253.968 277.684 253.968 277.766Z" fill="#263238"/>
<path d="M206.484 256.336L221.136 277.642L226.375 277.766L216.773 255.856L206.484 256.336Z" fill="#263238"/>
<path d="M51.871 257.419L44.1514 277.547H48.0112L61.491 257.508L51.871 257.419Z" fill="#263238"/>
<path d="M48.544 184.29L49.136 210.338C49.1737 212.11 49.8942 213.799 51.1471 215.053C52.4001 216.307 54.0888 217.029 55.8611 217.069L201.606 220.313C202.523 220.333 203.434 220.17 204.288 219.834C205.141 219.497 205.918 218.993 206.574 218.351C207.23 217.71 207.75 216.944 208.106 216.099C208.462 215.253 208.645 214.345 208.644 213.428V182.052C208.643 177.579 207.024 173.258 204.086 169.885C201.149 166.512 197.091 164.316 192.66 163.7C165.979 160.029 110.964 154.388 66.4757 162.403C61.3692 163.316 56.7566 166.023 53.469 170.036C50.1814 174.048 48.4348 179.103 48.544 184.29Z" fill="#4B5CDF"/>
<path d="M47.9046 193.389C47.9046 193.389 35.8989 187.83 33.4421 193.389C30.9853 198.948 33.744 205.767 36.4435 209.568C39.143 213.369 39.1312 260.326 39.1312 260.326L221.219 258.378L223.373 213.227C223.373 213.227 232.105 202.47 231.561 197.835C231.016 193.199 223.646 186.45 215.186 193.371C206.726 200.291 204.53 214.754 204.53 214.754L59.3539 215.849C59.3539 215.849 59.8512 195.538 47.9046 193.389Z" fill="#4B5CDF"/>
<path d="M202.689 223.776C202.689 223.859 170.431 223.93 130.649 223.93C90.8661 223.93 58.608 223.877 58.608 223.776C58.608 223.675 90.8543 223.622 130.649 223.622C170.443 223.622 202.689 223.705 202.689 223.776Z" fill="#263238"/>
<path d="M58.608 243.667C58.6003 243.62 58.6003 243.572 58.608 243.525C58.608 243.413 58.608 243.271 58.608 243.105C58.608 242.734 58.5961 242.195 58.5724 241.489C58.5724 240.062 58.5724 238.043 58.5724 235.569C58.5724 230.56 58.608 223.64 58.3771 216.033C58.332 212.451 58.0551 208.875 57.5483 205.329C57.4417 204.939 57.3352 204.548 57.2345 204.145C57.1339 203.743 56.9385 203.405 56.7846 203.044C56.4708 202.328 56.1512 201.641 55.8019 200.996C55.1713 199.795 54.43 198.655 53.5878 197.592C52.8846 196.721 52.0908 195.927 51.2198 195.224C50.5582 194.697 49.8464 194.237 49.0945 193.85C48.4395 193.549 47.7697 193.28 47.0876 193.045H47.2238L47.6323 193.158C48.1548 193.308 48.6621 193.506 49.1478 193.75C49.9211 194.117 50.6516 194.567 51.3264 195.094C52.2157 195.792 53.0257 196.586 53.7417 197.462C54.6072 198.527 55.3684 199.673 56.015 200.883C56.3761 201.535 56.7017 202.221 57.0214 202.944C57.1812 203.305 57.3292 203.678 57.4772 204.051L57.8147 205.235C58.3428 208.797 58.6296 212.39 58.6731 215.991C58.904 223.628 58.827 230.548 58.7796 235.557C58.7441 238.037 58.7145 240.056 58.6968 241.477C58.6968 242.158 58.6968 242.696 58.6968 243.093V243.507C58.608 243.614 58.608 243.667 58.608 243.667Z" fill="#263238"/>
<path d="M46.4898 203.867C46.6312 203.771 46.7983 203.719 46.9693 203.719C47.4452 203.683 47.9188 203.815 48.3073 204.092C48.5804 204.283 48.8037 204.537 48.9585 204.832C49.1354 205.179 49.1956 205.573 49.1301 205.957C49.0657 206.399 48.8688 206.811 48.5655 207.138C48.2622 207.466 47.8666 207.694 47.4311 207.792C46.9923 207.855 46.5446 207.787 46.1444 207.596C45.7442 207.406 45.4092 207.101 45.1815 206.72C44.9821 206.389 44.8814 206.007 44.8914 205.619C44.9127 205.212 45.0432 204.818 45.2692 204.478C45.4953 204.139 45.8085 203.866 46.1761 203.689C46.327 203.608 46.4959 203.565 46.6674 203.565C46.6674 203.595 46.4957 203.636 46.2293 203.796C45.857 204.027 45.559 204.36 45.3709 204.755C45.2303 205.033 45.163 205.341 45.1754 205.652C45.1878 205.963 45.2796 206.266 45.442 206.531C45.6448 206.856 45.937 207.115 46.2835 207.278C46.63 207.441 47.0162 207.5 47.3956 207.449C47.7667 207.362 48.1041 207.168 48.3661 206.891C48.6282 206.615 48.8032 206.267 48.8697 205.892C48.9219 205.583 48.8863 205.265 48.767 204.975C48.6477 204.685 48.4494 204.435 48.1948 204.252C47.8574 203.983 47.4419 203.832 47.0108 203.82C46.6674 203.837 46.4957 203.897 46.4898 203.867Z" fill="#263238"/>
<path d="M47.3127 215.553C46.9675 215.297 46.686 214.965 46.4898 214.582C45.9494 213.692 45.6577 212.673 45.6452 211.632C45.6327 210.591 45.8999 209.565 46.4188 208.662C46.6076 208.275 46.8806 207.935 47.218 207.668C47.2594 207.703 46.9516 208.076 46.626 208.763C46.1818 209.652 45.9545 210.634 45.9629 211.628C45.9792 212.623 46.2286 213.6 46.6911 214.482C47.0345 215.156 47.3601 215.523 47.3127 215.553Z" fill="#263238"/>
<path d="M45.4064 197.977C45.3742 198.277 45.3147 198.575 45.2288 198.865C44.969 200.281 45.2797 201.743 46.0931 202.932C46.2849 203.164 46.461 203.41 46.62 203.666C46.62 203.666 46.2884 203.5 45.9155 203.074C45.4351 202.487 45.1009 201.795 44.9404 201.054C44.7798 200.313 44.7975 199.544 44.992 198.811C45.0582 198.503 45.2007 198.216 45.4064 197.977Z" fill="#263238"/>
<path d="M41.8604 204.524C41.9314 204.465 42.482 205.021 43.3226 205.454C44.1632 205.886 44.9269 206.046 44.9151 206.117C44.3089 206.194 43.6948 206.056 43.1805 205.726C42.6145 205.49 42.1479 205.066 41.8604 204.524Z" fill="#263238"/>
<path d="M221.917 243.667C221.917 243.75 180.85 243.821 130.193 243.821C79.5352 243.821 38.48 243.75 38.48 243.667C38.48 243.584 79.5411 243.513 130.24 243.513C180.939 243.513 221.917 243.578 221.917 243.667Z" fill="#263238"/>
<path d="M202.056 214.926C202.144 214.926 202.209 221.355 202.209 229.282C202.209 237.208 202.144 243.649 202.056 243.649C201.967 243.649 201.902 237.22 201.902 229.282C201.902 221.343 201.973 214.926 202.056 214.926Z" fill="#263238"/>
<path d="M141.251 165.251H140.967L140.138 165.281L136.959 165.369L125.25 165.642L86.6274 166.417C82.8564 166.506 79.1682 166.494 75.6281 166.731C72.2191 166.877 68.8465 167.493 65.6055 168.56C62.6819 169.541 60.0655 171.27 58.0161 173.574C57.0864 174.616 56.2909 175.769 55.6481 177.008C55.0618 178.147 54.5765 179.336 54.1977 180.56C53.5892 182.686 53.1926 184.868 53.0137 187.072C52.8302 189.026 52.8124 190.713 52.8006 192.098C52.7887 193.483 52.8006 194.549 52.842 195.277C52.842 195.632 52.842 195.905 52.842 196.106C52.842 196.307 52.842 196.39 52.842 196.39C52.842 196.39 52.842 196.295 52.842 196.106C52.842 195.917 52.842 195.632 52.7946 195.277C52.7591 194.555 52.7117 193.501 52.6999 192.098C52.6881 190.695 52.6999 189.02 52.8598 187.054C53.034 184.828 53.4307 182.625 54.0438 180.477C54.4186 179.232 54.9019 178.021 55.4882 176.86C56.1255 175.596 56.9212 174.418 57.8562 173.355C59.9335 171.016 62.5867 169.261 65.5522 168.264C68.8041 167.179 72.1913 166.551 75.6162 166.399C79.1682 166.163 82.8623 166.169 86.6333 166.08L125.261 165.393L136.965 165.221L140.15 165.186H140.979L141.251 165.251Z" fill="#263238"/>
<path d="M94.6372 185.533C94.6372 185.533 94.4419 185.628 94.1399 185.858C93.7132 186.186 93.3937 186.633 93.2223 187.143C93.0843 187.506 93.0418 187.899 93.0988 188.284C93.1558 188.668 93.3104 189.032 93.5479 189.339C93.8156 189.744 94.2013 190.057 94.6527 190.236C95.1042 190.414 95.5996 190.45 96.0719 190.337C96.5441 190.225 96.9705 189.97 97.2931 189.607C97.6157 189.245 97.819 188.791 97.8755 188.309C97.9477 187.927 97.9215 187.532 97.7993 187.162C97.6771 186.793 97.4629 186.46 97.1769 186.196C96.7931 185.821 96.3071 185.567 95.7798 185.468C95.4068 185.403 95.1878 185.426 95.1878 185.403C95.377 185.333 95.5812 185.315 95.7798 185.349C96.2625 185.405 96.722 185.587 97.1118 185.877C97.5017 186.167 97.808 186.555 97.9998 187.001C98.1742 187.433 98.2214 187.905 98.1359 188.363C98.0595 188.892 97.8255 189.387 97.4644 189.782C97.1033 190.177 96.6317 190.455 96.1109 190.579C95.5901 190.703 95.0441 190.667 94.5438 190.477C94.0435 190.286 93.612 189.95 93.3052 189.511C93.0243 189.142 92.8539 188.7 92.8139 188.238C92.7872 187.835 92.8498 187.431 92.9974 187.054C93.1994 186.517 93.5688 186.058 94.0511 185.746C94.2239 185.624 94.4263 185.55 94.6372 185.533Z" fill="#263238"/>
<path d="M92.1449 200.872C91.9195 200.301 91.7683 199.704 91.695 199.096C91.4062 197.65 91.4385 196.158 91.7897 194.727C92.1692 193.276 93.0799 192.021 94.3412 191.21C94.7225 190.974 95.1408 190.804 95.5785 190.707C95.7353 190.658 95.9006 190.641 96.064 190.66C95.5003 190.84 94.9599 191.087 94.4537 191.394C93.2873 192.218 92.4488 193.428 92.0857 194.809C91.7518 196.201 91.6915 197.645 91.9081 199.06C92.0502 200.185 92.1923 200.86 92.1449 200.872Z" fill="#263238"/>
<path d="M94.2997 176.416C93.9853 176.833 93.6948 177.268 93.4295 177.718C92.8282 178.826 92.651 180.115 92.931 181.344C93.211 182.573 93.9291 183.658 94.9509 184.396C95.3861 184.69 95.8388 184.957 96.3066 185.195C96.16 185.195 96.015 185.165 95.8804 185.107C95.5077 184.975 95.1535 184.796 94.8266 184.574C93.7095 183.844 92.9192 182.709 92.6222 181.408C92.3251 180.108 92.5445 178.742 93.2341 177.6C93.4328 177.258 93.6756 176.943 93.9564 176.665C94.1576 176.457 94.2879 176.375 94.2997 176.416Z" fill="#263238"/>
<path d="M93.7551 188.256C92.673 188.437 91.6018 188.679 90.5464 188.978C89.5243 189.378 88.5244 189.833 87.5509 190.34C89.2616 188.851 91.4927 188.102 93.7551 188.256Z" fill="#263238"/>
<g opacity="0.3">
<path d="M74.6276 224.332C80.375 228.737 87.5314 230.894 94.7556 230.4C93.2558 237.358 91.76 244.318 90.2682 251.28C89.8716 253.133 89.4986 255.199 90.4695 256.833C91.8311 259.124 94.9983 259.349 97.6623 259.314C100.622 259.272 103.713 259.201 106.341 257.828C110.065 255.886 112.066 251.766 113.51 247.823C114.955 243.88 116.204 239.653 119.176 236.687C122.587 240.574 127.205 243.203 132.288 244.153C133.768 244.425 135.45 244.508 136.634 243.561C137.818 242.613 138.155 240.944 137.853 239.476C137.459 238.029 136.803 236.666 135.917 235.456L127.25 222.018C126.066 220.2 124.8 218.282 122.816 217.418C121.259 216.737 119.495 216.826 117.802 216.903C103.652 217.727 89.6084 219.849 75.8471 223.243" fill="black"/>
</g>
<g opacity="0.3">
<path d="M120.934 157.709C117.429 166.968 104.358 169.093 99.7461 177.837C95.2054 186.504 100.835 197.965 96.1586 206.584C94.424 209.769 91.4226 212.143 89.7531 215.352C88.6165 217.507 88.0304 220.088 86.2011 221.68C84.0581 223.545 80.737 223.51 78.1618 222.302C75.5866 221.094 73.6093 218.928 71.7741 216.755C68.3405 212.682 65.1141 208.277 63.4861 203.192C60.7274 194.448 63.2611 184.556 68.8141 177.251C74.367 169.945 82.5899 165.014 91.2746 162.06C99.9592 159.106 109.147 157.993 118.282 157.135" fill="black"/>
</g>
<path d="M78.8425 133.36C80.1693 131.292 82.0036 129.598 84.1705 128.44C86.3529 127.279 88.9042 127.022 91.2745 127.724C92.4392 128.094 93.488 128.759 94.3182 129.656C95.1484 130.552 95.7315 131.649 96.0105 132.839C96.3835 134.739 95.8744 136.859 96.8571 138.528C97.9819 140.446 100.699 141.05 101.658 143.063C101.91 143.686 102.015 144.359 101.965 145.029C101.914 145.7 101.71 146.35 101.368 146.928C100.678 148.081 99.7994 149.109 98.7693 149.971C99.3897 150.36 99.9384 150.853 100.391 151.428C100.616 151.717 100.765 152.058 100.825 152.42C100.885 152.782 100.854 153.153 100.735 153.5C100.349 154.185 99.7121 154.694 98.9587 154.92C95.6513 156.315 91.9952 156.658 88.4862 155.903C87.5509 155.702 86.4793 155.447 85.7097 156.016" fill="#263238"/>
<path d="M102.54 140.387L100.64 146.183L113.581 153.529L100.557 153.95L101.528 164.505L126.599 158.348C126.599 158.348 128.103 148.124 102.54 140.387L100.764 139.961C100.444 139.885 100.147 139.733 99.8983 139.518C99.6497 139.302 99.4573 139.03 99.3375 138.723C99.1343 138.225 98.7551 137.818 98.2719 137.581L96.1348 136.468V138.161L97.3188 139.54L97.1293 142.814C97.0796 143.515 97.2811 144.211 97.6976 144.777C98.1141 145.344 98.7185 145.743 99.4026 145.904L100.587 146.183" fill="#B78876"/>
<path d="M74.1894 161.344C73.6744 161.344 68.8969 162.528 66.1619 165.985C63.4269 169.442 59.4723 182.525 59.4723 182.525L69.5363 184.266L73.8816 195.176C73.8816 195.176 99.604 191.808 98.2365 190.44C96.9146 189.224 95.5314 188.076 94.0925 187.001L100.012 167.281L107.116 163.445L104.719 153.594L90.4102 155.53L74.1894 161.344Z" fill="#FAFAFA"/>
<path d="M98.7812 171.84C98.7812 171.923 90.7596 171.994 80.8731 171.994C70.9867 171.994 62.9592 171.923 62.9592 171.84C62.9592 171.757 70.9808 171.686 80.8731 171.686C90.7655 171.686 98.7812 171.757 98.7812 171.84Z" fill="#4B5CDF"/>
<path d="M97.1768 177.635C97.1768 177.718 89.1552 177.789 79.2688 177.789C69.3824 177.789 61.3549 177.718 61.3549 177.635C61.3549 177.553 69.3705 177.482 79.2688 177.482C89.167 177.482 97.1768 177.553 97.1768 177.635Z" fill="#4B5CDF"/>
<path d="M97.1768 183.893C97.1768 183.982 91.1028 184.053 83.6081 184.053C76.1134 184.053 70.0454 183.982 70.0454 183.893C70.0454 183.804 76.1193 183.739 83.6081 183.739C91.0969 183.739 97.1768 183.81 97.1768 183.893Z" fill="#4B5CDF"/>
<path d="M99.2547 189.925C99.2547 190.008 93.1808 190.079 85.692 190.079C78.2032 190.079 72.1293 190.008 72.1293 189.925C72.1293 189.843 78.1973 189.772 85.692 189.772C93.1867 189.772 99.2547 189.837 99.2547 189.925Z" fill="#4B5CDF"/>
<path d="M105.678 164.043C105.678 164.132 101.664 164.197 96.7209 164.197C91.7777 164.197 87.7581 164.132 87.7581 164.043C87.7581 163.954 91.7659 163.889 96.7209 163.889C101.676 163.889 105.678 163.984 105.678 164.043Z" fill="#4B5CDF"/>
<path d="M106.329 157.898C106.329 157.987 102.333 158.147 97.4076 158.259C92.4822 158.372 88.4744 158.401 88.4744 158.319C88.4744 158.236 92.4644 158.07 97.3958 157.952C102.327 157.833 106.329 157.815 106.329 157.898Z" fill="#4B5CDF"/>
<path d="M71.632 174.847C71.412 176.48 71.0897 178.097 70.6671 179.69C70.345 181.307 69.9239 182.902 69.4061 184.467C69.6264 182.835 69.9467 181.218 70.3652 179.625C70.6842 178.007 71.1073 176.411 71.632 174.847Z" fill="#263238"/>
<path d="M99.6336 248.764L92.1389 272.403L101.173 273.315L109.662 252.772L99.6336 248.764Z" fill="#B78876"/>
<path d="M106.246 264.115L101.943 274.771C101.943 274.771 111.343 282.733 110.74 284.782L89.7473 277.198L95.768 260.291L106.246 264.115Z" fill="#455A64"/>
<path d="M95.7797 271.527C95.5555 271.515 95.3349 271.587 95.1601 271.727C94.9853 271.868 94.8687 272.069 94.8325 272.29C94.812 272.514 94.8779 272.736 95.0167 272.913C95.1554 273.089 95.3565 273.205 95.5785 273.238C95.8158 273.249 96.0492 273.173 96.2338 273.023C96.4184 272.874 96.5413 272.661 96.5789 272.427C96.5789 271.977 96.1349 271.462 95.6909 271.527" fill="#E0E0E0"/>
<path d="M89.7473 277.198L90.4222 275.517L110.302 283.438C110.302 283.438 111.089 284.178 110.74 284.799L89.7473 277.198Z" fill="#E0E0E0"/>
<path d="M102.321 274.806C102.28 274.907 101.729 274.771 101.137 274.913C100.545 275.055 100.089 275.398 100.012 275.321C99.9354 275.244 100.297 274.729 101.054 274.546C101.812 274.362 102.374 274.718 102.321 274.806Z" fill="#263238"/>
<path d="M104.192 276.511C104.192 276.624 103.671 276.636 103.168 276.944C102.665 277.251 102.416 277.648 102.298 277.648C102.179 277.648 102.339 277.003 102.972 276.636C103.606 276.269 104.227 276.417 104.192 276.511Z" fill="#263238"/>
<path d="M104.488 279.602C104.387 279.602 104.429 279.01 104.896 278.56C105.364 278.11 105.927 278.045 105.938 278.145C105.95 278.246 105.542 278.441 105.169 278.826C104.796 279.211 104.595 279.631 104.488 279.602Z" fill="#263238"/>
<path d="M103.008 272.267C102.931 272.344 102.511 272.03 101.919 271.858C101.327 271.687 100.806 271.71 100.782 271.604C100.759 271.497 101.333 271.284 102.025 271.497C102.718 271.71 103.109 272.202 103.008 272.267Z" fill="#263238"/>
<path d="M103.861 270.094C103.483 270.061 103.121 269.929 102.813 269.709C102.457 269.506 102.128 269.257 101.836 268.969C101.657 268.804 101.493 268.624 101.345 268.431C101.251 268.323 101.175 268.201 101.12 268.069C101.078 267.973 101.07 267.865 101.097 267.763C101.124 267.661 101.184 267.571 101.268 267.507C101.345 267.454 101.433 267.42 101.525 267.408C101.618 267.395 101.712 267.405 101.8 267.436C101.934 267.485 102.062 267.551 102.179 267.631C102.39 267.767 102.589 267.921 102.771 268.093C103.068 268.382 103.318 268.716 103.511 269.082C103.723 269.4 103.831 269.777 103.819 270.159C103.76 270.159 103.642 269.768 103.28 269.218C103.071 268.898 102.82 268.608 102.535 268.354C102.369 268.2 102.188 268.063 101.996 267.945C101.794 267.809 101.605 267.738 101.516 267.815C101.427 267.892 101.475 267.862 101.516 267.939C101.563 268.035 101.62 268.124 101.688 268.206C101.825 268.387 101.971 268.561 102.126 268.727C102.396 269.004 102.689 269.257 103.002 269.484C103.302 269.667 103.589 269.871 103.861 270.094Z" fill="#263238"/>
<path d="M103.671 270.195C103.581 269.821 103.614 269.429 103.766 269.076C103.961 268.442 104.327 267.874 104.825 267.436C104.932 267.318 105.067 267.23 105.217 267.179C105.367 267.129 105.528 267.117 105.684 267.146C105.777 267.183 105.858 267.245 105.917 267.326C105.977 267.406 106.013 267.502 106.021 267.602C106.032 267.745 106.02 267.889 105.986 268.028C105.938 268.275 105.852 268.512 105.731 268.732C105.533 269.106 105.244 269.423 104.891 269.656C104.299 270.053 103.807 270.023 103.813 269.982C104.13 269.821 104.436 269.641 104.731 269.443C105.022 269.207 105.259 268.91 105.423 268.573C105.516 268.385 105.583 268.186 105.625 267.981C105.672 267.75 105.654 267.537 105.56 267.531C105.465 267.525 105.216 267.596 105.068 267.744C104.898 267.887 104.741 268.045 104.601 268.217C104.36 268.515 104.161 268.844 104.009 269.194C103.766 269.774 103.736 270.201 103.671 270.195Z" fill="#263238"/>
<path d="M128.079 226.511L139.268 245.958L148.42 240.086L137.184 220.342L128.079 226.511Z" fill="#B78876"/>
<path d="M145.259 234.527L151.043 244.496C151.043 244.496 163.096 241.962 164.345 243.697L145.448 255.596L135.805 240.447L145.259 234.527Z" fill="#455A64"/>
<path d="M144.679 247.343C144.529 247.51 144.446 247.726 144.446 247.95C144.446 248.174 144.529 248.391 144.679 248.557C144.84 248.705 145.052 248.787 145.271 248.787C145.49 248.787 145.701 248.705 145.863 248.557C146.018 248.376 146.101 248.144 146.096 247.906C146.09 247.668 145.997 247.44 145.833 247.267C145.645 247.126 145.41 247.063 145.176 247.09C144.943 247.118 144.729 247.234 144.578 247.415" fill="#E0E0E0"/>
<path d="M145.449 255.584L144.537 254.021L162.995 243.2C162.995 243.2 164.067 243.034 164.345 243.685L145.449 255.584Z" fill="#E0E0E0"/>
<path d="M151.286 244.194C151.339 244.289 150.907 244.62 150.64 245.2C150.374 245.781 150.374 246.325 150.267 246.343C150.161 246.361 149.96 245.751 150.267 245.041C150.575 244.33 151.25 244.093 151.286 244.194Z" fill="#263238"/>
<path d="M153.784 243.762C153.861 243.839 153.559 244.247 153.494 244.839C153.429 245.431 153.594 245.893 153.494 245.946C153.393 246 153.014 245.52 153.109 244.762C153.204 244.005 153.725 243.679 153.784 243.762Z" fill="#263238"/>
<path d="M156.407 245.425C156.33 245.502 155.915 245.124 155.815 244.466C155.714 243.809 156.039 243.342 156.128 243.389C156.217 243.436 156.128 243.88 156.193 244.419C156.258 244.958 156.489 245.36 156.407 245.425Z" fill="#263238"/>
<path d="M149.717 242.069C149.717 242.181 149.225 242.317 148.728 242.661C148.231 243.004 147.929 243.442 147.828 243.395C147.728 243.348 147.917 242.767 148.509 242.347C149.101 241.927 149.717 241.968 149.717 242.069Z" fill="#263238"/>
<path d="M148.515 240.086C148.515 240.121 148.213 240.411 147.568 240.678C147.186 240.828 146.789 240.935 146.384 240.997C146.142 241.028 145.899 241.045 145.656 241.051C145.512 241.056 145.368 241.04 145.229 241.003C145.128 240.976 145.039 240.915 144.976 240.832C144.913 240.748 144.879 240.646 144.88 240.541C144.885 240.447 144.912 240.356 144.96 240.275C145.007 240.193 145.073 240.124 145.152 240.074C145.273 240 145.402 239.943 145.537 239.902C146.163 239.687 146.834 239.636 147.485 239.754C148.184 239.884 148.551 240.139 148.527 240.174C148.503 240.21 148.112 240.074 147.455 240.02C147.072 239.992 146.686 240.012 146.307 240.08C146.087 240.119 145.872 240.176 145.662 240.251C145.425 240.328 145.253 240.435 145.259 240.553C145.265 240.672 145.259 240.612 145.348 240.648C145.451 240.672 145.556 240.682 145.662 240.678C146.275 240.686 146.886 240.6 147.473 240.423C147.812 240.285 148.16 240.172 148.515 240.086Z" fill="#263238"/>
<path d="M148.479 240.293C148.479 240.328 148.065 240.109 147.651 239.535C147.413 239.195 147.237 238.817 147.13 238.416C147.066 238.18 147.024 237.938 147.005 237.694C146.979 237.536 146.993 237.375 147.047 237.224C147.101 237.074 147.192 236.94 147.313 236.836C147.396 236.783 147.493 236.755 147.591 236.755C147.69 236.755 147.786 236.783 147.87 236.836C147.989 236.915 148.097 237.011 148.189 237.12C148.352 237.313 148.488 237.528 148.592 237.759C148.76 238.146 148.831 238.569 148.799 238.99C148.74 239.713 148.426 240.068 148.397 240.038C148.462 239.69 148.507 239.338 148.533 238.984C148.525 238.611 148.436 238.243 148.272 237.907C148.178 237.711 148.057 237.53 147.911 237.368C147.757 237.191 147.58 237.072 147.514 237.143C147.455 237.214 147.413 237.297 147.389 237.386C147.365 237.475 147.362 237.568 147.378 237.658C147.389 237.882 147.419 238.103 147.467 238.321C147.554 238.693 147.694 239.049 147.881 239.381C148.201 239.961 148.521 240.245 148.479 240.293Z" fill="#263238"/>
<path d="M94.7733 223.776L116.748 208.834L130.607 235.811L143.205 228.986C143.205 228.986 128.695 193.584 123.485 192.459C120.567 191.82 87.0951 198.207 87.0951 198.207L83.3536 196.331L73.8816 195.176L73.2896 196.71C71.6362 200.897 70.8758 205.383 71.0573 209.881C71.2387 214.378 72.358 218.789 74.3434 222.829L74.8051 223.77L94.7733 223.776Z" fill="#263238"/>
<path d="M87.0596 205.081C87.2253 205.821 105.412 222.841 105.412 222.841L94.9332 258.059L110.574 261.048L126.28 218.626L97.5735 190.464L84.437 195.952L87.0596 205.081Z" fill="#263238"/>
<path d="M116.748 208.828C116.796 208.899 111.912 212.297 105.85 216.423C99.7876 220.55 94.8267 223.835 94.7734 223.776C94.7201 223.717 99.6041 220.301 105.672 216.175C111.74 212.049 116.695 208.757 116.748 208.828Z" fill="#455A64"/>
<path d="M128.026 230.779C127.823 230.526 127.645 230.255 127.493 229.968C127.167 229.436 126.718 228.648 126.167 227.677C125.072 225.73 123.615 223.006 122.076 219.981C120.537 216.956 119.175 214.168 118.222 212.149C117.743 211.137 117.364 210.314 117.109 209.746C116.96 209.458 116.839 209.157 116.748 208.846C116.927 209.116 117.085 209.399 117.222 209.692L118.406 212.06C119.436 214.103 120.815 216.832 122.337 219.857C123.858 222.882 125.297 225.629 126.345 227.6C126.848 228.553 127.268 229.341 127.588 229.939C127.755 230.207 127.902 230.488 128.026 230.779Z" fill="#455A64"/>
<path d="M108.674 216.542C108.206 217.84 107.644 219.103 106.992 220.319C106.429 221.577 105.774 222.792 105.033 223.954C106.061 221.396 107.278 218.919 108.674 216.542Z" fill="#455A64"/>
<path d="M59.4723 182.525L55.9203 195.644C55.4618 197.341 55.6738 199.149 56.5123 200.694C57.2277 202.022 58.3599 203.078 59.7344 203.7C61.109 204.321 62.6498 204.474 64.1195 204.133L92.2691 197.201L89.3091 191.352L67.1328 193.276L69.5008 184.266L59.4723 182.525Z" fill="#B78876"/>
<path d="M71.9576 202.434L72.3247 200.528L87.5805 197.787L92.0146 174.267L120.348 170.893L115.588 195.999L71.9576 202.434Z" fill="#455A64"/>
<path d="M104.737 186.936C104.411 186.922 104.097 186.808 103.838 186.611C103.579 186.413 103.386 186.141 103.286 185.831C103.185 185.52 103.182 185.187 103.277 184.875C103.372 184.563 103.56 184.287 103.815 184.085C104.071 183.883 104.383 183.764 104.708 183.744C105.033 183.724 105.357 183.803 105.636 183.973C105.915 184.142 106.135 184.392 106.267 184.69C106.4 184.988 106.438 185.319 106.377 185.639C106.329 186.028 106.13 186.382 105.823 186.625C105.516 186.868 105.126 186.979 104.737 186.936Z" fill="#EBEBEB"/>
<path d="M76.1016 134.976L76.1548 136.675L76.7942 162.131C76.8712 165.091 79.47 167.376 82.6313 167.27C85.8281 167.169 88.3974 164.665 88.3737 161.675C88.3441 158.544 88.3737 155.24 88.3737 155.24C88.3737 155.24 92.4052 154.524 93.1808 149.243C93.5656 146.621 93.382 142.323 93.1216 138.812C93.066 138.063 92.8595 137.334 92.5144 136.667C92.1694 136 91.693 135.41 91.1139 134.932C90.5348 134.454 89.865 134.098 89.1449 133.886C88.4247 133.674 87.669 133.61 86.9233 133.697L76.1016 134.976Z" fill="#B78876"/>
<path d="M91.0793 141.766C91.0826 141.943 91.0172 142.114 90.8968 142.243C90.7764 142.372 90.6104 142.45 90.434 142.459C90.3492 142.466 90.2638 142.457 90.1827 142.431C90.1017 142.405 90.0265 142.363 89.9616 142.308C89.8966 142.253 89.8432 142.186 89.8044 142.11C89.7656 142.034 89.7422 141.952 89.7355 141.867C89.7321 141.691 89.7967 141.521 89.9159 141.392C90.0351 141.263 90.1995 141.185 90.3748 141.174C90.5467 141.159 90.7175 141.214 90.8495 141.325C90.9816 141.436 91.0643 141.594 91.0793 141.766Z" fill="#263238"/>
<path d="M92.2159 141.08C92.133 141.168 91.6239 140.795 90.8898 140.801C90.1558 140.807 89.6348 141.186 89.5519 141.097C89.469 141.008 89.5993 140.896 89.8302 140.724C90.1418 140.503 90.5138 140.384 90.8958 140.381C91.2742 140.377 91.6444 140.491 91.9554 140.707C92.1804 140.896 92.2574 141.038 92.2159 141.08Z" fill="#263238"/>
<path d="M83.9042 142.027C83.909 142.204 83.8441 142.376 83.7234 142.505C83.6026 142.635 83.4358 142.712 83.2589 142.719C83.087 142.734 82.9163 142.68 82.7842 142.569C82.6521 142.458 82.5695 142.299 82.5544 142.127C82.5512 141.951 82.6168 141.781 82.7374 141.653C82.8579 141.524 83.0238 141.448 83.1997 141.441C83.2845 141.432 83.3701 141.441 83.4515 141.466C83.5329 141.491 83.6086 141.532 83.6741 141.587C83.7396 141.641 83.7936 141.708 83.8331 141.784C83.8726 141.859 83.8968 141.942 83.9042 142.027Z" fill="#263238"/>
<path d="M85.0703 141.299C84.9875 141.387 84.4784 141.014 83.7443 141.02C83.0102 141.026 82.4892 141.405 82.4063 141.316C82.3235 141.228 82.4478 141.115 82.6787 140.943C82.9925 140.722 83.3664 140.603 83.7502 140.6C84.1267 140.596 84.4951 140.71 84.804 140.926C85.0289 141.097 85.1118 141.257 85.0703 141.299Z" fill="#263238"/>
<path d="M87.7699 146.656C88.1538 146.532 88.5515 146.457 88.9539 146.431C89.1434 146.431 89.3151 146.372 89.3447 146.242C89.3587 146.051 89.3131 145.861 89.2144 145.697L88.652 144.288C88.1276 143.097 87.7 141.866 87.3733 140.606C87.995 141.744 88.5198 142.932 88.9421 144.158L89.4867 145.573C89.6043 145.796 89.6418 146.053 89.5933 146.301C89.5667 146.367 89.5258 146.426 89.4736 146.474C89.4214 146.522 89.3592 146.558 89.2914 146.579C89.1871 146.608 89.0798 146.624 88.9717 146.627C88.5741 146.688 88.1701 146.698 87.7699 146.656Z" fill="#263238"/>
<path d="M88.3738 155.258C85.8868 155.337 83.4268 154.722 81.2698 153.482C81.2698 153.482 83.0458 157.081 88.2909 156.525L88.3738 155.258Z" fill="#AA6550"/>
<path d="M85.3604 140.097C85.2835 140.292 84.5612 140.168 83.7028 140.227C82.8444 140.286 82.1459 140.493 82.0393 140.31C81.992 140.221 82.1222 140.044 82.4064 139.866C82.7866 139.643 83.2151 139.515 83.6555 139.493C84.094 139.46 84.5342 139.531 84.9401 139.7C85.248 139.842 85.396 140.008 85.3604 140.097Z" fill="#263238"/>
<path d="M91.9138 138.528C91.7836 138.694 91.2804 138.528 90.6825 138.528C90.0846 138.528 89.5695 138.652 89.4511 138.481C89.3327 138.309 89.4511 138.232 89.6938 138.072C89.9916 137.88 90.3402 137.781 90.6948 137.788C91.0493 137.796 91.3934 137.909 91.683 138.114C91.8961 138.303 91.9671 138.475 91.9138 138.528Z" fill="#263238"/>
<path d="M87.693 149.291C87.4798 149.325 87.2613 149.302 87.0596 149.225L86.4676 149.06C86.3018 149.006 86.1183 148.929 85.9111 148.852C85.7033 148.795 85.515 148.683 85.3664 148.527C85.2421 148.367 85.2658 148.083 85.55 147.828C85.7472 147.685 85.976 147.59 86.2171 147.553C86.4583 147.515 86.705 147.536 86.9366 147.613C87.1682 147.69 87.378 147.821 87.5487 147.995C87.7194 148.17 87.846 148.382 87.918 148.616C88.0423 148.989 87.8884 149.237 87.693 149.291Z" fill="#AA6550"/>
<path d="M87.7936 149.225C87.7225 149.279 87.3673 148.551 86.5148 148.332C85.9936 148.257 85.4618 148.316 84.9697 148.503C84.9697 148.503 85.0644 148.314 85.3545 148.166C85.7378 147.975 86.1772 147.928 86.5918 148.036C87.0078 148.141 87.3716 148.393 87.616 148.746C87.7995 149.012 87.8291 149.214 87.7936 149.225Z" fill="#263238"/>
<path d="M82.1992 131.554C83.0123 132.836 83.3613 134.358 83.1878 135.867C83.0144 137.375 82.329 138.778 81.2461 139.842C79.9851 141.026 78.1085 141.932 77.9842 143.649C77.8421 145.549 80.0443 146.97 80.0443 148.876C80.0443 150.782 77.7888 152.085 77.3448 153.997C76.9896 155.536 77.9368 157.075 78.9787 158.242C80.0206 159.408 81.3467 160.438 81.9387 161.882C82.253 162.696 82.3993 163.565 82.3688 164.437C82.3382 165.309 82.1315 166.166 81.7611 166.956C81.0118 168.526 80.0121 169.963 78.8011 171.212C77.2268 170.649 75.588 170.285 73.923 170.129C74.0237 169.501 74.1302 168.868 74.2368 168.24C74.2211 168.607 74.0895 168.96 73.8607 169.247C73.632 169.534 73.318 169.741 72.964 169.839C72.2503 170.02 71.5038 170.031 70.7854 169.868C68.5666 169.518 66.3861 168.957 64.2734 168.193C65.2182 167.342 66.018 166.342 66.6414 165.233C66.9487 164.672 67.1151 164.045 67.1265 163.406C67.1378 162.767 66.9937 162.134 66.7066 161.563C66.1856 160.675 65.2266 160.106 64.747 159.195C64.0307 157.833 64.6227 156.104 65.641 154.95C66.6592 153.796 68.0445 153.044 69.2581 152.097C70.4717 151.149 71.5846 149.871 71.6794 148.332C71.8096 146.342 70.1934 144.525 70.3947 142.542C70.6197 140.28 73.0114 138.895 73.9467 136.823C74.6275 135.325 74.5387 133.478 75.5806 132.205C75.9894 131.751 76.4974 131.397 77.0652 131.171C77.633 130.946 78.2453 130.854 78.8544 130.903C80.0717 131.009 81.2435 131.416 82.2643 132.087" fill="#263238"/>
<path d="M88.8 155.826C87.8528 156.347 87.9061 157.798 88.4862 158.715C89.0664 159.633 89.9958 160.29 90.5701 161.213C91.0554 162.057 91.2249 163.045 91.0481 164.002C90.8713 164.958 90.3598 165.821 89.6051 166.435L91.8784 167.293L92.3757 167.015L93.7728 166.222L93.1157 167.838H94.572C95.3456 167.854 96.1083 167.653 96.7735 167.258C97.4388 166.862 97.9801 166.289 98.3363 165.602C98.6924 164.915 98.849 164.142 98.7885 163.371C98.728 162.599 98.4527 161.86 97.9938 161.237C97.4018 160.408 96.4664 159.751 96.2592 158.751C96.0165 157.537 96.9341 156.442 97.3781 155.293C97.7314 154.323 97.7682 153.266 97.4831 152.274C97.1981 151.281 96.6059 150.405 95.7915 149.77" fill="#263238"/>
<path d="M43.956 107.916C44.0894 107.982 44.2016 108.084 44.2801 108.211C44.3585 108.337 44.4 108.483 44.4 108.632V112.575C44.3997 112.696 44.3713 112.816 44.3169 112.925C44.2624 113.034 44.1835 113.129 44.0862 113.202C43.9895 113.278 43.8762 113.329 43.7557 113.351C43.6352 113.374 43.5111 113.367 43.3936 113.332C43.0685 113.249 42.73 113.233 42.3984 113.284C42.0668 113.334 41.7489 113.452 41.4637 113.628C41.2008 113.779 40.9717 113.981 40.7904 114.223C40.6091 114.466 40.4796 114.743 40.4099 115.037C40.3571 115.337 40.3655 115.644 40.4347 115.94C40.5039 116.236 40.6324 116.515 40.8125 116.76C40.9996 117.038 41.2397 117.276 41.5191 117.461C41.7984 117.646 42.1115 117.774 42.4405 117.838C43.1085 117.904 43.7794 117.742 44.3431 117.378C44.9067 117.013 45.3297 116.467 45.5425 115.831C45.574 115.732 45.6246 115.64 45.6915 115.561C45.7584 115.482 45.8402 115.417 45.9323 115.369C46.0244 115.322 46.1249 115.293 46.2282 115.284C46.3314 115.275 46.4354 115.287 46.5341 115.319C46.6329 115.35 46.7244 115.401 46.8036 115.468C46.8828 115.534 46.948 115.616 46.9955 115.708C47.0431 115.8 47.072 115.901 47.0807 116.004C47.0894 116.108 47.0777 116.211 47.0462 116.31C46.7167 117.306 46.0537 118.157 45.1692 118.72C44.2847 119.283 43.2331 119.523 42.1918 119.4C41.6501 119.308 41.1329 119.105 40.6719 118.806C40.2108 118.507 39.8155 118.117 39.5101 117.66C39.2074 117.236 38.9937 116.755 38.8818 116.247C38.7699 115.738 38.7621 115.212 38.8589 114.7C38.9727 114.194 39.189 113.716 39.4945 113.297C39.7999 112.877 40.188 112.525 40.6349 112.261C41.2905 111.867 42.0425 111.662 42.8075 111.669V108.632C42.8075 108.422 42.8911 108.22 43.0398 108.071C43.1886 107.922 43.3904 107.839 43.6008 107.839C43.7234 107.838 43.8447 107.864 43.956 107.916Z" fill="#4B5CDF"/>
<path d="M42.8667 106.258C42.8644 106.131 42.8998 106.006 42.9685 105.898C43.0373 105.791 43.1362 105.707 43.2528 105.655C43.3695 105.604 43.4986 105.589 43.624 105.611C43.7495 105.633 43.8655 105.692 43.9576 105.78C44.0497 105.868 44.1137 105.981 44.1415 106.105C44.1694 106.23 44.1598 106.359 44.1141 106.478C44.0683 106.597 43.9884 106.7 43.8844 106.773C43.7804 106.847 43.657 106.888 43.5297 106.892C43.4445 106.894 43.3596 106.879 43.28 106.849C43.2005 106.818 43.1278 106.772 43.0661 106.713C43.0045 106.654 42.9551 106.584 42.9209 106.506C42.8866 106.427 42.8682 106.343 42.8667 106.258Z" fill="#4B5CDF"/>
<path d="M62.16 127.369C62.16 127.369 61.9647 127.369 61.6391 127.535C61.1931 127.727 60.817 128.051 60.5616 128.464C60.3804 128.747 60.2651 129.066 60.2242 129.399C60.1786 129.781 60.2466 130.169 60.4195 130.512C60.5967 130.921 60.8949 131.265 61.274 131.498C61.653 131.731 62.0945 131.842 62.5387 131.816C62.983 131.791 63.4086 131.629 63.7581 131.353C64.1075 131.078 64.3639 130.702 64.4925 130.276C64.625 129.913 64.6477 129.52 64.5576 129.145C64.4748 128.819 64.3235 128.514 64.1136 128.251C63.8089 127.87 63.3963 127.589 62.9296 127.446C62.5922 127.351 62.3909 127.363 62.3909 127.345H62.533C62.5921 127.34 62.6515 127.34 62.7106 127.345C62.7885 127.35 62.8658 127.361 62.9415 127.381C63.4426 127.499 63.8915 127.777 64.2202 128.174C64.4539 128.444 64.6221 128.764 64.7115 129.109C64.8088 129.501 64.7903 129.912 64.6583 130.293C64.5136 130.726 64.2511 131.109 63.9005 131.4C63.5269 131.722 63.06 131.915 62.5685 131.951C62.0771 131.97 61.5921 131.834 61.1832 131.56C60.7993 131.314 60.4918 130.965 60.2952 130.554C60.1193 130.186 60.0516 129.775 60.0999 129.37C60.1499 129.016 60.2795 128.678 60.4788 128.381C60.7621 127.948 61.1773 127.618 61.6628 127.44C61.7382 127.413 61.8153 127.391 61.8936 127.375C61.9494 127.358 62.0071 127.348 62.0653 127.345C62.0978 127.349 62.1297 127.357 62.16 127.369Z" fill="#263238"/>
<path d="M67.9379 133.093C67.9379 133.093 67.8136 133.123 67.6182 133.212C67.3366 133.336 67.0993 133.542 66.9374 133.804C66.815 133.99 66.743 134.204 66.7285 134.426C66.714 134.648 66.7574 134.87 66.8545 135.071C66.9648 135.322 67.1494 135.534 67.3835 135.677C67.6176 135.82 67.89 135.888 68.164 135.872C68.438 135.856 68.7005 135.757 68.9162 135.587C69.1319 135.417 69.2905 135.185 69.3705 134.923C69.4442 134.712 69.4616 134.487 69.4211 134.267C69.3807 134.048 69.2836 133.844 69.1396 133.674C68.9485 133.432 68.6883 133.254 68.3937 133.164C68.1865 133.099 68.0622 133.105 68.0622 133.088C68.1767 133.058 68.297 133.058 68.4115 133.088C68.6816 133.152 68.9296 133.287 69.1295 133.48C69.3295 133.672 69.474 133.915 69.5481 134.183C69.6216 134.436 69.6216 134.705 69.5481 134.958C69.4609 135.252 69.2853 135.512 69.0451 135.702C68.805 135.893 68.5121 136.005 68.2061 136.023C67.9002 136.041 67.5961 135.964 67.3352 135.804C67.0743 135.643 66.8692 135.405 66.748 135.124C66.6296 134.886 66.5863 134.618 66.6236 134.354C66.6555 134.129 66.7385 133.915 66.8664 133.727C67.0483 133.453 67.3142 133.245 67.6241 133.135C67.7244 133.098 67.8315 133.084 67.9379 133.093Z" fill="#263238"/>
<path d="M61.2246 115.635C61.2246 115.635 61.2246 115.535 61.2246 115.339C61.2246 115.144 61.2246 114.848 61.2246 114.469C61.2246 114.274 61.2246 114.061 61.2246 113.824C61.2246 113.587 61.1891 113.332 61.1714 113.054C61.1536 112.776 61.1299 112.462 61.1003 112.154C61.0928 111.989 61.071 111.825 61.0352 111.663L60.9464 111.142C60.6544 109.402 60.1015 107.715 59.3065 106.14C58.272 104.055 56.8472 102.188 55.1093 100.64L54.3693 99.9947C54.1088 99.7934 53.8306 99.604 53.5582 99.4027L53.1379 99.1067C53.0057 98.9979 52.8629 98.9027 52.7117 98.8225L51.8 98.272C51.6461 98.1832 51.4981 98.0885 51.3382 98.0056L50.8469 97.7806L49.8582 97.3307C49.5149 97.1886 49.1597 97.0821 48.8104 96.9577L48.2776 96.7742L48.0053 96.6854L47.727 96.6203C46.9797 96.423 46.2204 96.2747 45.4537 96.1763C45.063 96.1349 44.6664 96.0638 44.2697 96.0401L43.0858 96.0046C42.8845 96.0046 42.6832 96.0046 42.4937 96.0046L41.9018 96.052C41.4874 96.0875 41.073 96.0993 40.6645 96.1526C39.8271 96.2716 38.9985 96.4457 38.184 96.6736L37.5624 96.8512C37.4618 96.8512 37.3552 96.9045 37.2546 96.94L36.9526 97.0584L35.7331 97.532C35.3365 97.7096 34.9458 97.9227 34.5491 98.124C34.3538 98.2305 34.1525 98.3134 33.9571 98.4318L33.3651 98.7929C32.5979 99.2736 31.8642 99.8057 31.1688 100.385L30.1683 101.327L29.9137 101.563L29.6829 101.824L29.227 102.351L28.7653 102.872L28.3509 103.464L27.9424 104.056L27.7352 104.346C27.6701 104.447 27.6109 104.547 27.5517 104.648L26.8354 105.885C26.64 106.317 26.4387 106.749 26.2434 107.187C24.7025 110.808 24.3886 114.833 25.3494 118.649L25.7402 120.034L26.2552 121.36L26.3854 121.691L26.5453 122.005L26.865 122.639L27.1787 123.26L27.5576 123.852L27.9306 124.444L28.1141 124.734L28.3272 125.007L29.1737 126.096C29.7716 126.776 30.4143 127.415 31.0977 128.008L31.601 128.452C31.7667 128.6 31.9561 128.719 32.1337 128.849C32.4949 129.103 32.8441 129.376 33.2112 129.612L34.336 130.24L34.6142 130.406L34.9102 130.542L35.5022 130.808C36.2713 131.159 37.0623 131.46 37.8702 131.708C38.2728 131.827 38.6813 131.903 39.0542 132.004L39.6462 132.146C39.8475 132.188 40.0488 132.199 40.2382 132.229L41.4222 132.383C41.8189 132.424 42.2155 132.383 42.6062 132.43C43.3808 132.457 44.1562 132.429 44.9269 132.347H45.211L45.4893 132.3L46.0457 132.205C46.4128 132.134 46.7798 132.087 47.135 131.998L48.1888 131.708L48.7097 131.566L49.207 131.371L50.1838 130.992C50.3454 130.934 50.5019 130.863 50.6515 130.779L51.1133 130.548C51.4152 130.394 51.7053 130.252 52.0072 130.092L52.836 129.565C54.8062 128.305 56.5131 126.674 57.8621 124.764C58.0101 124.557 58.164 124.355 58.3061 124.172L58.6731 123.544L59.0283 122.952C59.0875 122.852 59.1467 122.757 59.2 122.656C59.2533 122.556 59.2888 122.449 59.3362 122.349L59.8689 121.2C60.0229 120.833 60.1294 120.46 60.2537 120.123L60.4314 119.619C60.4895 119.466 60.5351 119.307 60.5675 119.146L60.7806 118.264C60.8398 117.992 60.9109 117.743 60.9523 117.512C60.9938 117.281 61.0115 117.068 61.0411 116.879C61.0885 116.5 61.1299 116.216 61.1595 116.014C61.1891 115.813 61.2069 115.724 61.2069 115.724C61.2069 115.724 61.2069 115.825 61.2069 116.02L61.1003 116.884C61.1003 117.074 61.053 117.287 61.0233 117.518C60.9938 117.749 60.9168 118.003 60.8576 118.276C60.7984 118.548 60.7273 118.868 60.6563 119.158C60.6247 119.321 60.5792 119.482 60.5202 119.637C60.461 119.803 60.4077 119.969 60.3485 120.14C60.2242 120.484 60.1235 120.857 59.9637 121.23C59.8038 121.603 59.6203 121.982 59.4427 122.414L59.3006 122.722C59.2533 122.822 59.1881 122.923 59.1349 123.023C59.0165 123.219 58.8981 123.426 58.7797 123.615C58.6613 123.805 58.5369 124.036 58.4126 124.255C58.2883 124.474 58.1166 124.663 57.9686 124.876C56.6083 126.777 54.8937 128.397 52.9189 129.648L52.0842 130.181C51.7941 130.341 51.4921 130.489 51.1843 130.643L50.7285 130.879C50.5763 130.962 50.4179 131.034 50.2549 131.092L49.2662 131.477L48.7689 131.673L48.248 131.821L47.1883 132.117C46.8272 132.205 46.4542 132.253 46.0872 132.324L45.5248 132.424L45.2465 132.472H44.9565C44.1821 132.557 43.4027 132.589 42.624 132.567C42.2274 132.567 41.8248 132.567 41.44 132.519L40.256 132.365C40.0488 132.365 39.8475 132.324 39.664 132.276L39.072 132.14C38.6694 132.04 38.255 131.963 37.8525 131.844C37.0431 131.598 36.2519 131.295 35.4845 130.939L34.8925 130.672L34.5965 130.536L34.3123 130.37L33.1698 129.707C32.8027 129.47 32.4475 129.192 32.0864 128.938C31.9029 128.801 31.7134 128.683 31.5477 128.535L31.0386 128.091C30.3168 127.492 29.6383 126.844 29.008 126.149L28.1496 125.054L27.9365 124.776L27.747 124.48L27.3741 123.888L26.9952 123.296L26.6755 122.668L26.3499 122.029L26.1901 121.709L26.048 121.36C25.8704 120.916 25.6987 120.466 25.527 120.022C25.3553 119.578 25.2666 119.093 25.1304 118.625C24.1715 114.776 24.4936 110.719 26.048 107.069L26.64 105.749C26.8827 105.335 27.1254 104.92 27.3622 104.506C27.4274 104.405 27.4806 104.299 27.5457 104.198L27.753 103.908L28.1733 103.316L28.5877 102.724L29.0554 102.191L29.5171 101.664L29.748 101.404L30.0026 101.161L31.0149 100.208C31.7172 99.6246 32.459 99.0905 33.2349 98.6094L33.8269 98.2483C34.0163 98.124 34.2235 98.0411 34.4189 97.9345C34.8155 97.7392 35.2062 97.5201 35.6029 97.3425L36.8342 96.863L37.1421 96.7446L37.4499 96.6558L38.0774 96.4841C38.8974 96.2539 39.7321 96.0799 40.5757 95.9632C40.996 95.9099 41.4104 95.8921 41.8248 95.8566L42.4168 95.8152C42.6181 95.8152 42.8253 95.8152 43.0088 95.8152L44.2283 95.8507C44.6309 95.8507 45.0216 95.9454 45.4123 95.9928C46.1861 96.0886 46.9518 96.241 47.7034 96.4486L47.9875 96.5137C48.0763 96.5137 48.1651 96.5729 48.2539 96.6025L48.7926 96.7861C49.1478 96.9163 49.5089 97.0169 49.8464 97.159L50.912 97.68L51.4034 97.9049L51.871 98.1713L52.7827 98.7041C52.9334 98.7905 53.0779 98.8874 53.2149 98.9942L53.6352 99.2961C53.9075 99.4974 54.1917 99.6869 54.4522 99.8881L55.1981 100.539C56.9507 102.107 58.3839 103.999 59.419 106.11C60.2144 107.694 60.7615 109.392 61.0411 111.142C61.0707 111.32 61.1003 111.497 61.1299 111.663C61.1606 111.827 61.1804 111.993 61.1891 112.16C61.1891 112.48 61.2365 112.782 61.2542 113.06C61.272 113.338 61.2957 113.599 61.3016 113.836C61.3075 114.072 61.3016 114.286 61.3016 114.481C61.3016 114.86 61.3016 115.15 61.3016 115.351L61.2246 115.635Z" fill="#263238"/>
<path d="M260.735 263.44C260.707 263.357 260.674 263.276 260.634 263.197C260.551 263.026 260.445 262.801 260.308 262.505C259.912 261.608 259.593 260.679 259.355 259.728C258.591 256.194 258.617 252.535 259.432 249.013C259.941 246.572 260.606 244.165 261.421 241.808C262.262 239.257 263.245 236.545 264.038 233.615C264.942 230.555 265.38 227.375 265.334 224.184C265.21 220.852 264.227 217.524 263.138 214.209C262.049 210.894 260.936 207.65 260.598 204.388C260.22 201.253 260.842 198.079 262.374 195.319C263.813 192.672 265.619 190.405 266.974 188.061C268.236 185.886 269.168 183.536 269.739 181.087C270.552 177.535 270.61 173.853 269.911 170.277C269.662 168.97 269.285 167.691 268.786 166.459C268.8 166.545 268.822 166.63 268.851 166.713C268.91 166.897 268.981 167.139 269.082 167.447C269.364 168.386 269.597 169.338 269.78 170.301C270.426 173.857 270.331 177.509 269.502 181.028C268.925 183.45 267.989 185.773 266.726 187.919C265.376 190.233 263.564 192.489 262.096 195.165C260.514 197.977 259.865 201.219 260.243 204.424C260.581 207.739 261.705 211.007 262.789 214.316C263.872 217.625 264.849 220.923 264.973 224.196C265.022 227.352 264.597 230.497 263.712 233.526C262.925 236.445 261.936 239.156 261.125 241.72C260.316 244.089 259.663 246.51 259.172 248.966C258.26 253.477 258.521 257.289 259.201 259.764C259.456 260.716 259.797 261.643 260.22 262.534L260.581 263.215C260.624 263.295 260.675 263.371 260.735 263.44Z" fill="#263238"/>
<path d="M265.163 190.352C265.163 190.352 267.91 181.566 262.978 176.422C262.94 176.38 262.891 176.35 262.836 176.335C262.782 176.319 262.724 176.32 262.67 176.336C262.615 176.352 262.567 176.383 262.529 176.425C262.491 176.468 262.467 176.52 262.457 176.576C262.197 178.026 261.865 182.443 265.163 190.352Z" fill="#4B5CDF"/>
<path d="M263.517 179.376C263.522 179.922 263.583 180.465 263.7 180.998C263.878 182.117 264.091 183.425 264.328 184.876C264.565 186.326 264.766 187.634 264.92 188.747C264.963 189.29 265.061 189.828 265.21 190.352C265.258 189.807 265.24 189.258 265.157 188.718C265.068 187.717 264.89 186.35 264.642 184.816C264.393 183.283 264.133 181.939 263.913 180.957C263.839 180.417 263.706 179.887 263.517 179.376Z" fill="#263238"/>
<path d="M261.936 211.066C261.936 211.066 260.255 202.02 253.494 199.776C253.441 199.759 253.384 199.757 253.33 199.769C253.275 199.782 253.225 199.809 253.185 199.848C253.145 199.887 253.116 199.936 253.102 199.99C253.087 200.044 253.088 200.101 253.104 200.155C253.548 201.558 255.324 205.619 261.936 211.066Z" fill="#4B5CDF"/>
<path d="M255.335 202.115C255.596 202.592 255.903 203.042 256.253 203.459L258.621 206.59C259.503 207.774 260.296 208.828 260.989 209.728C261.288 210.184 261.624 210.614 261.995 211.013C261.783 210.51 261.512 210.033 261.19 209.592C260.64 208.745 259.835 207.609 258.905 206.383C257.976 205.158 257.129 204.08 256.46 203.311C256.13 202.872 255.753 202.471 255.335 202.115Z" fill="#263238"/>
<path d="M263.76 233.769C263.76 233.769 264.784 224.623 258.964 220.514C258.919 220.482 258.865 220.462 258.809 220.458C258.753 220.454 258.697 220.466 258.646 220.491C258.596 220.517 258.554 220.556 258.525 220.604C258.495 220.652 258.48 220.707 258.479 220.763C258.497 222.237 259.018 226.635 263.76 233.769Z" fill="#4B5CDF"/>
<path d="M260.048 223.285C260.155 223.82 260.32 224.342 260.539 224.842C260.93 225.901 261.386 227.15 261.889 228.524C262.392 229.897 262.848 231.146 263.233 232.212C263.382 232.735 263.58 233.242 263.825 233.728C263.77 233.184 263.649 232.649 263.464 232.135C263.185 231.17 262.747 229.844 262.215 228.405C261.682 226.967 261.161 225.676 260.764 224.753C260.579 224.239 260.339 223.747 260.048 223.285Z" fill="#263238"/>
<path d="M258.669 256.608C258.669 256.608 259.361 247.426 253.4 243.531C253.353 243.499 253.298 243.48 253.242 243.477C253.185 243.475 253.129 243.488 253.079 243.516C253.03 243.544 252.989 243.585 252.962 243.635C252.935 243.684 252.923 243.741 252.926 243.797C252.997 245.266 253.672 249.646 258.669 256.608Z" fill="#4B5CDF"/>
<path d="M254.56 246.272C254.695 246.801 254.879 247.317 255.111 247.811C255.537 248.859 256.04 250.084 256.597 251.44C257.153 252.796 257.644 254.033 258.071 255.075C258.233 255.595 258.45 256.097 258.716 256.573C258.638 256.031 258.496 255.501 258.296 254.992C257.982 254.039 257.496 252.731 256.91 251.31C256.324 249.889 255.762 248.622 255.33 247.711C255.131 247.202 254.872 246.72 254.56 246.272Z" fill="#263238"/>
<path d="M269.111 182.632C269.111 182.632 277.269 178.37 277.429 171.248C277.43 171.192 277.415 171.136 277.387 171.088C277.359 171.039 277.317 170.999 277.268 170.972C277.219 170.945 277.163 170.933 277.107 170.935C277.05 170.938 276.996 170.956 276.949 170.987C275.736 171.828 272.379 174.711 269.111 182.632Z" fill="#4B5CDF"/>
<path d="M275.736 173.699C275.35 174.084 275.009 174.511 274.718 174.972L272.415 178.151C271.556 179.335 270.775 180.412 270.106 181.324C269.76 181.744 269.45 182.191 269.177 182.662C269.598 182.314 269.976 181.916 270.301 181.478C270.947 180.702 271.799 179.601 272.669 178.352C273.54 177.103 274.351 175.984 274.895 175.108C275.224 174.669 275.506 174.197 275.736 173.699Z" fill="#263238"/>
<path d="M260.35 201.499C260.35 201.499 268.768 197.728 269.36 190.624C269.367 190.567 269.357 190.51 269.332 190.458C269.308 190.407 269.269 190.363 269.221 190.333C269.172 190.303 269.116 190.287 269.059 190.287C269.002 190.287 268.946 190.303 268.898 190.334C267.619 191.115 264.091 193.791 260.35 201.499Z" fill="#4B5CDF"/>
<path d="M267.501 192.992C267.099 193.349 266.734 193.745 266.412 194.176L263.919 197.207L261.427 200.238C261.052 200.633 260.713 201.061 260.415 201.517C260.852 201.192 261.25 200.816 261.599 200.398C262.291 199.664 263.209 198.622 264.18 197.438C265.151 196.254 266.003 195.147 266.595 194.336C266.949 193.925 267.253 193.474 267.501 192.992Z" fill="#263238"/>
<path d="M265.18 222.539C265.18 222.539 270.952 215.37 268.247 208.781C268.226 208.728 268.191 208.682 268.146 208.648C268.101 208.614 268.047 208.594 267.991 208.588C267.935 208.583 267.878 208.593 267.827 208.617C267.776 208.642 267.733 208.68 267.702 208.727C266.927 209.982 265.009 213.978 265.18 222.539Z" fill="#4B5CDF"/>
<path d="M267.673 211.699C267.479 212.208 267.339 212.736 267.252 213.274C267.01 214.381 266.731 215.677 266.418 217.11L265.577 220.94C265.423 221.463 265.316 221.997 265.257 222.539C265.505 222.053 265.69 221.538 265.808 221.005C266.092 220.035 266.435 218.685 266.755 217.187C267.075 215.689 267.347 214.316 267.489 213.321C267.61 212.789 267.672 212.245 267.673 211.699Z" fill="#263238"/>
<path d="M259.468 247.302C259.468 247.302 267.803 243.407 268.277 236.297C268.281 236.241 268.27 236.185 268.244 236.136C268.218 236.086 268.179 236.044 268.131 236.016C268.084 235.987 268.029 235.972 267.973 235.972C267.917 235.973 267.862 235.989 267.815 236.019C266.566 236.8 263.085 239.535 259.468 247.302Z" fill="#4B5CDF"/>
<path d="M266.477 238.671C266.08 239.043 265.721 239.454 265.405 239.896L262.972 242.975C262.055 244.123 261.232 245.159 260.521 246.041C260.155 246.443 259.826 246.877 259.539 247.338C259.978 247.008 260.375 246.626 260.723 246.201C261.403 245.455 262.303 244.395 263.25 243.188C264.198 241.98 265.026 240.867 265.618 240.044C265.954 239.619 266.242 239.159 266.477 238.671Z" fill="#263238"/>
<path d="M242.862 211.119C242.862 211.119 242.862 211.19 242.862 211.32C242.862 211.451 242.862 211.675 242.862 211.912C242.892 212.469 242.921 213.215 242.963 214.144C243.069 216.11 243.223 218.845 243.401 222.118C243.993 225.445 245.692 229.139 247.971 232.721C249.64 235.361 251.393 237.765 252.908 239.997C254.281 241.946 255.515 243.99 256.602 246.112C257.32 247.55 257.9 249.053 258.337 250.599C258.485 251.15 258.592 251.576 258.657 251.872C258.681 252.025 258.723 252.173 258.781 252.316C258.771 252.161 258.751 252.007 258.722 251.855C258.68 251.559 258.592 251.12 258.467 250.564C258.075 248.993 257.523 247.465 256.821 246.006C255.76 243.855 254.539 241.787 253.169 239.819C251.671 237.57 249.925 235.166 248.261 232.538C246 228.986 244.312 225.339 243.691 222.059C243.46 218.785 243.265 216.056 243.128 214.097C243.052 213.167 242.992 212.421 242.951 211.865C242.951 211.634 242.904 211.439 242.892 211.273C242.886 211.221 242.877 211.169 242.862 211.119Z" fill="#263238"/>
<path d="M247.823 232.064C247.823 232.064 244.271 223.563 248.735 217.992C248.769 217.947 248.815 217.912 248.868 217.892C248.921 217.872 248.979 217.867 249.034 217.879C249.09 217.89 249.141 217.916 249.183 217.955C249.224 217.994 249.253 218.044 249.268 218.099C249.664 219.508 250.416 223.877 247.823 232.064Z" fill="#4B5CDF"/>
<path d="M248.468 220.946C248.316 221.471 248.223 222.011 248.19 222.556C248.066 223.551 247.924 224.924 247.811 226.47C247.699 228.015 247.651 229.388 247.651 230.4C247.615 230.945 247.649 231.492 247.752 232.028C247.847 231.493 247.894 230.95 247.894 230.406C247.971 229.276 248.06 227.956 248.154 226.493C248.249 225.031 248.35 223.705 248.433 222.574C248.498 222.034 248.51 221.489 248.468 220.946Z" fill="#263238"/>
<g opacity="0.3">
<path d="M247.823 232.064C247.823 232.064 244.271 223.563 248.735 217.992C248.769 217.947 248.815 217.912 248.868 217.892C248.921 217.872 248.979 217.867 249.034 217.879C249.09 217.89 249.141 217.916 249.183 217.955C249.224 217.994 249.253 218.044 249.268 218.099C249.664 219.508 250.416 223.877 247.823 232.064Z" fill="black"/>
</g>
<path d="M258.763 252.535C258.763 252.535 255.934 243.774 260.812 238.582C260.85 238.542 260.899 238.514 260.953 238.499C261.006 238.485 261.063 238.485 261.116 238.501C261.17 238.516 261.218 238.545 261.256 238.586C261.294 238.626 261.321 238.676 261.333 238.73C261.611 240.18 261.984 244.597 258.763 252.535Z" fill="#4B5CDF"/>
<path d="M260.302 241.536C260.108 242.046 259.971 242.576 259.894 243.117C259.687 244.099 259.438 245.485 259.201 246.982C258.965 248.48 258.805 249.883 258.722 250.89C258.655 251.432 258.655 251.981 258.722 252.524C258.858 251.997 258.949 251.461 258.994 250.919C259.16 249.8 259.355 248.486 259.586 247.036C259.817 245.585 260.006 244.277 260.178 243.158C260.275 242.623 260.317 242.08 260.302 241.536Z" fill="#263238"/>
<g opacity="0.3">
<path d="M258.763 252.535C258.763 252.535 255.934 243.774 260.812 238.582C260.85 238.542 260.899 238.514 260.953 238.499C261.006 238.485 261.063 238.485 261.116 238.501C261.17 238.516 261.218 238.545 261.256 238.586C261.294 238.626 261.321 238.676 261.333 238.73C261.611 240.18 261.984 244.597 258.763 252.535Z" fill="black"/>
</g>
<path d="M243.312 221.663C243.312 221.663 235.77 216.382 236.534 209.302C236.538 209.245 236.558 209.191 236.591 209.146C236.625 209.1 236.67 209.065 236.722 209.044C236.775 209.023 236.832 209.017 236.888 209.027C236.943 209.037 236.995 209.063 237.037 209.1C238.15 210.089 241.11 213.386 243.312 221.663Z" fill="#4B5CDF"/>
<g opacity="0.3">
<path d="M243.312 221.663C243.312 221.663 235.77 216.382 236.534 209.302C236.538 209.245 236.558 209.191 236.591 209.146C236.625 209.1 236.67 209.065 236.722 209.044C236.775 209.023 236.832 209.017 236.888 209.027C236.943 209.037 236.995 209.063 237.037 209.1C238.15 210.089 241.11 213.386 243.312 221.663Z" fill="black"/>
</g>
<path d="M237.913 211.936C238.066 212.459 238.276 212.963 238.54 213.44C238.967 214.351 239.594 215.595 240.316 216.944C241.039 218.294 241.749 219.502 242.288 220.348C242.554 220.826 242.876 221.271 243.247 221.674C243.044 221.168 242.795 220.683 242.501 220.224C241.956 219.235 241.317 218.069 240.618 216.784L238.748 213.333C238.517 212.84 238.237 212.372 237.913 211.936Z" fill="#263238"/>
<path d="M255.744 243.851C255.744 243.851 246.651 242.43 244.218 235.74C244.197 235.688 244.191 235.631 244.201 235.576C244.211 235.52 244.236 235.469 244.273 235.427C244.311 235.385 244.359 235.355 244.413 235.339C244.467 235.323 244.525 235.323 244.579 235.338C245.976 235.74 250.084 237.392 255.744 243.851Z" fill="#4B5CDF"/>
<g opacity="0.3">
<path d="M255.744 243.851C255.744 243.851 246.651 242.43 244.218 235.74C244.197 235.688 244.191 235.631 244.201 235.576C244.211 235.52 244.236 235.469 244.273 235.427C244.311 235.385 244.359 235.355 244.413 235.339C244.467 235.323 244.525 235.323 244.579 235.338C245.976 235.74 250.084 237.392 255.744 243.851Z" fill="black"/>
</g>
<path d="M246.58 237.51C246.946 237.915 247.357 238.277 247.805 238.588C248.593 239.215 249.7 240.056 250.949 240.956C252.198 241.856 253.364 242.619 254.223 243.14C254.671 243.454 255.156 243.712 255.667 243.91C255.261 243.545 254.821 243.22 254.353 242.939L251.15 240.678L247.953 238.398C247.526 238.058 247.066 237.761 246.58 237.51Z" fill="#263238"/>
<path d="M266.483 260.587L263.872 277.695L253.459 277.678L249.948 260.587H266.483Z" fill="#455A64"/>
<path d="M256.975 266.08C257.259 265.653 257.424 265.159 257.455 264.648C257.486 264.362 257.436 264.073 257.312 263.813C257.187 263.554 256.993 263.334 256.75 263.179C256.474 263.04 256.165 262.98 255.857 263.005C255.549 263.03 255.254 263.14 255.004 263.322C254.487 263.701 254.132 264.261 254.009 264.89C253.871 265.526 253.827 266.178 253.879 266.826C253.912 267.502 254.054 268.167 254.3 268.798C254.548 269.459 254.955 270.051 255.484 270.52C256.041 271.015 256.747 271.31 257.49 271.361C258.229 271.377 258.955 271.17 259.574 270.769C260.168 270.389 260.694 269.913 261.131 269.36C261.578 268.829 261.852 268.174 261.919 267.483C261.945 267.144 261.891 266.803 261.763 266.487C261.634 266.172 261.434 265.891 261.179 265.666C260.914 265.471 260.599 265.357 260.272 265.337C259.944 265.317 259.618 265.392 259.332 265.553C259.059 265.69 258.822 265.887 258.637 266.129C258.453 266.371 258.326 266.652 258.266 266.951C258.188 267.482 258.273 268.024 258.508 268.507C258.744 268.99 259.119 269.39 259.586 269.656C260.354 270.075 261.247 270.205 262.102 270.023C262.73 269.89 263.33 269.652 263.878 269.319C264.227 269.114 264.563 268.889 264.885 268.644C265.002 268.565 265.11 268.471 265.204 268.365C265.082 268.436 264.963 268.513 264.849 268.596C264.618 268.744 264.257 268.975 263.825 269.224C263.272 269.532 262.672 269.748 262.049 269.863C261.239 270.015 260.402 269.881 259.681 269.484C259.259 269.234 258.922 268.864 258.711 268.421C258.5 267.978 258.426 267.483 258.497 266.998C258.553 266.736 258.667 266.491 258.831 266.28C258.995 266.069 259.205 265.897 259.444 265.778C259.687 265.642 259.964 265.578 260.242 265.595C260.521 265.612 260.788 265.708 261.013 265.873C261.234 266.072 261.406 266.319 261.516 266.595C261.626 266.871 261.67 267.169 261.646 267.466C261.579 268.101 261.321 268.702 260.906 269.188C260.489 269.712 259.989 270.164 259.426 270.526C258.855 270.901 258.185 271.097 257.502 271.089C256.823 271.038 256.179 270.768 255.667 270.319C255.166 269.881 254.779 269.329 254.536 268.709C254.3 268.105 254.162 267.468 254.128 266.82C254.075 266.2 254.113 265.576 254.24 264.967C254.343 264.397 254.659 263.888 255.122 263.541C255.333 263.384 255.583 263.287 255.845 263.261C256.107 263.235 256.371 263.28 256.608 263.393C256.813 263.528 256.977 263.718 257.081 263.94C257.186 264.162 257.227 264.409 257.2 264.654C257.176 265.126 257.027 265.584 256.768 265.98C256.295 266.662 255.614 267.173 254.826 267.436C254.234 267.644 253.604 267.719 252.979 267.655C252.444 267.591 251.924 267.437 251.44 267.199C251.44 267.199 251.44 267.199 251.523 267.264C251.613 267.32 251.706 267.372 251.801 267.418C252.173 267.601 252.574 267.719 252.985 267.767C253.63 267.854 254.287 267.792 254.903 267.584C255.734 267.324 256.457 266.8 256.964 266.092" fill="#263238"/>
</svg>
