<svg width="47" height="46" viewBox="0 0 47 46" fill="none" xmlns="http://www.w3.org/2000/svg">
<rect x="0.5" width="46" height="46" rx="23" fill="#F5F5F5"/>
<path d="M35.5 23.2659C35.5 22.282 35.4183 21.5641 35.2415 20.8196H23.7449V25.2601H30.4931C30.3571 26.3637 29.6224 28.0256 27.9897 29.1423L27.9669 29.291L31.6019 32.0428L31.8537 32.0674C34.1666 29.98 35.5 26.9088 35.5 23.2659Z" fill="#4285F4"/>
<path d="M23.745 34.9656C27.051 34.9656 29.8265 33.9019 31.8538 32.0673L27.9898 29.1422C26.9558 29.8469 25.568 30.3388 23.745 30.3388C20.5069 30.3388 17.7586 28.2515 16.7789 25.3665L16.6353 25.3784L12.8556 28.2369L12.8062 28.3711C14.8197 32.2799 18.9558 34.9656 23.745 34.9656Z" fill="#34A853"/>
<path d="M16.7789 25.3666C16.5204 24.6221 16.3708 23.8243 16.3708 23.0001C16.3708 22.1757 16.5204 21.378 16.7653 20.6335L16.7584 20.475L12.9313 17.5706L12.8061 17.6288C11.9762 19.2508 11.5 21.0723 11.5 23.0001C11.5 24.9279 11.9762 26.7493 12.8061 28.3713L16.7789 25.3666Z" fill="#FBBC05"/>
<path d="M23.745 15.6609C26.0442 15.6609 27.5952 16.6314 28.4796 17.4425L31.9354 14.1453C29.813 12.2175 27.051 11.0342 23.745 11.0342C18.9558 11.0342 14.8197 13.7198 12.8062 17.6286L16.7653 20.6333C17.7586 17.7483 20.5069 15.6609 23.745 15.6609Z" fill="#EB4335"/>
</svg>
