<svg width="371" height="371" viewBox="0 0 371 371" fill="none" xmlns="http://www.w3.org/2000/svg">
<path d="M333.826 295.68H309.251V295.865H333.826V295.68Z" fill="#EBEBEB"/>
<path d="M245.765 297.698H239.317V297.883H245.765V297.698Z" fill="#EBEBEB"/>
<path d="M308.509 288.794H294.27V288.979H308.509V288.794Z" fill="#EBEBEB"/>
<path d="M70.9723 290.04H38.9253V290.226H70.9723V290.04Z" fill="#EBEBEB"/>
<path d="M82.2804 290.04H77.5835V290.226H82.2804V290.04Z" fill="#EBEBEB"/>
<path d="M167.061 293.172H97.5507V293.357H167.061V293.172Z" fill="#EBEBEB"/>
<path d="M175.854 250.648H32.5886C31.465 250.648 30.3873 250.201 29.5927 249.407C28.7982 248.612 28.3518 247.534 28.3518 246.411V45.0097C28.3616 43.8925 28.8123 42.8243 29.6058 42.0378C30.3993 41.2512 31.4713 40.81 32.5886 40.81H175.854C176.978 40.81 178.055 41.2564 178.85 42.0509C179.644 42.8455 180.091 43.9231 180.091 45.0468V246.411C180.091 247.534 179.644 248.612 178.85 249.407C178.055 250.201 176.978 250.648 175.854 250.648ZM32.5886 40.9584C31.5148 40.9604 30.4854 41.3878 29.7261 42.1472C28.9667 42.9065 28.5393 43.9358 28.5373 45.0097V246.411C28.5393 247.485 28.9667 248.514 29.7261 249.273C30.4854 250.033 31.5148 250.46 32.5886 250.462H175.854C176.928 250.46 177.957 250.033 178.717 249.273C179.476 248.514 179.903 247.485 179.905 246.411V45.0097C179.903 43.9358 179.476 42.9065 178.717 42.1472C177.957 41.3878 176.928 40.9604 175.854 40.9584H32.5886Z" fill="#EBEBEB"/>
<path d="M336.356 250.648H193.076C191.953 250.646 190.876 250.199 190.082 249.404C189.288 248.61 188.841 247.534 188.839 246.411V45.0097C188.851 43.8931 189.302 42.8261 190.095 42.0399C190.888 41.2538 191.959 40.8119 193.076 40.81H336.356C337.471 40.8139 338.539 41.2569 339.329 42.043C340.12 42.8291 340.568 43.895 340.578 45.0097V246.411C340.578 247.532 340.134 248.607 339.342 249.401C338.551 250.196 337.477 250.644 336.356 250.648ZM193.076 40.9584C192.002 40.9604 190.973 41.3878 190.213 42.1472C189.454 42.9065 189.026 43.9358 189.024 45.0097V246.411C189.026 247.485 189.454 248.514 190.213 249.273C190.973 250.033 192.002 250.46 193.076 250.462H336.356C337.43 250.46 338.459 250.033 339.219 249.273C339.978 248.514 340.405 247.485 340.407 246.411V45.0097C340.405 43.9358 339.978 42.9065 339.219 42.1472C338.459 41.3878 337.43 40.9604 336.356 40.9584H193.076Z" fill="#EBEBEB"/>
<path d="M371 283.741H0V283.926H371V283.741Z" fill="#EBEBEB"/>
<path d="M189.358 208.376C188.504 208.379 187.668 208.128 186.956 207.656C186.244 207.183 185.688 206.51 185.359 205.722C185.03 204.934 184.941 204.065 185.106 203.227C185.27 202.388 185.68 201.617 186.282 201.012C186.885 200.406 187.653 199.993 188.491 199.824C189.329 199.655 190.198 199.739 190.988 200.064C191.778 200.389 192.454 200.942 192.93 201.651C193.406 202.361 193.661 203.196 193.662 204.05C193.662 205.193 193.209 206.29 192.403 207.101C191.596 207.912 190.502 208.37 189.358 208.376ZM189.358 201.965C188.944 201.962 188.537 202.082 188.191 202.311C187.845 202.539 187.574 202.866 187.414 203.248C187.254 203.631 187.21 204.052 187.29 204.459C187.37 204.866 187.569 205.241 187.861 205.534C188.154 205.828 188.528 206.028 188.934 206.109C189.341 206.191 189.763 206.149 190.146 205.99C190.529 205.831 190.856 205.561 191.086 205.216C191.316 204.871 191.437 204.465 191.436 204.05C191.432 203.5 191.212 202.973 190.824 202.583C190.435 202.193 189.909 201.971 189.358 201.965Z" fill="#263238"/>
<path d="M192.351 205.6L190.776 207.173L195.888 212.292L197.463 210.719L192.351 205.6Z" fill="#263238"/>
<path d="M330.654 80.7999C332.622 68.6729 324.387 57.2463 312.26 55.2779C300.133 53.3094 288.707 61.5444 286.738 73.6714C284.77 85.7983 293.005 97.2249 305.132 99.1934C317.259 101.162 328.685 92.9268 330.654 80.7999Z" fill="#E0E0E0"/>
<path d="M308.746 99.9697C302.785 99.862 297.104 97.4182 292.926 93.1642C288.748 88.9102 286.407 83.1861 286.407 77.2236C286.407 71.2612 288.748 65.5371 292.926 61.2831C297.104 57.0291 302.785 54.5853 308.746 54.4776V55.4793C303.049 55.5846 297.62 57.9218 293.628 61.9882C289.636 66.0545 287.4 71.5253 287.4 77.2236C287.4 82.922 289.636 88.3927 293.628 92.4591C297.62 96.5255 303.049 98.8627 308.746 98.968V99.9697Z" fill="white"/>
<path d="M308.746 99.9697V98.968C311.636 99.0213 314.506 98.4984 317.191 97.4296C319.876 96.3608 322.321 94.7676 324.383 92.7432C326.446 90.7188 328.084 88.3036 329.202 85.639C330.32 82.9743 330.896 80.1135 330.896 77.2237C330.896 74.3339 330.32 71.473 329.202 68.8084C328.084 66.1437 326.446 63.7285 324.383 61.7041C322.321 59.6797 319.876 58.0865 317.191 57.0177C314.506 55.949 311.636 55.426 308.746 55.4793V54.4776C311.768 54.4231 314.77 54.9711 317.578 56.0897C320.385 57.2083 322.941 58.875 325.098 60.9926C327.254 63.1101 328.966 65.6361 330.136 68.4229C331.305 71.2097 331.907 74.2015 331.907 77.2237C331.907 80.2458 331.305 83.2376 330.136 86.0244C328.966 88.8112 327.254 91.3372 325.098 93.4547C322.941 95.5723 320.385 97.2391 317.578 98.3576C314.77 99.4762 311.768 100.024 308.746 99.9697Z" fill="white"/>
<path d="M320.373 77.2274H319.372C319.372 69.8593 315.662 59.9907 308.479 55.4051L309.021 54.5593C316.47 59.36 320.373 69.5848 320.373 77.2274Z" fill="white"/>
<path d="M309.021 99.2202L308.479 98.3743C315.632 93.7888 319.372 83.9202 319.372 76.5521H320.373C320.373 84.1947 316.47 94.4343 309.021 99.2202Z" fill="white"/>
<path d="M298.128 77.2274H297.126C297.126 69.5773 301.022 59.3377 308.479 54.5593L309.021 55.3977C301.868 59.9907 298.128 69.8519 298.128 77.2274Z" fill="white"/>
<path d="M308.479 99.2128C301.022 94.4269 297.126 84.1873 297.126 76.5447H298.128C298.128 83.9202 301.838 93.7814 309.021 98.3669L308.479 99.2128Z" fill="white"/>
<path d="M309.251 54.9748H308.249V99.4651H309.251V54.9748Z" fill="white"/>
<path d="M327.586 64.873H289.922V65.8747H327.586V64.873Z" fill="white"/>
<path d="M330.991 77.1012H286.516V78.1029H330.991V77.1012Z" fill="white"/>
<path d="M327.081 89.322H290.419V90.3237H327.081V89.322Z" fill="white"/>
<path d="M70.9278 69.006C70.9358 67.4976 70.7157 65.9966 70.2748 64.554L74.1555 61.1482L71.7143 56.9188L66.8245 58.618C64.7708 56.4102 62.1086 54.861 59.1745 54.166L58.1579 49.113H53.283L52.2739 54.166C49.3376 54.8609 46.673 56.41 44.6165 58.618L39.7267 56.9633L37.2929 61.1927L41.1661 64.5985C40.2956 67.4799 40.2956 70.5543 41.1661 73.4357L37.2929 76.8341L39.7267 81.0635L44.6165 79.394C46.673 81.6019 49.3376 83.1511 52.2739 83.846L53.283 88.9064H58.1579L59.1745 83.846C62.1086 83.151 64.7708 81.6017 66.8245 79.394L71.7143 81.0487L74.1555 76.8193L70.2748 73.458C70.7145 72.0151 70.9346 70.5143 70.9278 69.006ZM55.7242 77.2274C54.1595 77.2288 52.6295 76.7662 51.3278 75.8979C50.026 75.0297 49.0111 73.7949 48.4113 72.3497C47.8115 70.9045 47.6538 69.3139 47.9581 67.7791C48.2625 66.2443 49.0152 64.8342 50.1211 63.7272C51.227 62.6203 52.6364 61.8662 54.1709 61.5604C55.7055 61.2546 57.2962 61.4108 58.742 62.0093C60.1877 62.6077 61.4235 63.6216 62.2929 64.9225C63.1624 66.2234 63.6265 67.7529 63.6265 69.3176C63.6275 70.356 63.4238 71.3844 63.0271 72.344C62.6304 73.3036 62.0485 74.1756 61.3146 74.9102C60.5807 75.6448 59.7092 76.2275 58.75 76.6251C57.7907 77.0227 56.7626 77.2274 55.7242 77.2274Z" fill="#E0E0E0"/>
<path d="M91.8522 90.0343C91.851 88.8956 91.6835 87.7633 91.355 86.673L94.323 84.076L92.468 80.8632L88.758 82.1246C87.1934 80.449 85.166 79.2764 82.9333 78.7559L82.1913 74.9049H78.4813L77.7393 78.7559C75.5045 79.2763 73.4747 80.4488 71.9072 82.1246L68.1972 80.8632L66.3348 84.076L69.3028 86.673C68.6398 88.8674 68.6398 91.2086 69.3028 93.403L66.3348 95.9925L68.1972 99.2128L71.9072 97.9514C73.4747 99.6272 75.5045 100.8 77.7393 101.32L78.4813 105.171H82.1913L82.9333 101.32C85.166 100.8 87.1934 99.627 88.758 97.9514L92.468 99.2128L94.323 95.9925L91.355 93.403C91.6835 92.3102 91.851 91.1754 91.8522 90.0343ZM80.2696 96.2894C79.0773 96.2908 77.9114 95.9385 76.9194 95.277C75.9275 94.6156 75.1541 93.6747 74.6972 92.5734C74.2402 91.4722 74.1203 90.2601 74.3525 89.0907C74.5848 87.9213 75.1587 86.847 76.0018 86.004C76.8449 85.1609 77.9191 84.5869 79.0885 84.3547C80.258 84.1224 81.47 84.2424 82.5713 84.6993C83.6725 85.1563 84.6134 85.9297 85.2749 86.9216C85.9363 87.9136 86.2887 89.0795 86.2872 90.2717C86.2872 91.8677 85.6532 93.3983 84.5247 94.5268C83.3961 95.6554 81.8655 96.2894 80.2696 96.2894Z" fill="#E0E0E0"/>
<path d="M147.369 70.9055L149.335 66.9061L151.309 70.8981L155.716 71.5362L152.526 74.6452L153.282 79.0304L149.342 76.9602L145.41 79.0378L146.159 74.6526L142.969 71.5436L147.369 70.9055Z" fill="#EBEBEB"/>
<path d="M165.303 70.9055L167.269 66.9061L169.243 70.8981L173.643 71.5362L170.46 74.6452L171.216 79.0304L167.276 76.9602L163.336 79.0378L164.086 74.6526L160.895 71.5436L165.303 70.9055Z" fill="#EBEBEB"/>
<path d="M183.229 70.9055L185.196 66.9061L187.169 70.8981L191.577 71.5362L188.394 74.6452L189.151 79.0304L185.211 76.9602L181.271 79.0378L182.02 74.6526L178.829 71.5436L183.229 70.9055Z" fill="#EBEBEB"/>
<path d="M201.164 70.9055L203.13 66.9061L205.104 70.8981L209.511 71.5362L206.321 74.6452L207.077 79.0304L203.137 76.9602L199.205 79.0378L199.954 74.6526L196.764 71.5436L201.164 70.9055Z" fill="#EBEBEB"/>
<path d="M219.098 70.9055L221.064 66.9061L223.038 70.8981L227.438 71.5362L224.255 74.6452L225.012 79.0304L221.072 76.9602L217.131 79.0378L217.881 74.6526L214.69 71.5436L219.098 70.9055Z" fill="#EBEBEB"/>
<path d="M181.924 314.393C261.379 314.393 325.79 310.632 325.79 305.993C325.79 301.354 261.379 297.594 181.924 297.594C102.468 297.594 38.0572 301.354 38.0572 305.993C38.0572 310.632 102.468 314.393 181.924 314.393Z" fill="#F5F5F5"/>
<path d="M133.308 298.603L133.159 300.31C133.144 300.52 133.166 300.731 133.226 300.933C133.253 301.027 133.293 301.117 133.345 301.2C133.399 301.283 133.459 301.362 133.523 301.437C133.588 301.513 133.663 301.581 133.746 301.638C133.997 301.817 134.298 301.913 134.606 301.912H195.747C195.893 301.913 196.038 301.89 196.177 301.846C196.274 301.816 196.369 301.779 196.459 301.734C196.782 301.576 197.043 301.315 197.201 300.992C197.296 300.812 197.354 300.616 197.372 300.414L197.513 298.774C197.536 298.578 197.513 298.38 197.446 298.195C197.418 298.11 197.381 298.027 197.335 297.95C197.22 297.756 197.056 297.595 196.86 297.483C196.776 297.437 196.69 297.397 196.6 297.364C196.464 297.32 196.321 297.297 196.177 297.297H180.952C180.76 297.299 180.568 297.282 180.38 297.245L180.165 297.186C180.084 297.163 180.004 297.133 179.928 297.097C179.853 297.073 179.783 297.038 179.72 296.993C179.613 296.937 179.511 296.873 179.416 296.8C179.3 296.708 179.194 296.606 179.097 296.496C179.045 296.429 178.993 296.37 178.941 296.295L178.837 296.147L178.8 296.088C178.755 296.02 178.718 295.948 178.688 295.872L178.599 295.672C178.603 295.657 178.603 295.642 178.599 295.628C178.604 295.611 178.604 295.593 178.599 295.576C178.578 295.518 178.563 295.458 178.555 295.398C178.547 295.314 178.547 295.229 178.555 295.145C178.555 295.071 178.555 294.99 178.555 294.908C178.555 294.826 178.555 294.752 178.555 294.67V294.574C178.551 294.495 178.551 294.416 178.555 294.337C178.555 294.247 178.592 294.173 178.607 294.092L184.587 271.149L185.737 266.742L186.635 263.291H151.91L150.047 266.742L147.673 271.149L134.168 296.184C134.124 296.273 134.079 296.362 134.027 296.451L133.894 296.755C133.857 296.859 133.812 296.956 133.775 297.067L133.708 297.275C133.526 297.701 133.392 298.147 133.308 298.603Z" fill="#263238"/>
<path opacity="0.2" d="M197.491 298.789L197.35 300.443C197.311 300.844 197.127 301.217 196.831 301.491C196.536 301.765 196.15 301.92 195.747 301.927H134.621C134.416 301.928 134.213 301.886 134.024 301.804C133.836 301.722 133.667 301.602 133.527 301.451C133.388 301.301 133.281 301.123 133.214 300.929C133.147 300.735 133.121 300.529 133.137 300.324L133.285 298.618C133.324 298.162 133.414 297.711 133.553 297.275C133.678 296.893 133.837 296.523 134.027 296.169L151.776 263.276H186.502L178.473 294.077C178.42 294.253 178.388 294.435 178.377 294.619C178.326 295.227 178.499 295.833 178.864 296.322C179.229 296.811 179.76 297.15 180.358 297.275C180.545 297.318 180.737 297.338 180.929 297.334H196.133C196.321 297.329 196.508 297.364 196.681 297.437C196.855 297.509 197.011 297.618 197.139 297.755C197.268 297.893 197.365 298.056 197.426 298.234C197.487 298.412 197.509 298.601 197.491 298.789Z" fill="white"/>
<path d="M132.076 296.154L149.817 263.254H151.784L134.035 296.154C133.623 296.912 133.371 297.745 133.293 298.603L133.144 300.31C133.122 300.515 133.144 300.723 133.209 300.919C133.274 301.116 133.381 301.295 133.521 301.447C133.662 301.598 133.834 301.717 134.025 301.797C134.216 301.876 134.422 301.913 134.628 301.905H132.662C132.456 301.913 132.25 301.876 132.059 301.797C131.868 301.717 131.696 301.598 131.555 301.447C131.414 301.295 131.308 301.116 131.243 300.919C131.178 300.723 131.156 300.515 131.178 300.31L131.327 298.603C131.404 297.744 131.659 296.91 132.076 296.154Z" fill="#263238"/>
<path opacity="0.3" d="M151.798 263.254H186.517L184.469 271.119H147.554L151.798 263.254Z" fill="black"/>
<path d="M92.8836 154.247V261.295C92.8826 262.006 93.0218 262.71 93.2932 263.368C93.5646 264.025 93.9629 264.622 94.4652 265.125C94.9676 265.628 95.5643 266.027 96.221 266.299C96.8778 266.572 97.5818 266.712 98.2927 266.712H246.448C247.159 266.712 247.863 266.572 248.52 266.299C249.176 266.027 249.773 265.628 250.275 265.125C250.778 264.622 251.176 264.025 251.447 263.368C251.719 262.71 251.858 262.006 251.857 261.295V154.247C251.858 153.535 251.719 152.831 251.447 152.173C251.175 151.515 250.776 150.918 250.273 150.415C249.77 149.911 249.172 149.513 248.514 149.241C247.857 148.969 247.152 148.829 246.44 148.83H98.3076C97.1161 148.831 95.9581 149.225 95.0131 149.951C94.8803 150.049 94.7539 150.156 94.6347 150.27C94.2696 150.601 93.9547 150.983 93.6997 151.405C93.5206 151.683 93.3714 151.979 93.2546 152.288C93.0133 152.913 92.8876 153.577 92.8836 154.247Z" fill="#263238"/>
<path d="M251.857 249.72V261.295C251.857 262.732 251.286 264.11 250.271 265.125C249.255 266.141 247.877 266.712 246.44 266.712H98.3076C96.871 266.712 95.4933 266.141 94.4774 265.125C93.4616 264.11 92.891 262.732 92.891 261.295V249.72H251.857Z" fill="#407BFF"/>
<path opacity="0.6" d="M251.857 249.72V261.295C251.857 262.732 251.286 264.11 250.271 265.125C249.255 266.141 247.877 266.712 246.44 266.712H98.3076C96.871 266.712 95.4933 266.141 94.4774 265.125C93.4616 264.11 92.891 262.732 92.891 261.295V249.72H251.857Z" fill="white"/>
<path d="M98.404 246.448H246.344C247.131 246.448 247.886 246.135 248.443 245.579C248.999 245.022 249.312 244.267 249.312 243.48V155.078C249.312 154.291 248.999 153.536 248.443 152.979C247.886 152.423 247.131 152.11 246.344 152.11H98.404C97.6169 152.11 96.862 152.423 96.3054 152.979C95.7487 153.536 95.436 154.291 95.436 155.078V243.51C95.4439 244.292 95.76 245.039 96.3158 245.589C96.8715 246.139 97.622 246.448 98.404 246.448Z" fill="#407BFF"/>
<path d="M95.0279 148.83H98.3076C96.871 148.83 95.4933 149.401 94.4775 150.417C93.4616 151.433 92.891 152.81 92.891 154.247V261.295C92.891 262.732 93.4616 264.11 94.4775 265.125C95.4933 266.141 96.871 266.712 98.3076 266.712H95.0279C93.5914 266.712 92.2136 266.141 91.1978 265.125C90.182 264.11 89.6113 262.732 89.6113 261.295V154.247C89.6113 152.81 90.182 151.433 91.1978 150.417C92.2136 149.401 93.5914 148.83 95.0279 148.83Z" fill="#263238"/>
<g opacity="0.2">
<path d="M95.0279 148.83H98.3076C96.871 148.83 95.4933 149.401 94.4775 150.417C93.4616 151.433 92.891 152.81 92.891 154.247V261.295C92.891 262.732 93.4616 264.11 94.4775 265.125C95.4933 266.141 96.871 266.712 98.3076 266.712H95.0279C93.5914 266.712 92.2136 266.141 91.1978 265.125C90.182 264.11 89.6113 262.732 89.6113 261.295V154.247C89.6113 152.81 90.182 151.433 91.1978 150.417C92.2136 149.401 93.5914 148.83 95.0279 148.83Z" fill="white"/>
</g>
<path opacity="0.5" d="M250.188 208.443C246.374 207.701 240.334 210.171 239.206 213.882C239.333 212.749 239.131 211.603 238.624 210.582C238.118 209.561 237.328 208.708 236.349 208.124C234.383 206.988 231.808 206.187 229.998 207.552C230.856 203.906 230.682 200.092 229.494 196.539C228.307 192.986 226.153 189.834 223.275 187.437C217.473 182.74 209.007 182.243 202.306 185.515C203.275 183.654 203.824 181.604 203.916 179.509C204.007 177.414 203.64 175.323 202.838 173.385C202.036 171.447 200.82 169.708 199.274 168.29C197.729 166.872 195.892 165.809 193.892 165.177C184.572 161.931 174.606 160.986 164.843 162.424C159.196 163.255 153.438 165.021 149.335 168.983C145.232 172.945 144.141 180.113 146.901 185.107C143.716 184.078 140.31 183.941 137.053 184.712C133.796 185.482 130.812 187.13 128.425 189.477C126.124 191.881 124.531 194.872 123.82 198.122C123.109 201.373 123.309 204.757 124.396 207.901C123.521 207.381 122.529 207.089 121.512 207.05C120.495 207.011 119.484 207.227 118.572 207.678C117.673 208.134 116.905 208.811 116.34 209.646C115.776 210.481 115.433 211.446 115.344 212.449C114.157 210.884 112.612 209.625 110.838 208.781C109.064 207.937 107.113 207.531 105.15 207.598C103.186 207.665 101.268 208.203 99.5554 209.166C97.843 210.129 96.3869 211.489 95.3099 213.132V246.448H249.312L250.188 208.443Z" fill="white"/>
<path d="M215.87 193.818H136.535C132.499 193.818 129.227 197.09 129.227 201.127C129.227 205.163 132.499 208.435 136.535 208.435H215.87C219.907 208.435 223.179 205.163 223.179 201.127C223.179 197.09 219.907 193.818 215.87 193.818Z" fill="white"/>
<path d="M136.083 203.924C135.229 203.924 134.394 203.671 133.684 203.196C132.973 202.722 132.42 202.047 132.093 201.258C131.766 200.469 131.681 199.601 131.847 198.763C132.014 197.925 132.425 197.156 133.029 196.552C133.633 195.948 134.403 195.537 135.24 195.37C136.078 195.203 136.946 195.289 137.735 195.616C138.524 195.943 139.199 196.496 139.673 197.206C140.148 197.916 140.401 198.751 140.401 199.605C140.399 200.75 139.944 201.847 139.134 202.657C138.325 203.466 137.227 203.922 136.083 203.924ZM136.083 197.513C135.669 197.513 135.264 197.636 134.92 197.866C134.576 198.096 134.308 198.422 134.15 198.805C133.991 199.187 133.95 199.608 134.031 200.014C134.111 200.42 134.311 200.792 134.603 201.085C134.896 201.378 135.269 201.577 135.675 201.658C136.08 201.738 136.501 201.697 136.884 201.539C137.266 201.38 137.593 201.112 137.823 200.768C138.053 200.424 138.175 200.019 138.175 199.605C138.173 199.051 137.952 198.52 137.56 198.128C137.168 197.736 136.637 197.515 136.083 197.513Z" fill="#263238"/>
<path d="M139.072 201.14L137.497 202.713L142.609 207.832L144.184 206.259L139.072 201.14Z" fill="#263238"/>
<g opacity="0.1">
<path d="M199.205 152.103H204.888L216.694 246.448H211.003L199.205 152.103Z" fill="white"/>
<path d="M222.444 246.448L210.646 152.103H232.023L243.821 246.448H222.444Z" fill="white"/>
</g>
<path opacity="0.2" d="M143.852 298.803L143.718 300.369C143.696 300.565 143.716 300.764 143.776 300.952C143.837 301.139 143.937 301.312 144.07 301.458C144.203 301.604 144.365 301.72 144.546 301.799C144.727 301.877 144.923 301.916 145.12 301.912H195.747C196.15 301.905 196.536 301.75 196.831 301.476C197.127 301.202 197.312 300.829 197.35 300.428L197.491 298.789C197.514 298.6 197.497 298.409 197.44 298.227C197.382 298.046 197.287 297.88 197.159 297.739C197.032 297.598 196.876 297.486 196.701 297.411C196.526 297.336 196.338 297.3 196.148 297.305H180.944C180.754 297.305 180.565 297.283 180.38 297.238H145.506C145.087 297.252 144.688 297.419 144.383 297.708C144.078 297.996 143.889 298.386 143.852 298.803Z" fill="white"/>
<path opacity="0.2" d="M133.56 297.26H180.38C179.782 297.138 179.249 296.8 178.885 296.31C178.521 295.819 178.35 295.212 178.406 294.604H135.044L133.56 297.26Z" fill="black"/>
<path d="M157.504 185.047L158.528 182.769C159.796 183.646 161.298 184.122 162.839 184.135C164.628 184.135 165.355 183.534 165.355 182.732C165.355 180.291 157.764 181.99 157.764 177.123C157.764 174.897 159.552 173.057 163.262 173.057C164.851 173.024 166.418 173.424 167.796 174.214L166.861 176.507C165.763 175.857 164.515 175.504 163.24 175.483C161.452 175.483 160.762 176.151 160.762 176.967C160.762 179.371 168.352 177.709 168.352 182.502C168.352 184.684 166.542 186.554 162.81 186.554C160.929 186.601 159.079 186.075 157.504 185.047Z" fill="#263238"/>
<path d="M180.536 183.912V186.331H170.43V173.279H180.306V175.706H173.443V178.54H179.505V180.892H173.443V183.912H180.536Z" fill="#263238"/>
<path d="M182.087 179.809C182.087 175.928 185.107 173.057 189.225 173.057C193.343 173.057 196.37 175.913 196.37 179.809C196.37 183.704 193.328 186.561 189.225 186.561C185.122 186.561 182.087 183.69 182.087 179.809ZM193.313 179.809C193.29 179.006 193.031 178.228 192.568 177.572C192.106 176.916 191.46 176.41 190.712 176.119C189.964 175.827 189.147 175.762 188.362 175.932C187.578 176.101 186.86 176.498 186.3 177.073C185.739 177.648 185.36 178.375 185.21 179.164C185.06 179.952 185.146 180.768 185.456 181.508C185.766 182.249 186.288 182.881 186.955 183.327C187.623 183.773 188.407 184.013 189.21 184.016C189.762 184.033 190.312 183.936 190.825 183.729C191.338 183.522 191.802 183.211 192.188 182.815C192.573 182.42 192.873 181.948 193.067 181.431C193.26 180.913 193.344 180.361 193.313 179.809Z" fill="#263238"/>
<path opacity="0.8" d="M172.307 218.029H140.995C139.417 218.029 138.138 219.308 138.138 220.886V227.505C138.138 229.082 139.417 230.361 140.995 230.361H172.307C173.885 230.361 175.164 229.082 175.164 227.505V220.886C175.164 219.308 173.885 218.029 172.307 218.029Z" fill="white"/>
<path opacity="0.8" d="M217.718 218.029H186.405C184.828 218.029 183.549 219.308 183.549 220.886V227.505C183.549 229.082 184.828 230.361 186.405 230.361H217.718C219.295 230.361 220.574 229.082 220.574 227.505V220.886C220.574 219.308 219.295 218.029 217.718 218.029Z" fill="white"/>
<path d="M155.761 156.31L174.155 123.662C174.22 123.548 174.313 123.453 174.427 123.386C174.54 123.32 174.669 123.286 174.8 123.286C174.932 123.286 175.061 123.32 175.174 123.386C175.287 123.453 175.381 123.548 175.446 123.662L193.84 156.31C193.902 156.422 193.933 156.549 193.931 156.677C193.929 156.806 193.894 156.931 193.829 157.042C193.764 157.153 193.671 157.244 193.56 157.309C193.449 157.373 193.323 157.407 193.195 157.408H156.414C156.285 157.408 156.158 157.375 156.046 157.311C155.933 157.248 155.84 157.156 155.774 157.045C155.708 156.934 155.672 156.808 155.67 156.679C155.667 156.55 155.699 156.423 155.761 156.31Z" fill="#407BFF"/>
<path opacity="0.3" d="M155.761 156.31L174.155 123.662C174.22 123.548 174.313 123.453 174.427 123.386C174.54 123.32 174.669 123.286 174.8 123.286C174.932 123.286 175.061 123.32 175.174 123.386C175.287 123.453 175.381 123.548 175.446 123.662L193.84 156.31C193.902 156.422 193.933 156.549 193.931 156.677C193.929 156.806 193.894 156.931 193.829 157.042C193.764 157.153 193.671 157.244 193.56 157.309C193.449 157.373 193.323 157.407 193.195 157.408H156.414C156.285 157.408 156.158 157.375 156.046 157.311C155.933 157.248 155.84 157.156 155.774 157.045C155.708 156.934 155.672 156.808 155.67 156.679C155.667 156.55 155.699 156.423 155.761 156.31Z" fill="black"/>
<path d="M166.06 162.298L165.162 158.632H161.941L161.051 162.298C162.655 162.962 164.456 162.962 166.06 162.298Z" fill="#263238"/>
<path opacity="0.2" d="M161.942 158.632L161.734 159.485C162.921 159.834 164.183 159.834 165.37 159.485L165.162 158.632H161.942Z" fill="white"/>
<path opacity="0.4" d="M161.511 160.406C161.452 160.643 161.392 160.873 161.34 161.096C162.789 161.551 164.343 161.551 165.792 161.096L165.629 160.406C164.27 160.68 162.87 160.68 161.511 160.406Z" fill="white"/>
<path d="M166.95 158.372C164.774 159.271 162.33 159.271 160.153 158.372V131.141C160.151 129.617 160.45 128.107 161.033 126.699C161.617 125.29 162.472 124.011 163.552 122.935C164.631 124.011 165.487 125.29 166.07 126.699C166.653 128.107 166.952 129.617 166.95 131.141V158.372Z" fill="#407BFF"/>
<path d="M160.153 131.141V156.807C162.354 157.575 164.749 157.575 166.95 156.807V131.141C166.952 129.617 166.653 128.107 166.07 126.699C165.487 125.29 164.631 124.011 163.552 122.935C162.472 124.011 161.617 125.29 161.033 126.699C160.45 128.107 160.151 129.617 160.153 131.141Z" fill="#407BFF"/>
<path opacity="0.4" d="M160.153 131.141V156.807C162.354 157.575 164.749 157.575 166.95 156.807V131.141C166.952 129.617 166.653 128.107 166.07 126.699C165.487 125.29 164.631 124.011 163.552 122.935C162.472 124.011 161.617 125.29 161.033 126.699C160.45 128.107 160.151 129.617 160.153 131.141Z" fill="white"/>
<path d="M160.153 131.141V150.433C162.374 151.068 164.729 151.068 166.95 150.433V131.141C166.952 129.617 166.653 128.107 166.07 126.699C165.487 125.29 164.631 124.011 163.552 122.935C162.472 124.011 161.617 125.29 161.033 126.699C160.45 128.107 160.151 129.617 160.153 131.141Z" fill="#407BFF"/>
<path opacity="0.6" d="M160.153 131.141V150.433C162.374 151.068 164.729 151.068 166.95 150.433V131.141C166.952 129.617 166.653 128.107 166.07 126.699C165.487 125.29 164.631 124.011 163.552 122.935C162.472 124.011 161.617 125.29 161.033 126.699C160.45 128.107 160.151 129.617 160.153 131.141Z" fill="white"/>
<path d="M160.153 131.141V141.232C162.374 141.871 164.729 141.871 166.95 141.232V131.141C166.952 129.617 166.653 128.107 166.07 126.699C165.487 125.29 164.631 124.011 163.552 122.935C162.472 124.011 161.617 125.29 161.033 126.699C160.45 128.107 160.151 129.617 160.153 131.141Z" fill="#407BFF"/>
<path opacity="0.8" d="M160.153 131.141V141.232C162.374 141.871 164.729 141.871 166.95 141.232V131.141C166.952 129.617 166.653 128.107 166.07 126.699C165.487 125.29 164.631 124.011 163.552 122.935C162.472 124.011 161.617 125.29 161.033 126.699C160.45 128.107 160.151 129.617 160.153 131.141Z" fill="white"/>
<path d="M160.153 131.141V132.321C162.374 132.956 164.729 132.956 166.95 132.321V131.141C166.952 129.617 166.653 128.107 166.07 126.699C165.487 125.29 164.631 124.011 163.552 122.935C162.472 124.011 161.617 125.29 161.033 126.699C160.45 128.107 160.151 129.617 160.153 131.141Z" fill="#407BFF"/>
<path opacity="0.4" d="M160.153 131.141V132.321C162.374 132.956 164.729 132.956 166.95 132.321V131.141C166.952 129.617 166.653 128.107 166.07 126.699C165.487 125.29 164.631 124.011 163.552 122.935C162.472 124.011 161.617 125.29 161.033 126.699C160.45 128.107 160.151 129.617 160.153 131.141Z" fill="white"/>
<path d="M187.926 162.298L187.036 158.632H183.816L182.918 162.298C184.521 162.962 186.323 162.962 187.926 162.298Z" fill="#263238"/>
<path opacity="0.2" d="M183.816 158.632L183.608 159.485C184.795 159.834 186.057 159.834 187.244 159.485L187.036 158.632H183.816Z" fill="white"/>
<path opacity="0.4" d="M183.378 160.406C183.326 160.643 183.267 160.873 183.215 161.096C184.664 161.551 186.218 161.551 187.667 161.096L187.496 160.406C186.137 160.68 184.737 160.68 183.378 160.406Z" fill="white"/>
<path d="M188.824 158.372C186.648 159.271 184.204 159.271 182.027 158.372V131.141C182.025 129.617 182.324 128.107 182.908 126.699C183.491 125.29 184.347 124.011 185.426 122.935C186.505 124.011 187.361 125.29 187.944 126.699C188.527 128.107 188.826 129.617 188.824 131.141V158.372Z" fill="#407BFF"/>
<path d="M182.027 131.141V156.807C184.228 157.575 186.624 157.575 188.824 156.807V131.141C188.826 129.617 188.527 128.107 187.944 126.699C187.361 125.29 186.505 124.011 185.426 122.935C184.347 124.011 183.491 125.29 182.908 126.699C182.324 128.107 182.025 129.617 182.027 131.141Z" fill="#407BFF"/>
<path opacity="0.4" d="M182.027 131.141V156.807C184.228 157.575 186.624 157.575 188.824 156.807V131.141C188.826 129.617 188.527 128.107 187.944 126.699C187.361 125.29 186.505 124.011 185.426 122.935C184.347 124.011 183.491 125.29 182.908 126.699C182.324 128.107 182.025 129.617 182.027 131.141Z" fill="white"/>
<path d="M182.027 131.141V150.433C184.249 151.068 186.603 151.068 188.824 150.433V131.141C188.826 129.617 188.527 128.107 187.944 126.699C187.361 125.29 186.505 124.011 185.426 122.935C184.347 124.011 183.491 125.29 182.908 126.699C182.324 128.107 182.025 129.617 182.027 131.141Z" fill="#407BFF"/>
<path opacity="0.6" d="M182.027 131.141V150.433C184.249 151.068 186.603 151.068 188.824 150.433V131.141C188.826 129.617 188.527 128.107 187.944 126.699C187.361 125.29 186.505 124.011 185.426 122.935C184.347 124.011 183.491 125.29 182.908 126.699C182.324 128.107 182.025 129.617 182.027 131.141Z" fill="white"/>
<path d="M182.027 131.141V141.232C184.248 141.871 186.604 141.871 188.824 141.232V131.141C188.826 129.617 188.527 128.107 187.944 126.699C187.361 125.29 186.505 124.011 185.426 122.935C184.347 124.011 183.491 125.29 182.908 126.699C182.324 128.107 182.025 129.617 182.027 131.141Z" fill="#407BFF"/>
<path opacity="0.8" d="M182.027 131.141V141.232C184.248 141.871 186.604 141.871 188.824 141.232V131.141C188.826 129.617 188.527 128.107 187.944 126.699C187.361 125.29 186.505 124.011 185.426 122.935C184.347 124.011 183.491 125.29 182.908 126.699C182.324 128.107 182.025 129.617 182.027 131.141Z" fill="white"/>
<path d="M182.027 131.141V132.321C184.249 132.956 186.603 132.956 188.824 132.321V131.141C188.826 129.617 188.527 128.107 187.944 126.699C187.361 125.29 186.505 124.011 185.426 122.935C184.347 124.011 183.491 125.29 182.908 126.699C182.324 128.107 182.025 129.617 182.027 131.141Z" fill="#407BFF"/>
<path opacity="0.4" d="M182.027 131.141V132.321C184.249 132.956 186.603 132.956 188.824 132.321V131.141C188.826 129.617 188.527 128.107 187.944 126.699C187.361 125.29 186.505 124.011 185.426 122.935C184.347 124.011 183.491 125.29 182.908 126.699C182.324 128.107 182.025 129.617 182.027 131.141Z" fill="white"/>
<path d="M178.533 164.397L177.049 158.461H171.855L170.408 164.397C171.694 164.937 173.075 165.215 174.47 165.215C175.865 165.215 177.246 164.937 178.533 164.397Z" fill="#263238"/>
<path opacity="0.2" d="M171.892 158.484C171.892 158.484 171.677 159.374 171.55 159.864C173.469 160.424 175.508 160.424 177.427 159.864L177.086 158.476L171.892 158.484Z" fill="white"/>
<path opacity="0.4" d="M171.187 161.355L170.92 162.468C173.245 163.188 175.733 163.188 178.058 162.468L177.791 161.355C175.61 161.785 173.367 161.785 171.187 161.355Z" fill="white"/>
<path d="M179.98 158.046C178.24 158.772 176.374 159.145 174.489 159.145C172.604 159.145 170.738 158.772 168.998 158.046V114.105C168.996 111.644 169.479 109.207 170.422 106.935C171.364 104.662 172.746 102.597 174.489 100.86C176.231 102.597 177.613 104.662 178.556 106.935C179.498 109.207 179.982 111.644 179.98 114.105V158.046Z" fill="#407BFF"/>
<path d="M168.998 114.105V155.545C172.555 156.777 176.423 156.777 179.98 155.545V114.105C179.982 111.644 179.498 109.207 178.556 106.935C177.613 104.662 176.231 102.597 174.489 100.86C172.746 102.597 171.364 104.662 170.422 106.935C169.479 109.207 168.996 111.644 168.998 114.105Z" fill="#407BFF"/>
<path opacity="0.4" d="M168.998 114.105V155.545C172.555 156.777 176.423 156.777 179.98 155.545V114.105C179.982 111.644 179.498 109.207 178.556 106.935C177.613 104.662 176.231 102.597 174.489 100.86C172.746 102.597 171.364 104.662 170.422 106.935C169.479 109.207 168.996 111.644 168.998 114.105Z" fill="white"/>
<path d="M168.998 114.105V145.224C172.587 146.247 176.39 146.247 179.98 145.224V114.105C179.982 111.644 179.498 109.207 178.556 106.935C177.613 104.662 176.231 102.597 174.489 100.86C172.746 102.597 171.364 104.662 170.422 106.935C169.479 109.207 168.996 111.644 168.998 114.105Z" fill="#407BFF"/>
<path opacity="0.6" d="M168.998 114.105V145.224C172.587 146.247 176.39 146.247 179.98 145.224V114.105C179.982 111.644 179.498 109.207 178.556 106.935C177.613 104.662 176.231 102.597 174.489 100.86C172.746 102.597 171.364 104.662 170.422 106.935C169.479 109.207 168.996 111.644 168.998 114.105Z" fill="white"/>
<path d="M168.998 114.105V130.429C172.587 131.452 176.39 131.452 179.98 130.429V114.105C179.982 111.644 179.498 109.207 178.556 106.935C177.613 104.662 176.231 102.597 174.489 100.86C172.746 102.597 171.364 104.662 170.422 106.935C169.479 109.207 168.996 111.644 168.998 114.105Z" fill="#407BFF"/>
<path opacity="0.8" d="M168.998 114.105V130.429C172.587 131.452 176.39 131.452 179.98 130.429V114.105C179.982 111.644 179.498 109.207 178.556 106.935C177.613 104.662 176.231 102.597 174.489 100.86C172.746 102.597 171.364 104.662 170.422 106.935C169.479 109.207 168.996 111.644 168.998 114.105Z" fill="white"/>
<path d="M168.998 114.105V116.012C172.587 117.035 176.39 117.035 179.98 116.012V114.105C179.982 111.644 179.498 109.207 178.556 106.935C177.613 104.662 176.231 102.597 174.489 100.86C172.746 102.597 171.364 104.662 170.422 106.935C169.479 109.207 168.996 111.644 168.998 114.105Z" fill="#407BFF"/>
<path opacity="0.1" d="M168.998 114.105V116.012C172.587 117.035 176.39 117.035 179.98 116.012V114.105C179.982 111.644 179.498 109.207 178.556 106.935C177.613 104.662 176.231 102.597 174.489 100.86C172.746 102.597 171.364 104.662 170.422 106.935C169.479 109.207 168.996 111.644 168.998 114.105Z" fill="white"/>
<path d="M177.687 122.897C177.688 123.53 177.502 124.149 177.151 124.676C176.801 125.203 176.302 125.614 175.718 125.857C175.133 126.101 174.49 126.165 173.869 126.042C173.249 125.92 172.678 125.616 172.23 125.169C171.782 124.722 171.477 124.152 171.353 123.532C171.229 122.911 171.292 122.268 171.533 121.683C171.775 121.098 172.185 120.598 172.711 120.246C173.237 119.895 173.856 119.707 174.489 119.707C175.336 119.707 176.148 120.043 176.747 120.641C177.347 121.239 177.685 122.051 177.687 122.897Z" fill="#407BFF"/>
<path d="M174.489 126.095C173.68 126.097 172.902 125.792 172.311 125.24C171.72 124.689 171.36 123.934 171.306 123.127C171.306 123.209 171.306 123.291 171.306 123.365C171.306 124.213 171.642 125.027 172.242 125.626C172.842 126.226 173.655 126.563 174.504 126.563C175.352 126.563 176.165 126.226 176.765 125.626C177.365 125.027 177.702 124.213 177.702 123.365C177.702 123.291 177.702 123.209 177.702 123.127C177.645 123.938 177.281 124.697 176.684 125.249C176.087 125.8 175.302 126.103 174.489 126.095Z" fill="#407BFF"/>
<path opacity="0.3" d="M174.489 126.095C173.68 126.097 172.902 125.792 172.311 125.24C171.72 124.689 171.36 123.934 171.306 123.127C171.306 123.209 171.306 123.291 171.306 123.365C171.306 124.213 171.642 125.027 172.242 125.626C172.842 126.226 173.655 126.563 174.504 126.563C175.352 126.563 176.165 126.226 176.765 125.626C177.365 125.027 177.702 124.213 177.702 123.365C177.702 123.291 177.702 123.209 177.702 123.127C177.645 123.938 177.281 124.697 176.684 125.249C176.087 125.8 175.302 126.103 174.489 126.095Z" fill="black"/>
<path d="M174.489 125.161C175.739 125.161 176.752 124.147 176.752 122.897C176.752 121.648 175.739 120.634 174.489 120.634C173.239 120.634 172.226 121.648 172.226 122.897C172.226 124.147 173.239 125.161 174.489 125.161Z" fill="white"/>
<path d="M174.37 125.146L175.297 120.798C175.061 120.704 174.81 120.654 174.555 120.649L173.628 124.99C173.864 125.086 174.115 125.139 174.37 125.146Z" fill="#407BFF"/>
<path d="M175.216 125.034L176.017 121.243C175.914 121.148 175.802 121.064 175.683 120.991L174.8 125.131C174.941 125.11 175.08 125.078 175.216 125.034Z" fill="#407BFF"/>
<g opacity="0.7">
<path d="M174.37 125.146L175.297 120.798C175.061 120.704 174.81 120.654 174.555 120.649L173.628 124.99C173.864 125.086 174.115 125.139 174.37 125.146Z" fill="white"/>
<path d="M175.216 125.034L176.017 121.243C175.914 121.148 175.802 121.064 175.683 120.991L174.8 125.131C174.941 125.11 175.08 125.078 175.216 125.034Z" fill="white"/>
</g>
<path d="M256.413 208.695L255.56 208.88C255.178 208.957 254.829 209.152 254.563 209.437C254.297 209.721 254.127 210.082 254.076 210.468L254.001 211.069C253.963 211.369 253.998 211.674 254.104 211.957C254.21 212.241 254.384 212.494 254.61 212.694C256.012 213.919 259.322 216.189 263.328 214.727L266.526 212.316L266 207.997L259.322 207.033C258.918 207.048 258.53 207.194 258.216 207.448L256.413 208.695Z" fill="#FAB27B"/>
<path d="M266.549 212.316L275.43 211.871L274.058 207.04L266.022 207.997L266.549 212.316Z" fill="#FAB27B"/>
<path d="M271.839 207.077C271.475 207.759 271.35 208.542 271.483 209.303C271.644 210.536 272.14 211.701 272.915 212.672C271.419 212.694 269.947 213.057 268.611 213.733L268.537 213.77C263.907 210.609 266.578 206.862 266.578 206.862L266.883 206.907C268.525 207.134 270.185 207.191 271.839 207.077Z" fill="#407BFF"/>
<path d="M290.026 211.062C281.775 212.961 271.513 212.776 271.513 212.776C271.175 212.206 271.022 211.545 271.075 210.884C271.149 209.504 271.335 207.775 271.817 207.077C272.299 206.38 275.868 206.009 275.868 206.009C275.868 206.009 282.761 202.811 284.067 201.765C285.373 200.718 285.321 195.829 285.076 192.616C283.763 175.349 286.798 174.066 289.528 173.272C295.316 171.662 297.327 209.378 290.026 211.062Z" fill="#407BFF"/>
<path d="M233.493 214.764H256.554C257.296 214.764 257.645 214.156 257.296 213.407L251.538 200.399C251.358 200.02 251.082 199.695 250.737 199.457C250.392 199.219 249.99 199.075 249.572 199.042H226.503C225.761 199.042 225.412 199.65 225.761 200.399L231.549 213.407C231.726 213.783 231.999 214.106 232.34 214.345C232.681 214.583 233.078 214.728 233.493 214.764Z" fill="#407BFF"/>
<path opacity="0.2" d="M233.493 214.764H256.554C257.296 214.764 257.645 214.156 257.296 213.407L251.538 200.399C251.358 200.02 251.082 199.695 250.737 199.457C250.392 199.219 249.99 199.075 249.572 199.042H226.503C225.761 199.042 225.412 199.65 225.761 200.399L231.549 213.407C231.726 213.783 231.999 214.106 232.34 214.345C232.681 214.583 233.078 214.728 233.493 214.764Z" fill="black"/>
<path d="M225.501 199.042H226.503C225.761 199.042 225.412 199.65 225.761 200.399L231.549 213.407C231.727 213.785 232.002 214.11 232.346 214.348C232.69 214.587 233.09 214.73 233.507 214.764H232.513C232.095 214.731 231.693 214.587 231.348 214.349C231.003 214.111 230.727 213.786 230.547 213.407L224.767 200.399C224.418 199.65 224.752 199.042 225.501 199.042Z" fill="#407BFF"/>
<path opacity="0.4" d="M225.501 199.042H226.503C225.761 199.042 225.412 199.65 225.761 200.399L231.549 213.407C231.727 213.785 232.002 214.11 232.346 214.348C232.69 214.587 233.09 214.73 233.507 214.764H232.513C232.095 214.731 231.693 214.587 231.348 214.349C231.003 214.111 230.727 213.786 230.547 213.407L224.767 200.399C224.418 199.65 224.752 199.042 225.501 199.042Z" fill="black"/>
<path d="M233.923 213.273H254.795L249.134 200.533H228.261L233.923 213.273Z" fill="#263238"/>
<path opacity="0.8" d="M233.923 213.273H254.795L249.134 200.533H228.261L233.923 213.273Z" fill="white"/>
<path d="M302.602 213.748C302.602 213.748 303.174 221.361 303.255 224.032C303.812 241.877 289.246 243.235 278.532 241.269L239.725 230.421C238.189 235.578 220.248 263.974 220.248 263.974L210.817 258.557C210.817 258.557 220.597 235.118 226.911 218.801C230.51 209.489 259.841 215.929 270.645 217.851C273.924 218.734 273.293 213.607 273.293 213.607L302.602 213.748Z" fill="#263238"/>
<path d="M217.844 263.44L214.238 269.442L207.523 266.103L211.017 259.27L217.844 263.44Z" fill="#FAB27B"/>
<path d="M203.946 264.894C203.063 264.486 202.217 263.907 202.099 263.41C202.077 263.266 202.099 263.118 202.161 262.986C202.223 262.855 202.323 262.744 202.447 262.668C202.555 262.595 202.676 262.544 202.803 262.519C202.931 262.493 203.062 262.493 203.189 262.52C204.532 262.735 206.373 265.295 206.447 265.406C206.47 265.437 206.483 265.475 206.483 265.514C206.483 265.552 206.47 265.59 206.447 265.621C206.423 265.651 206.392 265.673 206.357 265.686C206.322 265.699 206.283 265.702 206.246 265.695C205.458 265.497 204.688 265.228 203.946 264.894ZM203.449 262.987C203.341 262.935 203.226 262.9 203.108 262.883C203.033 262.863 202.955 262.86 202.879 262.874C202.804 262.888 202.732 262.919 202.67 262.965C202.447 263.121 202.44 263.239 202.462 263.321C202.581 263.937 204.377 264.768 205.779 265.213C205.153 264.322 204.362 263.559 203.449 262.965V262.987Z" fill="#407BFF"/>
<path d="M206.194 265.636C206.173 265.645 206.149 265.645 206.128 265.636C205.452 264.894 204.443 262.542 204.963 261.807C205.067 261.622 205.319 261.451 205.809 261.622C205.987 261.684 206.15 261.782 206.289 261.91C206.428 262.037 206.54 262.192 206.617 262.364C207.181 263.529 206.491 265.54 206.462 265.629C206.451 265.66 206.431 265.688 206.405 265.709C206.378 265.73 206.347 265.744 206.313 265.747C206.286 265.739 206.261 265.725 206.241 265.705C206.22 265.686 206.204 265.662 206.194 265.636ZM205.771 261.926L205.682 261.874C205.363 261.755 205.289 261.874 205.26 261.911C204.992 262.371 205.564 264.093 206.209 265.02C206.494 264.173 206.512 263.259 206.261 262.401C206.162 262.188 205.988 262.019 205.771 261.926Z" fill="#407BFF"/>
<path d="M207.404 265.005L215.18 268.559C215.318 268.623 215.431 268.73 215.503 268.864C215.574 268.998 215.598 269.152 215.573 269.301L214.089 276.276C214.059 276.424 214 276.565 213.916 276.69C213.831 276.815 213.722 276.922 213.596 277.005C213.47 277.087 213.328 277.144 213.18 277.172C213.032 277.2 212.879 277.198 212.731 277.167C212.652 277.152 212.574 277.127 212.501 277.092C209.719 275.764 207.307 274.466 203.798 272.878C199.68 270.993 200.496 271.965 195.636 269.813C192.668 268.515 193.684 264.953 194.99 265.361C200.986 267.246 202.358 265.799 205.475 264.775C206.124 264.608 206.812 264.69 207.404 265.005Z" fill="#263238"/>
<path opacity="0.2" d="M216.011 266.489L217.844 263.44L211.017 259.27L209.326 262.572L216.011 266.489Z" fill="black"/>
<path d="M221.747 263.41L210.053 256.116C209.521 256.413 209.093 256.866 208.828 257.414C208.562 257.963 208.472 258.579 208.569 259.181L219.818 266.378C219.818 266.378 221.324 266.282 221.747 263.41Z" fill="#407BFF"/>
<path d="M237.744 293.305L236.327 299.961L229.1 299.011L230.154 291.621L237.744 293.305Z" fill="#FAB27B"/>
<path d="M225.427 299.026C224.485 298.93 223.528 298.662 223.253 298.225C223.193 298.106 223.17 297.972 223.185 297.84C223.201 297.708 223.256 297.584 223.342 297.483C223.49 297.287 223.708 297.157 223.95 297.119C225.249 296.896 227.749 298.662 227.861 298.744C227.89 298.765 227.913 298.795 227.925 298.83C227.937 298.864 227.938 298.902 227.928 298.937C227.916 298.973 227.895 299.004 227.866 299.028C227.837 299.052 227.802 299.067 227.764 299.071C226.985 299.122 226.203 299.108 225.427 299.026ZM224.366 297.431C224.25 297.412 224.133 297.412 224.017 297.431C223.942 297.437 223.869 297.459 223.804 297.496C223.739 297.533 223.682 297.584 223.639 297.646C223.483 297.861 223.52 297.972 223.565 298.039C223.869 298.566 225.791 298.781 227.208 298.729C226.352 298.116 225.388 297.67 224.366 297.416V297.431Z" fill="#407BFF"/>
<path d="M227.742 299.026C227.718 299.034 227.692 299.034 227.668 299.026C226.8 298.529 225.138 296.711 225.383 295.873C225.42 295.665 225.598 295.435 226.125 295.435C226.304 295.432 226.482 295.466 226.648 295.535C226.814 295.604 226.964 295.706 227.089 295.835C227.98 296.726 227.98 298.803 227.98 298.885C227.98 298.917 227.971 298.949 227.954 298.977C227.937 299.005 227.912 299.027 227.883 299.041C227.861 299.052 227.835 299.056 227.81 299.054C227.786 299.051 227.762 299.041 227.742 299.026ZM226.184 295.776H226.087C225.761 295.776 225.724 295.902 225.709 295.947C225.613 296.459 226.681 297.861 227.564 298.507C227.559 297.639 227.287 296.795 226.785 296.088C226.625 295.923 226.412 295.82 226.184 295.798V295.776Z" fill="#407BFF"/>
<path d="M228.647 298.032L236.921 298.848C237.073 298.862 237.215 298.928 237.325 299.035C237.434 299.141 237.504 299.282 237.522 299.434L238.36 306.312C238.396 306.605 238.315 306.901 238.134 307.134C237.953 307.367 237.688 307.52 237.396 307.559C237.317 307.567 237.237 307.567 237.158 307.559C234.19 307.21 231.541 306.817 227.831 306.431C223.446 306.001 224.507 306.632 219.343 306.201C216.234 305.934 216.011 302.35 217.347 302.306C223.446 302.142 224.255 300.384 226.785 298.455C227.334 298.092 227.996 297.942 228.647 298.032Z" fill="#263238"/>
<path opacity="0.2" d="M229.597 295.509L237.151 296.095L237.744 293.305L230.154 291.621L229.597 295.509Z" fill="black"/>
<path d="M239.889 290.671L239.673 291.51L228.595 290.634L228.714 289.796L239.889 290.671Z" fill="#263238"/>
<path d="M240.341 294.144L237.611 293.899L229.924 293.209L227.445 292.986C227.093 292.512 226.894 291.943 226.874 291.353C226.854 290.763 227.014 290.181 227.334 289.684L228.714 289.795L239.889 290.671L240.69 290.738C241.617 293.402 240.341 294.144 240.341 294.144Z" fill="#407BFF"/>
<path d="M285.321 247.887C275.297 248.77 252.176 249.141 249.045 248.681L239.889 290.671L228.714 289.796C228.714 289.796 229.894 253.489 234.821 238.479C238.783 226.414 302.165 228.914 302.165 228.914L302.387 232.313C302.825 244.022 296.8 246.871 285.321 247.887Z" fill="#263238"/>
<path opacity="0.1" d="M285.321 247.887C275.297 248.77 252.176 249.141 249.045 248.681L239.889 290.671L228.714 289.796C228.714 289.796 229.894 253.489 234.821 238.479C238.783 226.414 302.165 228.914 302.165 228.914L302.387 232.313C302.825 244.022 296.8 246.871 285.321 247.887Z" fill="black"/>
<path d="M234.643 242.865C234.639 242.798 234.639 242.731 234.643 242.664V242.865Z" fill="#263238"/>
<path d="M235.392 237.44L235.281 238.264C235.302 237.987 235.339 237.712 235.392 237.44Z" fill="#263238"/>
<path d="M270.875 171.84L273.954 176.336L280.877 170.415L276.551 165.102L270.875 171.84Z" fill="#FAB27B"/>
<path opacity="0.2" d="M272.418 173.969C273.754 172.003 273.16 168.953 273.16 168.953L271.943 170.504L270.889 171.84L272.418 173.969Z" fill="black"/>
<path d="M259.032 161.934C259.181 162.372 259.537 162.676 259.826 162.543C260.116 162.409 260.242 161.971 260.086 161.548C259.93 161.125 259.589 160.806 259.292 160.947C258.995 161.088 258.891 161.496 259.032 161.934Z" fill="#263238"/>
<path d="M260.635 162.068L259.656 166.267C260.151 166.371 260.663 166.357 261.153 166.229C261.642 166.1 262.095 165.859 262.475 165.525L260.635 162.068Z" fill="#ED893E"/>
<path d="M258.594 158.87C258.63 158.851 258.669 158.842 258.709 158.842C258.749 158.842 258.789 158.851 258.824 158.87C259.105 158.987 259.409 159.037 259.712 159.014C260.016 158.99 260.309 158.895 260.568 158.736C260.593 158.716 260.622 158.702 260.652 158.694C260.683 158.686 260.715 158.684 260.746 158.689C260.778 158.694 260.808 158.705 260.835 158.722C260.861 158.739 260.884 158.762 260.902 158.788C260.938 158.842 260.951 158.907 260.94 158.971C260.929 159.034 260.894 159.091 260.843 159.129C260.518 159.346 260.144 159.478 259.755 159.513C259.366 159.548 258.975 159.485 258.617 159.33C258.586 159.318 258.559 159.301 258.535 159.278C258.511 159.256 258.493 159.229 258.479 159.2C258.466 159.17 258.459 159.138 258.459 159.106C258.458 159.073 258.464 159.041 258.476 159.011C258.501 158.953 258.542 158.904 258.594 158.87Z" fill="#263238"/>
<path d="M275.482 154.336C277.708 160.072 278.814 162.453 277.285 166.69C274.28 171.699 267.357 174.741 263.41 169.829C259.863 165.377 256.784 156.792 261.28 151.873C262.782 150.187 264.889 149.164 267.142 149.025C269.394 148.886 271.611 149.643 273.308 151.131C274.28 152.009 275.025 153.109 275.482 154.336Z" fill="#FAB27B"/>
<path d="M280.914 156.043C280.601 157.968 280.41 159.911 280.342 161.86C280.289 163.659 279.701 165.401 278.653 166.864C277.605 168.327 276.145 169.445 274.458 170.074C274.458 170.074 266.371 169.977 262.935 159.805C261.985 159.894 261.027 159.749 260.146 159.381C259.265 159.013 258.488 158.434 257.884 157.695C257.28 156.956 256.867 156.079 256.682 155.143C256.496 154.206 256.544 153.239 256.821 152.325C257.481 150.159 260.219 148.808 262.483 148.726C263.224 147.763 264.191 146.996 265.299 146.494C266.407 145.992 267.62 145.77 268.834 145.848C271.282 146.046 273.646 146.83 275.727 148.133C277.606 149.073 279.196 150.504 280.328 152.273C280.932 153.431 281.138 154.756 280.914 156.043Z" fill="#263238"/>
<path d="M264.62 161.014C264.363 161.587 264.223 162.206 264.208 162.834C264.193 163.462 264.302 164.087 264.53 164.672C265.154 166.223 266.816 165.963 267.773 164.672C268.641 163.492 269.346 161.281 268.174 160.138C267.001 158.996 265.265 159.604 264.62 161.014Z" fill="#FAB27B"/>
<path d="M280.936 167.069C278.71 167.165 275.423 168.671 271.03 171.699C270.801 171.898 270.626 172.152 270.522 172.438C270.418 172.724 270.389 173.031 270.437 173.331C270.489 173.925 271.082 174.481 271.646 174.296C271.936 175.038 272.129 175.854 272.388 176.566C273.761 175.867 275.185 175.271 276.647 174.786C278.862 173.903 281.129 173.159 283.437 172.56C282.821 171.617 281.997 170.697 281.752 169.592C282.012 169.476 282.223 169.274 282.349 169.019C282.476 168.764 282.508 168.473 282.442 168.197C282.316 167.89 282.109 167.624 281.844 167.426C281.579 167.227 281.265 167.104 280.936 167.069Z" fill="#407BFF"/>
<path d="M280.936 167.069C278.71 167.165 275.423 168.671 271.03 171.699C270.801 171.898 270.626 172.152 270.522 172.438C270.418 172.724 270.389 173.031 270.437 173.331C270.489 173.925 271.082 174.481 271.646 174.296C271.936 175.038 272.129 175.854 272.388 176.566C273.761 175.867 275.185 175.271 276.647 174.786C278.862 173.903 281.129 173.159 283.437 172.56C282.821 171.617 281.997 170.697 281.752 169.592C282.012 169.476 282.223 169.274 282.349 169.019C282.476 168.764 282.508 168.473 282.442 168.197C282.316 167.89 282.109 167.624 281.844 167.426C281.579 167.227 281.265 167.104 280.936 167.069Z" fill="#407BFF"/>
<path d="M274.421 223.906C269.712 212.636 265.705 201.086 262.423 189.321C258.98 176.47 268.812 176.247 280.676 173.057C290.085 170.526 294.107 172.79 296.793 177.561C299.479 182.332 303.812 222.711 303.812 222.711L274.421 223.906Z" fill="#407BFF"/>
<path d="M274.421 223.906C269.712 212.636 265.705 201.086 262.423 189.321C258.98 176.47 268.812 176.247 280.676 173.057C290.085 170.526 294.107 172.79 296.793 177.561C299.479 182.332 303.812 222.711 303.812 222.711L274.421 223.906Z" fill="#407BFF"/>
<path opacity="0.3" d="M274.421 223.906C269.712 212.636 265.705 201.086 262.423 189.321C258.98 176.47 268.812 176.247 280.676 173.057C290.085 170.526 294.107 172.79 296.793 177.561C299.479 182.332 303.812 222.711 303.812 222.711L274.421 223.906Z" fill="black"/>
<path d="M231.504 205.386H230.673C230.303 205.4 229.946 205.529 229.652 205.755C229.358 205.981 229.142 206.293 229.033 206.647L228.862 207.196C228.774 207.472 228.755 207.765 228.807 208.049C228.859 208.334 228.98 208.602 229.159 208.829C230.28 210.216 233.01 212.902 237.024 212.19L240.445 210.454L240.668 206.298L234.568 204.287C234.185 204.235 233.795 204.308 233.455 204.495L231.504 205.386Z" fill="#FAB27B"/>
<path d="M240.46 210.483L248.889 211.544L248.399 206.766L240.683 206.328L240.46 210.483Z" fill="#FAB27B"/>
<path d="M246.344 206.432C245.873 207.017 245.611 207.743 245.602 208.495C245.551 209.683 245.823 210.862 246.389 211.908C244.976 211.678 243.529 211.775 242.159 212.19H242.085C238.256 208.443 241.395 205.363 241.395 205.363L241.677 205.452C243.194 205.94 244.759 206.268 246.344 206.432Z" fill="#407BFF"/>
<path d="M262.757 213.206C254.677 213.622 245.053 211.722 245.053 211.722C244.828 211.129 244.792 210.482 244.949 209.867C245.253 208.576 245.691 206.981 246.307 206.41C246.923 205.838 250.299 206.083 250.299 206.083C250.299 206.083 257.318 204.213 258.721 203.449C260.123 202.685 260.887 198.114 261.184 195.027C262.824 178.555 265.896 177.843 268.604 177.568C274.28 177.004 269.91 212.843 262.757 213.206Z" fill="#407BFF"/>
<path d="M289.38 307.04L283.778 260.219C283.504 257.931 282.4 255.822 280.676 254.291C278.952 252.761 276.727 251.916 274.421 251.916H255.938C253.697 251.908 251.528 252.702 249.821 254.154C248.115 255.606 246.984 257.621 246.633 259.834L239.095 306.446L237.611 306.209L245.157 259.611C245.562 257.05 246.871 254.718 248.845 253.038C250.82 251.357 253.33 250.438 255.923 250.447H274.436C277.104 250.45 279.678 251.428 281.674 253.198C283.67 254.969 284.949 257.408 285.269 260.056L290.871 306.876L289.38 307.04Z" fill="#263238"/>
<path d="M315.306 307.04L309.703 260.219C309.429 257.931 308.326 255.822 306.602 254.291C304.877 252.761 302.652 251.916 300.347 251.916H281.834C279.593 251.907 277.422 252.7 275.716 254.152C274.009 255.604 272.878 257.62 272.529 259.834L264.983 306.446L263.499 306.209L271.045 259.611C271.449 257.049 272.757 254.717 274.732 253.036C276.707 251.355 279.218 250.437 281.812 250.447H300.325C302.992 250.45 305.567 251.428 307.562 253.198C309.558 254.969 310.837 257.408 311.158 260.056L316.76 306.876L315.306 307.04Z" fill="#263238"/>
<path d="M265.829 293.402H240.341V294.886H265.829V293.402Z" fill="#263238"/>
<path d="M310.898 259.388H284.55V260.872H310.898V259.388Z" fill="#263238"/>
<path d="M289.38 252.236H308.769C312.373 252.236 315.846 250.877 318.493 248.43C321.14 245.984 322.768 242.629 323.052 239.035L325.812 204.206C325.917 202.873 325.746 201.533 325.31 200.27C324.873 199.006 324.181 197.846 323.275 196.863C322.37 195.879 321.271 195.093 320.048 194.554C318.824 194.015 317.503 193.734 316.166 193.729H305.407C299.32 193.729 293.395 195.694 288.514 199.332C283.633 202.969 280.057 208.085 278.317 213.919L270.897 238.783C270.292 240.814 269.047 242.596 267.348 243.862C265.648 245.128 263.585 245.812 261.466 245.81H247.902C246.199 245.812 244.567 246.49 243.363 247.694C242.16 248.899 241.484 250.533 241.484 252.236H289.38Z" fill="#407BFF"/>
<path opacity="0.7" d="M289.38 252.236H308.769C312.373 252.236 315.846 250.877 318.493 248.43C321.14 245.984 322.768 242.629 323.052 239.035L325.812 204.206C325.917 202.873 325.746 201.533 325.31 200.27C324.873 199.006 324.181 197.846 323.275 196.863C322.37 195.879 321.271 195.093 320.048 194.554C318.824 194.015 317.503 193.734 316.166 193.729H305.407C299.32 193.729 293.395 195.694 288.514 199.332C283.633 202.969 280.057 208.085 278.317 213.919L270.897 238.783C270.292 240.814 269.047 242.596 267.348 243.862C265.648 245.128 263.585 245.812 261.466 245.81H247.902C246.199 245.812 244.567 246.49 243.363 247.694C242.16 248.899 241.484 250.533 241.484 252.236H289.38Z" fill="white"/>
<path d="M270.155 132.032V131.95C270.158 131.977 270.158 132.005 270.155 132.032Z" fill="#407BFF"/>
<path d="M235.214 122.638C232.674 124.978 230.815 127.963 229.835 131.275H228.477C228.946 127.547 230.342 123.996 232.535 120.946L235.214 122.638Z" fill="#407BFF"/>
<path opacity="0.6" d="M235.214 122.638C232.674 124.978 230.815 127.963 229.835 131.275H228.477C228.946 127.547 230.342 123.996 232.535 120.946L235.214 122.638Z" fill="white"/>
<path d="M243.079 118.193C240.14 119.029 237.444 120.556 235.214 122.645L232.535 120.946C234.722 117.887 237.6 115.388 240.935 113.652L243.079 118.193Z" fill="#407BFF"/>
<path opacity="0.5" d="M243.079 118.193C240.14 119.029 237.444 120.556 235.214 122.645L232.535 120.946C234.722 117.887 237.6 115.388 240.935 113.652L243.079 118.193Z" fill="white"/>
<path d="M251.412 111.152L250.751 117.778C249.803 117.612 248.842 117.53 247.88 117.533C246.257 117.534 244.642 117.756 243.079 118.193L240.935 113.667C244.072 112.023 247.559 111.161 251.1 111.152H251.412Z" fill="#407BFF"/>
<path opacity="0.4" d="M251.412 111.152L250.751 117.778C249.803 117.612 248.842 117.53 247.88 117.533C246.257 117.534 244.642 117.756 243.079 118.193L240.935 113.667C244.072 112.023 247.559 111.161 251.1 111.152H251.412Z" fill="white"/>
<path d="M261.34 113.964L257.014 120.308C255.137 119.017 252.999 118.153 250.752 117.778L251.412 111.152C254.914 111.176 258.345 112.148 261.34 113.964Z" fill="#407BFF"/>
<path opacity="0.3" d="M261.34 113.964L257.014 120.308C255.137 119.017 252.999 118.153 250.752 117.778L251.412 111.152C254.914 111.176 258.345 112.148 261.34 113.964Z" fill="white"/>
<path d="M268.203 121.443L261.451 125.057C260.329 123.17 258.81 121.55 256.999 120.308L261.325 113.964C264.269 115.768 266.651 118.358 268.203 121.443Z" fill="#407BFF"/>
<path opacity="0.2" d="M268.203 121.443L261.451 125.057C260.329 123.17 258.81 121.55 256.999 120.308L261.325 113.964C264.269 115.768 266.651 118.358 268.203 121.443Z" fill="white"/>
<path d="M270.177 131.757L263.573 131.683C263.367 129.344 262.642 127.08 261.451 125.057L268.203 121.443C269.787 124.638 270.469 128.204 270.177 131.757Z" fill="#407BFF"/>
<path opacity="0.1" d="M270.177 131.757L263.573 131.683C263.367 129.344 262.642 127.08 261.451 125.057L268.203 121.443C269.787 124.638 270.469 128.204 270.177 131.757Z" fill="white"/>
<path d="M270.162 131.95C270.166 131.977 270.166 132.004 270.162 132.031C269.895 134.354 269.303 136.626 268.404 138.784L263.054 137.574L263.484 135.534C263.521 135.267 263.558 134.999 263.581 134.732V134.569C263.666 133.609 263.666 132.643 263.581 131.683L270.184 131.757C270.184 131.801 270.184 131.831 270.184 131.868C270.181 131.896 270.174 131.924 270.162 131.95Z" fill="#407BFF"/>
<path d="M229.278 138.361L228.885 138.45C228.759 137.938 228.655 137.418 228.566 136.892C228.315 135.284 228.256 133.653 228.388 132.031V131.95C228.384 131.923 228.384 131.895 228.388 131.868C228.388 131.668 228.425 131.46 228.454 131.26H229.812C229.497 132.336 229.284 133.439 229.174 134.554C229.174 134.554 229.174 134.606 229.174 134.636C229.174 134.666 229.174 134.688 229.174 134.718C229.125 135.377 229.112 136.038 229.137 136.699C229.167 137.27 229.211 137.819 229.278 138.361Z" fill="#407BFF"/>
<path opacity="0.7" d="M229.278 138.361L228.885 138.45C228.759 137.938 228.655 137.418 228.566 136.892C228.315 135.284 228.256 133.653 228.388 132.031V131.95C228.384 131.923 228.384 131.895 228.388 131.868C228.388 131.668 228.425 131.46 228.454 131.26H229.812C229.497 132.336 229.284 133.439 229.174 134.554C229.174 134.554 229.174 134.606 229.174 134.636C229.174 134.666 229.174 134.688 229.174 134.718C229.125 135.377 229.112 136.038 229.137 136.699C229.167 137.27 229.211 137.819 229.278 138.361Z" fill="white"/>
<path d="M269.732 137.27L269.168 138.665L268.025 138.413L257.378 136.001L252.792 134.962C253.11 134.55 253.375 134.099 253.579 133.619C253.812 133.06 253.952 132.466 253.994 131.861L264.159 135.356L269.732 137.27Z" fill="#263238"/>
<path d="M253.994 131.876C253.909 133.006 253.491 134.085 252.792 134.977L248.674 134.042L249.972 130.496L253.994 131.876Z" fill="#263238"/>
<path d="M253.994 131.876C253.909 133.006 253.491 134.085 252.792 134.977C252.281 135.63 251.639 136.168 250.907 136.558C248.258 137.975 245.135 137.084 243.94 134.554C243.392 133.252 243.358 131.79 243.845 130.464C244.333 129.138 245.305 128.046 246.567 127.409C249.216 125.992 252.339 126.889 253.541 129.412C253.902 130.181 254.058 131.029 253.994 131.876Z" fill="#407BFF"/>
<path d="M84.9441 128.737H89.1958V132.299H84.5212L83.8682 137.493H80.1582L80.8112 132.299H76.0105L75.3575 137.493H71.7217L72.3747 132.299H68.0933V128.737H72.7976L73.4802 123.447H69.2063V119.885H73.9106L74.5636 114.691H78.2216L77.5687 119.885H82.362L83.0149 114.691H86.673L86.02 119.885H90.2643V123.447H85.56L84.9441 128.737ZM81.2341 128.737L81.9168 123.447H77.168L76.426 128.737H81.2341Z" fill="#407BFF"/>
<path d="M101.046 114.654V137.522H95.7551V118.905H91.1844V114.654H101.046Z" fill="#407BFF"/>
<path d="M81.2193 209.756H44.6313V234.947H81.2193V209.756Z" fill="#263238"/>
<path d="M81.2193 209.756H44.6313V212.064H81.2193V209.756Z" fill="#407BFF"/>
<path d="M51.3316 223.691L57.3195 227.007C57.5437 227.117 57.7452 227.268 57.9131 227.453C58.0179 227.599 58.0702 227.777 58.0615 227.957C58.0633 228.082 58.0399 228.207 57.9927 228.323C57.9456 228.439 57.8756 228.544 57.787 228.632C57.7033 228.722 57.6022 228.793 57.4898 228.841C57.3775 228.89 57.2564 228.915 57.134 228.914C56.8696 228.883 56.6158 228.792 56.392 228.647L48.6752 224.351C48.5536 224.289 48.4517 224.194 48.3804 224.078C48.3092 223.961 48.2715 223.827 48.2715 223.691C48.2715 223.554 48.3092 223.42 48.3804 223.304C48.4517 223.187 48.5536 223.093 48.6752 223.03L56.392 218.734C56.6176 218.595 56.8708 218.506 57.134 218.474C57.382 218.478 57.6187 218.579 57.7934 218.755C57.9681 218.931 58.067 219.169 58.0689 219.417C58.0827 219.597 58.0299 219.777 57.9205 219.921C57.7554 220.111 57.5534 220.265 57.3269 220.374L51.3316 223.691Z" fill="white"/>
<path d="M66.728 217.51L60.792 230.265C60.7025 230.5 60.5633 230.712 60.3839 230.888C60.2246 231.017 60.0249 231.085 59.82 231.081C59.6984 231.081 59.5779 231.057 59.4658 231.01C59.3537 230.963 59.2521 230.893 59.1671 230.806C59.0814 230.73 59.0127 230.636 58.9654 230.531C58.9181 230.427 58.8933 230.313 58.8925 230.198C58.9143 229.939 58.9874 229.687 59.1077 229.456L65.0437 216.708C65.134 216.476 65.2703 216.264 65.4444 216.085C65.6208 215.949 65.8406 215.881 66.063 215.895C66.2855 215.909 66.4954 216.003 66.6538 216.159C66.7399 216.236 66.8088 216.329 66.8561 216.434C66.9035 216.539 66.9281 216.653 66.9284 216.768C66.9112 217.026 66.8432 217.278 66.728 217.51Z" fill="white"/>
<path d="M74.2 223.691L68.1898 220.374C67.9601 220.267 67.7553 220.113 67.5888 219.921C67.485 219.774 67.4328 219.597 67.4404 219.417C67.4385 219.293 67.4626 219.17 67.5112 219.057C67.5597 218.943 67.6317 218.841 67.7223 218.756C67.8059 218.667 67.9071 218.596 68.0194 218.547C68.1318 218.499 68.2529 218.474 68.3753 218.474C68.6388 218.505 68.8922 218.594 69.1173 218.734L76.8341 223.03C76.9556 223.093 77.0576 223.187 77.1288 223.304C77.2001 223.42 77.2378 223.554 77.2378 223.691C77.2378 223.827 77.2001 223.961 77.1288 224.078C77.0576 224.194 76.9556 224.289 76.8341 224.351L69.1173 228.647C68.8938 228.792 68.6399 228.884 68.3753 228.914C68.2519 228.915 68.1297 228.89 68.0162 228.841C67.9027 228.793 67.8002 228.722 67.7149 228.632C67.5386 228.452 67.44 228.21 67.4404 227.957C67.435 227.778 67.4869 227.601 67.5888 227.453C67.7583 227.267 67.9624 227.115 68.1898 227.007L74.2 223.691Z" fill="white"/>
</svg>
