<svg width="352" height="352" viewBox="0 0 352 352" fill="none" xmlns="http://www.w3.org/2000/svg">
<path d="M46.3866 278.868C49.3412 277.483 52.6615 277.078 55.8624 277.714C57.5802 278.003 59.3824 278.516 60.544 279.826C61.7056 281.135 61.952 283.388 60.5933 284.5C59.7278 285.087 58.6838 285.351 57.6435 285.247C55.1373 285.247 52.3565 284.775 50.3571 286.282C49.2166 287.148 48.4563 288.577 47.0906 288.999C46.4115 289.149 45.7022 289.076 45.0681 288.79C44.4339 288.505 43.9087 288.023 43.5706 287.415C42.9191 286.161 42.773 284.705 43.1622 283.346C43.3198 282.402 43.6926 281.507 44.2517 280.731C44.8109 279.954 45.5414 279.317 46.3866 278.868Z" fill="#EBEBEB"/>
<path d="M39.783 266.112C41.5501 268.632 44.9715 267.795 46.5626 266.26C48.1536 264.725 48.8224 262.5 49.4278 260.374C50.8358 255.524 52.2438 250.434 51.1949 245.492C50.9402 244.001 50.2774 242.609 49.28 241.472C48.7842 240.9 48.1464 240.468 47.4308 240.221C46.7152 239.974 45.9471 239.92 45.2038 240.064C43.479 240.522 42.3878 242.176 41.6275 243.823C39.3387 248.573 38.1362 253.772 38.1075 259.044C38.1075 261.494 38.3891 264.07 39.769 266.084" fill="#EBEBEB"/>
<path d="M34.9466 269.731C36.8614 267.464 37.2205 264.148 36.3546 261.283C35.39 258.456 33.6626 255.951 31.3632 254.045C28.7545 251.725 25.7206 249.931 22.4294 248.765C21.1549 248.247 19.7844 248.007 18.4096 248.061C17.7227 248.101 17.0557 248.307 16.4668 248.663C15.8779 249.019 15.3848 249.513 15.0304 250.103C14.0941 251.898 14.9952 254.074 15.9738 255.855C17.6858 258.995 19.6419 261.997 21.824 264.831C23.584 267.105 25.6045 269.343 28.2867 270.364C30.969 271.385 33.792 271.272 35.2 269.414" fill="#EBEBEB"/>
<path d="M39.6634 304.086C39.7624 303.713 39.8167 303.331 39.8253 302.945C39.9098 302.115 40.0083 301.066 40.128 299.827C40.2846 298.288 40.5196 296.758 40.832 295.244C41.2413 293.402 41.7969 291.597 42.4934 289.844C43.1798 288.092 44.1088 286.445 45.2531 284.951C46.1961 283.734 47.3987 282.744 48.7731 282.051C49.6973 281.593 50.6881 281.284 51.7088 281.135C52.0939 281.125 52.4765 281.071 52.8493 280.973C52.4632 280.932 52.0738 280.932 51.6877 280.973C50.6116 281.042 49.5571 281.307 48.576 281.755C47.1396 282.432 45.8794 283.431 44.8941 284.676C43.7003 286.19 42.7371 287.872 42.0358 289.668C41.3259 291.447 40.7724 293.284 40.3814 295.159C40.0879 296.69 39.8858 298.237 39.776 299.791C39.6774 301.115 39.6422 302.192 39.6211 302.931C39.5987 303.317 39.6128 303.703 39.6634 304.086Z" fill="#E0E0E0"/>
<path d="M39.8816 301.685C39.9028 301.51 39.9028 301.332 39.8816 301.157V299.636C39.8816 298.32 39.8816 296.412 39.945 294.061C40.0646 289.358 40.4659 284.289 41.2544 277.165C41.9584 270.449 42.9862 262.634 44.0704 257.551C44.2957 256.397 44.528 255.355 44.7392 254.447C44.9504 253.539 45.1194 252.743 45.2813 252.109C45.4432 251.476 45.5418 251.018 45.6403 250.631C45.6914 250.462 45.7221 250.287 45.7318 250.11C45.6512 250.266 45.5897 250.432 45.5488 250.603C45.4291 250.99 45.2883 251.469 45.1053 252.06C44.9222 252.651 44.711 253.468 44.4787 254.383C44.2464 255.299 43.993 256.326 43.7747 257.481C42.4677 263.485 41.4854 269.555 40.832 275.665C40.0506 282.818 39.6915 289.337 39.6634 294.054C39.6634 296.412 39.6634 298.327 39.7478 299.643C39.7478 300.256 39.8112 300.763 39.8394 301.157C39.8351 301.334 39.8493 301.511 39.8816 301.685Z" fill="#E0E0E0"/>
<path d="M39.9098 289.119C39.9527 288.592 39.9527 288.062 39.9098 287.535C39.8204 286.096 39.6583 284.663 39.424 283.24C39.0714 281.13 38.6013 279.04 38.016 276.982C37.3302 274.451 36.4548 271.975 35.3971 269.576C33.5814 265.153 30.9764 261.098 27.7094 257.608C27.145 257.009 26.5406 256.449 25.9002 255.932C25.6256 255.693 25.3792 255.46 25.1328 255.277L24.4288 254.792C24.0078 254.474 23.563 254.189 23.0982 253.94C24.6299 255.149 26.0852 256.451 27.456 257.84C30.6103 261.362 33.1432 265.395 34.9466 269.766C35.9893 272.149 36.8689 274.599 37.5795 277.101C38.1797 279.14 38.6755 281.208 39.065 283.297C39.3958 285.078 39.5859 286.535 39.6986 287.521C39.7301 288.058 39.8007 288.592 39.9098 289.119Z" fill="#E0E0E0"/>
<path d="M27.7658 311.288L29.0259 328.543H51.1878L52.448 311.288H27.7658Z" fill="#E0E0E0"/>
<path d="M55.095 304.487H25.6256V311.288H55.095V304.487Z" fill="#E0E0E0"/>
<path d="M25.6256 327.881V329.768H27.0125H54.6093V327.881H25.6256Z" fill="#EBEBEB"/>
<path d="M28.3642 333.084L27.0125 329.768H53.5533L51.9693 333.084H28.3642Z" fill="#E0E0E0"/>
<path d="M52.0397 316.927L51.9341 317.089C51.8426 317.201 51.737 317.349 51.6032 317.525L50.3149 319.18L50.2515 319.25L50.1952 319.172L47.0272 314.787H47.2102L44.0845 319.208L43.9859 319.348L43.8803 319.215C42.7258 317.849 41.4726 316.356 40.1773 314.808H40.3885L40.1843 315.061L36.8755 319.215L36.7629 319.356L36.6573 319.208C35.5379 317.617 34.4819 316.131 33.5315 314.787H33.7146L29.8707 319.165L29.8003 319.243L29.751 319.158C29.2371 318.307 28.8358 317.624 28.5402 317.131L28.2304 316.596C28.1948 316.535 28.1642 316.471 28.1389 316.406C28.1389 316.406 28.1882 316.455 28.2656 316.575L28.6106 317.089L29.8778 319.081H29.7581L33.5386 314.646L33.6371 314.533L33.7216 314.653L36.8755 319.053H36.6643L39.9661 314.892L40.1702 314.639L40.2758 314.505L40.3885 314.632L44.0774 319.046H43.8733C45.0138 317.455 46.0698 315.969 47.0272 314.646L47.1187 314.512L47.2102 314.646L50.3149 319.081H50.2022L51.5469 317.504L51.9059 317.089C51.9904 316.969 52.0326 316.92 52.0397 316.927Z" fill="#F5F5F5"/>
<path d="M52.7578 311.168C52.7578 311.245 47.2032 311.309 40.3533 311.309C33.5034 311.309 27.9488 311.245 27.9488 311.168C27.9488 311.091 33.5034 311.027 40.3533 311.027C47.2032 311.027 52.7578 311.098 52.7578 311.168Z" fill="#F5F5F5"/>
<path d="M53.8771 329.951C53.8771 330.028 47.8438 330.092 40.3955 330.092C32.9472 330.092 26.9139 330.028 26.9139 329.951C26.9139 329.873 32.9472 329.817 40.3955 329.817C47.8438 329.817 53.8771 329.873 53.8771 329.951Z" fill="#F5F5F5"/>
<path d="M296.926 38.9875H20.4019V204.484H296.926V38.9875Z" fill="#F5F5F5"/>
<path d="M307.923 271.828H245.661V332.07H307.923V271.828Z" fill="#F5F5F5"/>
<path d="M250.49 326.909L267.71 295.912L281.797 315.723L290.358 305.205L303.093 326.909H250.49Z" fill="#E0E0E0"/>
<path d="M287.802 289.886C287.802 290.773 287.539 291.64 287.046 292.378C286.554 293.115 285.853 293.69 285.034 294.029C284.214 294.369 283.313 294.457 282.443 294.284C281.573 294.111 280.774 293.684 280.147 293.057C279.52 292.43 279.092 291.631 278.919 290.761C278.746 289.891 278.835 288.989 279.175 288.17C279.514 287.351 280.089 286.65 280.826 286.157C281.564 285.665 282.431 285.402 283.318 285.402C284.507 285.402 285.648 285.874 286.489 286.715C287.33 287.556 287.802 288.697 287.802 289.886Z" fill="#E0E0E0"/>
<g opacity="0.3">
<path d="M303.093 327.078C303.093 327.078 303.093 326.987 303.093 326.832C303.093 326.677 303.093 326.424 303.093 326.128C303.093 325.487 303.093 324.586 303.093 323.418C303.093 321.031 303.058 317.574 303.03 313.188C302.995 304.388 302.952 291.857 302.896 276.813L303.149 277.073L250.547 277.116C250.476 277.172 251.103 276.552 250.842 276.827V283.635C250.842 285.887 250.842 288.126 250.842 290.337C250.842 294.765 250.842 299.101 250.842 303.318C250.842 311.766 250.842 319.736 250.842 327.071L250.589 326.811L288.605 326.945L299.334 327.008L302.15 327.043H302.889C302.973 327.037 303.058 327.037 303.142 327.043C303.067 327.05 302.992 327.05 302.917 327.043H302.213H299.397L288.724 327.114L250.525 327.247H250.265V326.987C250.265 319.651 250.265 311.675 250.265 303.234C250.265 299.01 250.265 294.68 250.265 290.252V276.834L250.568 276.524L303.171 276.566H303.431V276.82C303.375 291.935 303.332 304.515 303.297 313.357C303.297 317.715 303.248 321.151 303.234 323.53C303.234 324.671 303.234 325.565 303.199 326.191C303.199 326.473 303.199 326.691 303.199 326.895C303.173 326.961 303.137 327.023 303.093 327.078Z" fill="#E0E0E0"/>
</g>
<path d="M311.112 56.0102H31.5181V214.952H311.112V56.0102Z" fill="#E0E0E0"/>
<path d="M343.636 332.351C343.636 332.457 270.153 332.534 179.527 332.534C88.9011 332.534 15.4035 332.457 15.4035 332.351C15.4035 332.246 88.8729 332.168 179.527 332.168C270.181 332.168 343.636 332.288 343.636 332.351Z" fill="#263238"/>
<path d="M305.888 273.743C306.892 274.207 307.791 274.869 308.533 275.689C309.275 276.51 309.843 277.471 310.204 278.516C310.912 280.614 311.131 282.847 310.844 285.043C310.415 289.267 308.028 293.596 305.508 297.011C301.896 293.941 301.009 288.513 300.735 285.747C300.298 281.354 302.178 273.145 305.888 273.779" fill="#1865FF"/>
<path d="M309.76 303.959C309.505 302.751 309.573 301.497 309.956 300.323C310.339 299.149 311.024 298.097 311.942 297.271C312.878 296.465 313.965 295.853 315.14 295.471C316.315 295.089 317.554 294.945 318.785 295.046C319.919 295.117 321.151 295.434 321.812 296.363C322.097 296.815 322.255 297.335 322.27 297.868C322.285 298.402 322.156 298.93 321.897 299.397C321.368 300.33 320.6 301.106 319.672 301.643C316.603 303.621 313.273 304.966 309.76 303.959Z" fill="#1865FF"/>
<path d="M303.769 306.423C303.234 303.872 302.098 301.486 300.457 299.462C298.815 297.438 296.714 295.835 294.328 294.786C293.11 294.265 291.512 293.962 290.597 294.884C289.682 295.807 289.935 297.398 290.47 298.616C291.624 301.129 293.496 303.245 295.85 304.697C298.204 306.149 300.935 306.872 303.699 306.775" fill="#1865FF"/>
<path d="M304.867 317.272C304.885 316.973 304.929 316.676 305.001 316.385C305.1 315.821 305.261 314.977 305.487 313.998C306.023 311.363 306.902 308.81 308.099 306.402C309.326 303.981 311.178 301.932 313.463 300.467C314.159 300.039 314.903 299.697 315.681 299.446C315.891 299.375 316.104 299.316 316.321 299.27C316.397 299.247 316.475 299.232 316.554 299.228C315.512 299.592 314.512 300.064 313.569 300.636C311.355 302.125 309.559 304.156 308.352 306.536C307.164 308.924 306.266 311.446 305.677 314.047L305.107 316.406C305.043 316.699 304.963 316.988 304.867 317.272Z" fill="#263238"/>
<path d="M305.008 280.122C305.041 280.246 305.058 280.373 305.057 280.502C305.057 280.776 305.1 281.142 305.128 281.593C305.191 282.543 305.261 283.916 305.332 285.613C305.48 289.006 305.62 293.702 305.663 298.89C305.705 304.079 305.663 308.746 305.536 312.168C305.487 313.871 305.437 315.244 305.395 316.195C305.395 316.645 305.353 317.011 305.339 317.286C305.334 317.413 305.32 317.54 305.297 317.666C305.288 317.539 305.288 317.412 305.297 317.286C305.297 317.004 305.297 316.645 305.297 316.188C305.297 315.209 305.332 313.843 305.353 312.168C305.395 308.767 305.437 304.079 305.395 298.89C305.353 293.702 305.247 289.034 305.149 285.62C305.1 283.944 305.064 282.579 305.036 281.6C305.036 281.142 305.036 280.783 305.036 280.502C305.015 280.376 305.005 280.249 305.008 280.122Z" fill="#263238"/>
<path d="M295.124 298.728C295.394 298.82 295.656 298.935 295.905 299.073C296.213 299.208 296.509 299.365 296.792 299.545C297.178 299.759 297.552 299.994 297.912 300.249L298.538 300.7C298.756 300.861 298.968 301.052 299.186 301.235C299.644 301.601 300.073 302.044 300.545 302.502C301.512 303.541 302.37 304.675 303.107 305.888C303.816 307.115 304.395 308.412 304.832 309.76C305.02 310.349 305.176 310.949 305.297 311.555C305.346 311.837 305.416 312.111 305.452 312.379C305.487 312.646 305.515 312.9 305.55 313.146C305.62 313.639 305.62 314.083 305.642 314.477C305.664 314.812 305.664 315.148 305.642 315.484C305.638 315.769 305.615 316.053 305.571 316.335C305.501 316.335 305.613 315.11 305.367 313.174C305.332 312.928 305.29 312.675 305.254 312.414C305.219 312.154 305.142 311.886 305.078 311.604C304.973 311.041 304.783 310.457 304.6 309.837C303.736 307.169 302.293 304.725 300.376 302.678C299.918 302.22 299.503 301.77 299.059 301.404C298.841 301.221 298.637 301.03 298.426 300.868L297.82 300.404C296.215 299.27 295.089 298.785 295.124 298.728Z" fill="#263238"/>
<path d="M312.175 332.351H299.242L296.602 313.4H314.639L312.175 332.351Z" fill="#263238"/>
<path d="M313.477 322.136C313.477 322.235 309.957 322.319 305.677 322.319C301.396 322.319 297.876 322.235 297.876 322.136C297.876 322.038 301.396 321.953 305.677 321.953C309.957 321.953 313.477 322.038 313.477 322.136Z" fill="#FAFAFA"/>
<path d="M313.477 323.263C313.477 323.361 309.957 323.446 305.677 323.446C301.396 323.446 297.876 323.361 297.876 323.263C297.876 323.164 301.396 323.08 305.677 323.08C309.957 323.08 313.477 323.136 313.477 323.263Z" fill="#FAFAFA"/>
<path d="M273.567 332.288L174.951 332.33C174.754 332.331 174.558 332.293 174.375 332.218C174.192 332.143 174.026 332.033 173.886 331.894C173.746 331.754 173.635 331.589 173.559 331.406C173.483 331.224 173.444 331.028 173.444 330.831V271.265C173.444 271.068 173.483 270.872 173.559 270.69C173.635 270.507 173.746 270.342 173.886 270.202C174.026 270.063 174.192 269.953 174.375 269.878C174.558 269.803 174.754 269.765 174.951 269.766L273.567 269.716C273.966 269.718 274.347 269.878 274.628 270.16C274.909 270.443 275.067 270.825 275.067 271.223V330.781C275.067 331.18 274.909 331.562 274.628 331.844C274.347 332.127 273.966 332.286 273.567 332.288Z" fill="#263238"/>
<path d="M225.301 294.751L233.644 299.235L225.639 304.508L217.628 309.788L217.297 300.024L216.959 290.259L225.301 294.751Z" fill="white"/>
<path d="M267.724 326.058C267.724 326.163 248.259 326.255 224.252 326.262C200.246 326.269 180.78 326.198 180.78 326.1C180.78 326.001 200.239 325.91 224.252 325.896C248.266 325.882 267.724 325.952 267.724 326.058Z" fill="white"/>
<path d="M182.336 326.1C182.336 326.317 182.272 326.529 182.151 326.71C182.03 326.891 181.859 327.031 181.658 327.114C181.457 327.198 181.237 327.219 181.024 327.177C180.81 327.135 180.615 327.03 180.461 326.876C180.308 326.723 180.203 326.527 180.161 326.314C180.118 326.101 180.14 325.88 180.223 325.68C180.306 325.479 180.447 325.307 180.628 325.187C180.808 325.066 181.021 325.002 181.238 325.002C181.529 325.002 181.808 325.117 182.014 325.323C182.22 325.529 182.336 325.809 182.336 326.1Z" fill="white"/>
<path d="M258.157 332.133L153.43 332.182C153.03 332.182 152.647 332.024 152.364 331.741C152.082 331.459 151.923 331.075 151.923 330.676V267.351C151.923 267.154 151.962 266.958 152.038 266.776C152.114 266.593 152.225 266.428 152.365 266.288C152.505 266.149 152.671 266.039 152.854 265.964C153.036 265.889 153.232 265.851 153.43 265.852L258.157 265.802C258.555 265.802 258.937 265.96 259.22 266.241C259.502 266.522 259.661 266.903 259.663 267.302V330.662C259.656 331.056 259.494 331.431 259.212 331.706C258.93 331.982 258.551 332.135 258.157 332.133Z" fill="#455A64"/>
<path d="M206.899 292.315L215.748 297.067L207.258 302.664L198.767 308.26L198.415 297.912L198.056 287.556L206.899 292.315Z" fill="white"/>
<path d="M251.877 325.508C251.877 325.614 231.243 325.706 205.793 325.713C180.344 325.72 159.702 325.656 159.702 325.551C159.702 325.445 180.337 325.361 205.793 325.347C231.25 325.332 251.877 325.41 251.877 325.508Z" fill="white"/>
<path d="M161.308 325.551C161.308 325.78 161.239 326.005 161.112 326.196C160.984 326.387 160.803 326.536 160.59 326.624C160.378 326.712 160.145 326.735 159.919 326.69C159.694 326.645 159.487 326.535 159.325 326.372C159.162 326.21 159.051 326.003 159.007 325.777C158.962 325.552 158.985 325.318 159.073 325.106C159.161 324.894 159.31 324.713 159.501 324.585C159.692 324.457 159.916 324.389 160.146 324.389C160.454 324.389 160.749 324.511 160.967 324.729C161.185 324.947 161.308 325.243 161.308 325.551Z" fill="white"/>
<path d="M217.98 294.279H159.174C158.342 294.279 157.668 294.954 157.668 295.786V330.831C157.668 331.663 158.342 332.337 159.174 332.337H217.98C218.812 332.337 219.486 331.663 219.486 330.831V295.786C219.486 294.954 218.812 294.279 217.98 294.279Z" fill="#1865FF"/>
<path d="M189.221 309.478L194.297 312.203L189.425 315.413L184.554 318.63L184.349 312.689L184.145 306.747L189.221 309.478Z" fill="white"/>
<path d="M215.03 328.529C215.03 328.627 203.188 328.712 188.588 328.719C173.987 328.726 162.138 328.648 162.138 328.55C162.138 328.451 173.98 328.36 188.588 328.353C203.196 328.346 215.03 328.423 215.03 328.529Z" fill="white"/>
<path d="M163.06 328.55C163.06 328.682 163.021 328.812 162.947 328.922C162.873 329.032 162.769 329.118 162.646 329.168C162.523 329.219 162.389 329.232 162.259 329.205C162.129 329.179 162.01 329.114 161.916 329.02C161.823 328.926 161.76 328.806 161.735 328.676C161.71 328.546 161.724 328.411 161.776 328.289C161.828 328.167 161.914 328.063 162.025 327.99C162.136 327.918 162.266 327.88 162.399 327.881C162.575 327.883 162.743 327.954 162.867 328.079C162.991 328.205 163.06 328.374 163.06 328.55Z" fill="white"/>
<path d="M319.067 73.4765H42.233V249.828H319.067V73.4765Z" fill="white"/>
<path d="M319.257 249.153C319.257 247.794 319.201 181.027 319.109 72.8006L319.257 72.9696L42.4513 73.0189L42.6484 72.8006C42.6484 135.217 42.6484 194.853 42.6484 249.153L42.4653 248.948L319.292 249.153L42.4653 249.357H42.2401V249.153C42.2401 194.853 42.2401 135.217 42.2401 72.8006V72.5824H42.4653L319.271 72.6317H319.426V72.8006C319.32 181.027 319.264 247.808 319.257 249.153Z" fill="#263238"/>
<path d="M319.419 83.3747C319.419 83.4803 257.368 83.5718 180.851 83.5718C104.333 83.5718 42.24 83.4803 42.24 83.3747C42.24 83.2691 104.276 83.1706 180.822 83.1706C257.368 83.1706 319.419 83.2621 319.419 83.3747Z" fill="#263238"/>
<path d="M51.392 76.8416C51.392 77.1953 51.2871 77.541 51.0906 77.835C50.8942 78.1291 50.6149 78.3583 50.2881 78.4936C49.9614 78.629 49.6019 78.6644 49.255 78.5954C48.9081 78.5264 48.5895 78.3561 48.3394 78.106C48.0893 77.8559 47.919 77.5373 47.85 77.1904C47.781 76.8436 47.8165 76.484 47.9518 76.1573C48.0871 75.8306 48.3163 75.5513 48.6104 75.3548C48.9045 75.1583 49.2502 75.0534 49.6038 75.0534C50.0781 75.0534 50.5329 75.2418 50.8683 75.5772C51.2036 75.9125 51.392 76.3673 51.392 76.8416Z" fill="#263238"/>
<path d="M56.8762 76.8416C56.8762 77.1953 56.7713 77.541 56.5748 77.835C56.3783 78.1291 56.099 78.3583 55.7723 78.4936C55.4456 78.629 55.086 78.6644 54.7391 78.5954C54.3923 78.5264 54.0737 78.3561 53.8236 78.106C53.5735 77.8559 53.4032 77.5373 53.3342 77.1904C53.2652 76.8436 53.3006 76.484 53.436 76.1573C53.5713 75.8306 53.8005 75.5513 54.0946 75.3548C54.3886 75.1583 54.7343 75.0534 55.088 75.0534C55.3228 75.0534 55.5554 75.0997 55.7723 75.1896C55.9892 75.2794 56.1864 75.4111 56.3524 75.5772C56.5185 75.7432 56.6502 75.9403 56.74 76.1573C56.8299 76.3742 56.8762 76.6068 56.8762 76.8416Z" fill="#263238"/>
<path d="M62.3322 76.8416C62.3322 77.1953 62.2273 77.541 62.0308 77.835C61.8343 78.1291 61.555 78.3583 61.2283 78.4936C60.9016 78.629 60.542 78.6644 60.1951 78.5954C59.8483 78.5264 59.5297 78.3561 59.2796 78.106C59.0295 77.8559 58.8592 77.5373 58.7902 77.1904C58.7212 76.8436 58.7566 76.484 58.892 76.1573C59.0273 75.8306 59.2565 75.5513 59.5506 75.3548C59.8446 75.1583 60.1903 75.0534 60.544 75.0534C61.0183 75.0534 61.4731 75.2418 61.8084 75.5772C62.1438 75.9125 62.3322 76.3673 62.3322 76.8416Z" fill="#263238"/>
<path d="M117.892 178.394H60.8045V233.629H117.892V178.394Z" fill="#1865FF"/>
<g opacity="0.3">
<path d="M65.2326 228.906L81.0234 200.478L93.9418 218.648L101.791 208.996L113.471 228.906H65.2326Z" fill="black"/>
</g>
<g opacity="0.3">
<path d="M99.447 194.952C99.4484 195.765 99.2085 196.561 98.7576 197.238C98.3067 197.915 97.665 198.443 96.9139 198.755C96.1628 199.067 95.3359 199.15 94.5379 198.992C93.7399 198.834 93.0067 198.443 92.431 197.868C91.8553 197.294 91.4631 196.561 91.3038 195.763C91.1446 194.966 91.2256 194.139 91.5366 193.387C91.8476 192.635 92.3745 191.993 93.0508 191.541C93.7271 191.089 94.5222 190.847 95.3357 190.847C96.4243 190.849 97.4679 191.282 98.2383 192.051C99.0087 192.82 99.4433 193.863 99.447 194.952Z" fill="black"/>
</g>
<g opacity="0.3">
<path d="M113.471 229.053C113.46 228.979 113.46 228.903 113.471 228.828C113.471 228.666 113.471 228.455 113.471 228.188C113.471 227.596 113.471 226.78 113.471 225.702C113.471 223.513 113.471 220.345 113.407 216.318C113.407 208.25 113.337 196.761 113.288 182.97L113.527 183.202L65.289 183.244L65.5565 182.977V195.381C65.5565 199.436 65.5565 203.414 65.5565 207.279C65.5565 215.023 65.5565 222.33 65.5565 229.053L65.3242 228.821L100.2 228.941L110.056 229.004H112.668H113.372H113.612C113.542 229.015 113.47 229.015 113.4 229.004H112.746H110.183L100.397 229.068L65.3734 229.187H65.1341V228.948C65.1341 222.225 65.1341 214.91 65.1341 207.173C65.1341 203.308 65.1341 199.331 65.1341 195.276V182.977L65.4086 182.702L113.647 182.737H113.879V182.97C113.83 196.824 113.788 208.363 113.759 216.466C113.759 220.472 113.71 223.619 113.696 225.794C113.696 226.843 113.696 227.66 113.696 228.237C113.696 228.497 113.696 228.694 113.696 228.856C113.626 228.928 113.551 228.994 113.471 229.053Z" fill="black"/>
</g>
<path d="M164.454 188.904H125.812V190.847H164.454V188.904Z" fill="#1865FF"/>
<path d="M177.887 197.24C177.887 197.352 166.278 197.444 151.965 197.444C137.653 197.444 126.044 197.352 126.044 197.24C126.044 197.127 137.646 197.043 151.965 197.043C166.285 197.043 177.887 197.12 177.887 197.24Z" fill="#263238"/>
<path d="M177.887 202.66C177.887 202.773 166.278 202.865 151.965 202.865C137.653 202.865 126.016 202.752 126.016 202.66C126.016 202.569 137.618 202.463 151.937 202.463C166.257 202.463 177.887 202.555 177.887 202.66Z" fill="#263238"/>
<path d="M177.887 208.081C177.887 208.194 166.278 208.278 151.965 208.278C137.653 208.278 126.044 208.194 126.044 208.081C126.044 207.969 137.646 207.884 151.965 207.884C166.285 207.884 177.887 207.969 177.887 208.081Z" fill="#263238"/>
<path d="M177.887 213.502C177.887 213.608 166.278 213.699 151.965 213.699C137.653 213.699 126.044 213.608 126.044 213.502C126.044 213.396 137.646 213.305 151.965 213.305C166.285 213.305 177.887 213.389 177.887 213.502Z" fill="#263238"/>
<path d="M177.887 218.944C177.887 219.05 166.278 219.141 151.965 219.141C137.653 219.141 126.016 219.028 126.016 218.944C126.016 218.859 137.618 218.74 151.937 218.74C166.257 218.74 177.887 218.81 177.887 218.944Z" fill="#263238"/>
<path d="M152.669 223.872C152.669 223.978 146.707 224.069 139.357 224.069C132.007 224.069 126.016 224.006 126.016 223.872C126.016 223.738 131.979 223.668 139.329 223.668C146.678 223.668 152.669 223.788 152.669 223.872Z" fill="#263238"/>
<path d="M289.281 185.631H250.638V187.574H289.281V185.631Z" fill="#1865FF"/>
<path d="M302.72 193.973C302.72 194.086 291.111 194.17 276.799 194.17C262.486 194.17 250.877 194.086 250.877 193.973C250.877 193.86 262.479 193.776 276.799 193.776C291.118 193.776 302.72 193.86 302.72 193.973Z" fill="#263238"/>
<path d="M302.72 199.394C302.72 199.507 291.111 199.591 276.799 199.591C262.486 199.591 250.877 199.507 250.877 199.394C250.877 199.281 262.479 199.197 276.799 199.197C291.118 199.197 302.72 199.281 302.72 199.394Z" fill="#263238"/>
<path d="M302.72 204.815C302.72 204.92 291.111 205.012 276.799 205.012C262.486 205.012 250.877 204.92 250.877 204.815C250.877 204.709 262.479 204.611 276.799 204.611C291.118 204.611 302.72 204.702 302.72 204.815Z" fill="#263238"/>
<path d="M302.72 210.236C302.72 210.341 291.111 210.433 276.799 210.433C262.486 210.433 250.877 210.341 250.877 210.236C250.877 210.13 262.479 210.031 276.799 210.031C291.118 210.031 302.72 210.123 302.72 210.236Z" fill="#263238"/>
<path d="M302.72 215.649C302.72 215.762 291.111 215.853 276.799 215.853C262.486 215.853 250.877 215.762 250.877 215.649C250.877 215.537 262.479 215.452 276.799 215.452C291.118 215.452 302.72 215.544 302.72 215.649Z" fill="#263238"/>
<path d="M277.496 220.634C277.496 220.739 271.533 220.831 264.183 220.831C256.833 220.831 250.87 220.739 250.87 220.634C250.87 220.528 256.833 220.429 264.183 220.429C271.533 220.429 277.496 220.521 277.496 220.634Z" fill="#263238"/>
<path d="M242.655 235.495C243.274 235.303 243.925 235.236 244.57 235.298C244.168 235.699 244.457 235.411 244.365 235.495V235.136V234.777C244.365 234.547 244.38 234.343 244.408 234.164C244.443 233.819 244.492 233.608 244.548 233.608C244.605 233.608 244.654 233.819 244.689 234.164C244.689 234.343 244.703 234.547 244.732 234.777V235.481L244.534 235.685C243.901 235.751 243.262 235.686 242.655 235.495Z" fill="#263238"/>
<path d="M234.432 235.495C235.785 235.232 237.176 235.232 238.529 235.495C237.177 235.767 235.784 235.767 234.432 235.495Z" fill="#263238"/>
<path d="M226.266 235.495C227.619 235.232 229.01 235.232 230.363 235.495C229.011 235.767 227.618 235.767 226.266 235.495Z" fill="#263238"/>
<path d="M218.071 235.495C219.424 235.232 220.815 235.232 222.168 235.495C220.816 235.767 219.423 235.767 218.071 235.495Z" fill="#263238"/>
<path d="M209.876 235.495C211.23 235.232 212.621 235.232 213.974 235.495C212.622 235.767 211.229 235.767 209.876 235.495Z" fill="#263238"/>
<path d="M201.682 235.495C203.035 235.232 204.426 235.232 205.779 235.495C204.427 235.767 203.034 235.767 201.682 235.495Z" fill="#263238"/>
<path d="M193.487 235.495C194.84 235.232 196.232 235.232 197.585 235.495C196.232 235.767 194.84 235.767 193.487 235.495Z" fill="#263238"/>
<path d="M187.475 233.587C187.676 234.202 187.745 234.852 187.679 235.495L187.475 235.298H188.221L188.834 235.34C189.179 235.382 189.39 235.432 189.39 235.481C189.39 235.53 189.179 235.587 188.834 235.629L188.221 235.671H187.475C187.391 235.579 187.679 235.868 187.278 235.467C187.22 234.833 187.287 234.195 187.475 233.587Z" fill="#263238"/>
<path d="M187.475 225.674C187.747 226.979 187.747 228.326 187.475 229.631C187.212 228.325 187.212 226.98 187.475 225.674Z" fill="#263238"/>
<path d="M187.475 217.768C187.747 219.073 187.747 220.42 187.475 221.725C187.212 220.419 187.212 219.074 187.475 217.768Z" fill="#263238"/>
<path d="M187.475 209.862C187.747 211.165 187.747 212.509 187.475 213.812C187.283 213.171 187.216 212.5 187.278 211.834C187.216 211.17 187.283 210.501 187.475 209.862Z" fill="#263238"/>
<path d="M187.475 201.949C187.747 203.254 187.747 204.601 187.475 205.906C187.212 204.6 187.212 203.255 187.475 201.949Z" fill="#263238"/>
<path d="M187.475 194.044C187.747 195.346 187.747 196.691 187.475 197.993C187.283 197.355 187.216 196.685 187.278 196.022C187.216 195.356 187.283 194.684 187.475 194.044Z" fill="#263238"/>
<path d="M187.475 186.131C187.747 187.435 187.747 188.782 187.475 190.087C187.212 188.781 187.212 187.436 187.475 186.131Z" fill="#263238"/>
<path d="M189.376 180.266C188.758 180.462 188.106 180.529 187.461 180.463L187.665 180.266V180.632V180.991C187.665 181.217 187.665 181.428 187.623 181.597C187.588 181.942 187.539 182.16 187.482 182.16C187.426 182.16 187.377 181.942 187.341 181.597C187.341 181.428 187.341 181.217 187.299 180.991C187.257 180.766 187.299 180.745 187.299 180.632V180.266L187.496 180.069C188.13 180.008 188.769 180.075 189.376 180.266Z" fill="#263238"/>
<path d="M197.585 180.266C196.232 180.529 194.84 180.529 193.487 180.266C194.84 180.003 196.232 180.003 197.585 180.266Z" fill="#263238"/>
<path d="M205.779 180.266C204.426 180.529 203.035 180.529 201.682 180.266C203.035 180.003 204.426 180.003 205.779 180.266Z" fill="#263238"/>
<path d="M213.974 180.266C212.621 180.529 211.23 180.529 209.876 180.266C211.23 180.003 212.621 180.003 213.974 180.266Z" fill="#263238"/>
<path d="M222.168 180.266C220.815 180.529 219.424 180.529 218.071 180.266C219.424 180.003 220.815 180.003 222.168 180.266Z" fill="#263238"/>
<path d="M230.363 180.266C229.01 180.529 227.619 180.529 226.266 180.266C227.619 180.003 229.01 180.003 230.363 180.266Z" fill="#263238"/>
<path d="M238.557 180.266C237.204 180.529 235.813 180.529 234.46 180.266C235.813 180.003 237.204 180.003 238.557 180.266Z" fill="#263238"/>
<path d="M244.57 182.181C244.369 181.564 244.3 180.912 244.365 180.266L244.57 180.463H244.182H243.823C243.591 180.463 243.387 180.463 243.211 180.421C242.866 180.386 242.655 180.337 242.655 180.28C242.655 180.224 242.866 180.175 243.211 180.14C243.389 180.14 243.593 180.125 243.823 180.097H244.182H244.57L244.767 180.294C244.824 180.93 244.757 181.571 244.57 182.181Z" fill="#263238"/>
<path d="M244.57 190.08C244.297 188.775 244.297 187.428 244.57 186.124C244.832 187.429 244.832 188.774 244.57 190.08Z" fill="#263238"/>
<path d="M244.57 197.993C244.297 196.691 244.297 195.346 244.57 194.044C244.762 194.684 244.828 195.356 244.767 196.022C244.829 196.685 244.762 197.355 244.57 197.993Z" fill="#263238"/>
<path d="M244.57 205.906C244.297 204.601 244.297 203.254 244.57 201.949C244.832 203.255 244.832 204.6 244.57 205.906Z" fill="#263238"/>
<path d="M244.57 213.812C244.297 212.509 244.297 211.165 244.57 209.862C244.762 210.501 244.829 211.17 244.767 211.834C244.828 212.5 244.762 213.171 244.57 213.812Z" fill="#263238"/>
<path d="M244.57 221.76C244.297 220.455 244.297 219.108 244.57 217.804C244.832 219.109 244.832 220.454 244.57 221.76Z" fill="#263238"/>
<path d="M244.57 229.631C244.297 228.326 244.297 226.979 244.57 225.674C244.832 226.98 244.832 228.325 244.57 229.631Z" fill="#263238"/>
<path d="M227.047 127.677C227.047 127.677 227.047 127.53 227.047 127.262C227.047 126.995 227.047 126.558 227.047 126.093C227.047 125.059 227.047 123.566 227.012 121.658C227.012 117.821 226.963 112.316 226.934 105.593L227.075 105.734L191.213 105.776C191.171 105.811 191.558 105.431 191.389 105.593V117.012C191.389 120.708 191.389 124.27 191.389 127.663L191.213 127.494L216.994 127.579L224.407 127.628H226.385H226.899C226.96 127.622 227.021 127.622 227.082 127.628H226.428H224.477L217.107 127.677L191.213 127.762H191.044V127.586C191.044 124.193 191.044 120.63 191.044 116.934V111.302C191.044 110.352 191.044 109.388 191.044 108.423V105.6C190.883 105.762 191.27 105.375 191.235 105.417L227.096 105.452H227.244V105.6C227.209 112.365 227.181 117.892 227.167 121.757C227.167 123.651 227.167 125.129 227.132 126.157C227.132 126.65 227.132 127.03 227.132 127.304C227.132 127.579 227.047 127.677 227.047 127.677Z" fill="#1865FF"/>
<path d="M209.334 114.801L212.277 116.385L209.454 118.244L206.624 120.102L206.511 116.66L206.392 113.217L209.334 114.801Z" fill="#1865FF"/>
<path d="M224.456 125.467C224.456 125.572 217.585 125.65 209.116 125.65C200.647 125.65 193.769 125.572 193.769 125.467C193.769 125.361 200.64 125.312 209.088 125.312C217.536 125.312 224.456 125.368 224.456 125.467Z" fill="#1865FF"/>
<path d="M193.917 125.854C194.131 125.854 194.304 125.681 194.304 125.467C194.304 125.253 194.131 125.08 193.917 125.08C193.703 125.08 193.53 125.253 193.53 125.467C193.53 125.681 193.703 125.854 193.917 125.854Z" fill="#1865FF"/>
<path d="M273.75 108.177H235.108V110.12H273.75V108.177Z" fill="#1865FF"/>
<path d="M287.183 116.519C287.183 116.625 275.581 116.716 261.268 116.716C246.956 116.716 235.347 116.625 235.347 116.519C235.347 116.413 246.949 116.315 261.268 116.315C275.588 116.315 287.183 116.406 287.183 116.519Z" fill="#263238"/>
<path d="M287.183 121.933C287.183 122.045 275.581 122.137 261.268 122.137C246.956 122.137 235.347 122.045 235.347 121.933C235.347 121.82 246.949 121.736 261.268 121.736C275.588 121.736 287.183 121.827 287.183 121.933Z" fill="#263238"/>
<path d="M227.047 160.111C227.047 160.111 227.047 159.97 227.047 159.702C227.047 159.435 227.047 159.034 227.047 158.534C227.047 157.499 227.047 156.006 227.012 154.099C227.012 150.262 226.963 144.756 226.934 138.033L227.075 138.174L191.213 138.216C191.171 138.216 191.558 137.864 191.389 138.033V149.459C191.389 153.155 191.389 156.717 191.389 160.111L191.213 159.942L216.994 160.026L224.407 160.076H226.385H226.899H227.082C227.082 160.076 227.033 160.076 226.92 160.076H226.428H224.477L217.107 160.125L191.213 160.202H191.044V160.026C191.044 156.633 191.044 153.071 191.044 149.375V143.743C191.044 142.785 191.044 141.828 191.044 140.863V137.963C190.883 138.125 191.27 137.738 191.235 137.78L227.096 137.815H227.244V137.963C227.209 144.728 227.181 150.255 227.167 154.113C227.167 156.006 227.167 157.492 227.132 158.52C227.132 159.012 227.132 159.386 227.132 159.66C227.113 159.812 227.085 159.962 227.047 160.111Z" fill="#1865FF"/>
<path d="M209.334 147.235L212.277 148.819L209.454 150.684L206.624 152.543L206.511 149.1L206.392 145.651L209.334 147.235Z" fill="#1865FF"/>
<path d="M224.456 157.907C224.456 158.006 217.585 158.09 209.116 158.09C200.647 158.09 193.769 158.006 193.769 157.907C193.769 157.809 200.64 157.696 209.088 157.696C217.536 157.696 224.456 157.809 224.456 157.907Z" fill="#1865FF"/>
<path d="M193.917 158.294C194.131 158.294 194.304 158.121 194.304 157.907C194.304 157.693 194.131 157.52 193.917 157.52C193.703 157.52 193.53 157.693 193.53 157.907C193.53 158.121 193.703 158.294 193.917 158.294Z" fill="#1865FF"/>
<path d="M273.75 140.617H235.108V142.56H273.75V140.617Z" fill="#1865FF"/>
<path d="M287.183 148.952C287.183 149.065 275.581 149.156 261.268 149.156C246.956 149.156 235.347 149.065 235.347 148.952C235.347 148.84 246.949 148.755 261.268 148.755C275.588 148.755 287.183 148.847 287.183 148.952Z" fill="#263238"/>
<path d="M287.183 154.373C287.183 154.486 275.581 154.577 261.268 154.577C246.956 154.577 235.347 154.486 235.347 154.373C235.347 154.261 246.949 154.176 261.268 154.176C275.588 154.176 287.183 154.268 287.183 154.373Z" fill="#263238"/>
<path d="M172.318 167.89C172.887 167.711 173.485 167.649 174.078 167.707L173.895 167.89V167.552V167.221C173.895 167.01 173.895 166.82 173.93 166.658C173.93 166.341 174.008 166.144 174.064 166.144C174.12 166.144 174.156 166.341 174.191 166.658C174.191 166.82 174.191 167.01 174.233 167.221V167.925L174.05 168.108C173.464 168.155 172.874 168.08 172.318 167.89Z" fill="#E0E0E0"/>
<path d="M165.292 167.89C166.453 167.645 167.652 167.645 168.812 167.89C167.652 168.135 166.453 168.135 165.292 167.89Z" fill="#E0E0E0"/>
<path d="M158.273 167.89C159.434 167.644 160.633 167.644 161.793 167.89C160.633 168.136 159.434 168.136 158.273 167.89Z" fill="#E0E0E0"/>
<path d="M151.247 167.89C152.408 167.645 153.607 167.645 154.767 167.89C153.607 168.135 152.408 168.135 151.247 167.89Z" fill="#E0E0E0"/>
<path d="M144.228 167.89C144.794 167.711 145.391 167.649 145.981 167.707C146.574 167.649 147.173 167.711 147.741 167.89C147.174 168.072 146.574 168.135 145.981 168.073C145.391 168.136 144.793 168.073 144.228 167.89Z" fill="#E0E0E0"/>
<path d="M137.203 167.89C138.363 167.645 139.562 167.645 140.723 167.89C139.562 168.135 138.363 168.135 137.203 167.89Z" fill="#E0E0E0"/>
<path d="M130.184 167.89C131.344 167.645 132.543 167.645 133.704 167.89C132.543 168.135 131.344 168.135 130.184 167.89Z" fill="#E0E0E0"/>
<path d="M123.158 167.89C123.726 167.711 124.325 167.649 124.918 167.707C125.508 167.649 126.105 167.711 126.671 167.89C126.106 168.073 125.508 168.136 124.918 168.073C124.325 168.135 123.725 168.072 123.158 167.89Z" fill="#E0E0E0"/>
<path d="M116.16 167.89C117.321 167.645 118.519 167.645 119.68 167.89C118.519 168.135 117.321 168.135 116.16 167.89Z" fill="#E0E0E0"/>
<path d="M109.12 167.89C110.28 167.644 111.48 167.644 112.64 167.89C111.48 168.136 110.28 168.136 109.12 167.89Z" fill="#E0E0E0"/>
<path d="M102.08 167.89C103.241 167.645 104.439 167.645 105.6 167.89C104.439 168.135 103.241 168.135 102.08 167.89Z" fill="#E0E0E0"/>
<path d="M95.0752 167.89C96.2356 167.644 97.4348 167.644 98.5952 167.89C97.4348 168.136 96.2356 168.136 95.0752 167.89Z" fill="#E0E0E0"/>
<path d="M88.0493 167.89C89.2098 167.645 90.4088 167.645 91.5693 167.89C90.4088 168.135 89.2098 168.135 88.0493 167.89Z" fill="#E0E0E0"/>
<path d="M81.0304 167.89C81.5964 167.711 82.1927 167.649 82.7834 167.707C83.374 167.649 83.9704 167.711 84.5363 167.89C83.9714 168.073 83.374 168.136 82.7834 168.073C82.1927 168.136 81.5953 168.073 81.0304 167.89Z" fill="#E0E0E0"/>
<path d="M74.0045 167.89C74.5729 167.711 75.1715 167.649 75.7645 167.707C76.3552 167.65 76.9513 167.712 77.5174 167.89C76.9521 168.072 76.3552 168.134 75.7645 168.073C75.1715 168.135 74.5721 168.072 74.0045 167.89Z" fill="#E0E0E0"/>
<path d="M66.9856 167.89C67.5516 167.711 68.1479 167.649 68.7386 167.707C69.3316 167.649 69.9301 167.711 70.4986 167.89C69.9309 168.072 69.3316 168.135 68.7386 168.073C68.1479 168.136 67.5506 168.073 66.9856 167.89Z" fill="#E0E0E0"/>
<path d="M61.7126 166.144C61.8911 166.712 61.9533 167.311 61.8957 167.904L61.7126 167.721H62.4166C62.6278 167.721 62.8179 167.721 62.9798 167.763C63.2966 167.763 63.4938 167.841 63.4938 167.89C63.4938 167.939 63.2966 167.988 62.9798 168.024L62.4166 168.059H62.0858H61.7338L61.5507 167.876C61.49 167.294 61.5451 166.705 61.7126 166.144Z" fill="#E0E0E0"/>
<path d="M61.7126 159.217C61.9567 160.356 61.9567 161.534 61.7126 162.673C61.4686 161.534 61.4686 160.356 61.7126 159.217Z" fill="#E0E0E0"/>
<path d="M61.7126 152.31C61.9567 153.45 61.9567 154.628 61.7126 155.767C61.4686 154.628 61.4686 153.45 61.7126 152.31Z" fill="#E0E0E0"/>
<path d="M61.7126 145.397C61.9567 146.536 61.9567 147.714 61.7126 148.854C61.4686 147.714 61.4686 146.536 61.7126 145.397Z" fill="#E0E0E0"/>
<path d="M61.7126 138.484C61.9567 139.623 61.9567 140.801 61.7126 141.94C61.4686 140.801 61.4686 139.623 61.7126 138.484Z" fill="#E0E0E0"/>
<path d="M61.7126 131.571C61.9567 132.71 61.9567 133.888 61.7126 135.027C61.4686 133.888 61.4686 132.71 61.7126 131.571Z" fill="#E0E0E0"/>
<path d="M61.7126 124.664C61.9568 125.801 61.9568 126.977 61.7126 128.114C61.4685 126.977 61.4685 125.801 61.7126 124.664Z" fill="#E0E0E0"/>
<path d="M61.7126 117.751C61.9567 118.89 61.9567 120.068 61.7126 121.208C61.4686 120.068 61.4686 118.89 61.7126 117.751Z" fill="#E0E0E0"/>
<path d="M61.7126 110.838C61.9567 111.977 61.9567 113.155 61.7126 114.294C61.4686 113.155 61.4686 111.977 61.7126 110.838Z" fill="#E0E0E0"/>
<path d="M61.7126 103.924C61.9567 105.064 61.9567 106.242 61.7126 107.381C61.4686 106.242 61.4686 105.064 61.7126 103.924Z" fill="#E0E0E0"/>
<path d="M63.4726 98.7078C62.906 98.8948 62.3062 98.9596 61.7126 98.8979C62.0787 98.5248 61.8112 98.7923 61.8957 98.7149V99.0598C61.8957 99.1654 61.8957 99.271 61.8957 99.3907C61.8957 99.5104 61.8957 99.792 61.8534 99.9469C61.8534 100.264 61.776 100.461 61.7267 100.461C61.6774 100.461 61.6282 100.264 61.6 99.9469C61.6 99.792 61.6 99.6019 61.5578 99.3907V98.6867C61.6422 98.6022 61.3747 98.8627 61.7408 98.4966C62.3264 98.4519 62.915 98.5236 63.4726 98.7078Z" fill="#E0E0E0"/>
<path d="M70.4986 98.7078C69.9319 98.8948 69.3321 98.9596 68.7386 98.8979C68.1474 98.9599 67.5498 98.8951 66.9856 98.7078C67.5516 98.529 68.1479 98.4668 68.7386 98.5248C69.3316 98.4672 69.9301 98.5294 70.4986 98.7078Z" fill="#E0E0E0"/>
<path d="M77.5174 98.7078C76.953 98.8938 76.3557 98.9586 75.7645 98.8979C75.171 98.9596 74.5711 98.8948 74.0045 98.7078C74.5729 98.5294 75.1715 98.4672 75.7645 98.5248C76.3552 98.4675 76.9513 98.5298 77.5174 98.7078Z" fill="#E0E0E0"/>
<path d="M84.5363 98.7078C83.9722 98.8951 83.3745 98.9599 82.7834 98.8979C82.1922 98.9599 81.5946 98.8951 81.0304 98.7078C81.5964 98.529 82.1927 98.4668 82.7834 98.5248C83.374 98.4668 83.9704 98.529 84.5363 98.7078Z" fill="#E0E0E0"/>
<path d="M91.5622 98.7078C90.4027 98.9624 89.2018 98.9624 88.0422 98.7078C89.2028 98.4628 90.4017 98.4628 91.5622 98.7078Z" fill="#E0E0E0"/>
<path d="M98.56 98.7078C97.4006 98.9633 96.1994 98.9633 95.04 98.7078C96.2004 98.4617 97.3996 98.4617 98.56 98.7078Z" fill="#E0E0E0"/>
<path d="M105.6 98.7078C104.44 98.9624 103.24 98.9624 102.08 98.7078C103.241 98.4628 104.439 98.4628 105.6 98.7078Z" fill="#E0E0E0"/>
<path d="M112.64 98.7078C111.481 98.9633 110.279 98.9633 109.12 98.7078C110.28 98.4617 111.48 98.4617 112.64 98.7078Z" fill="#E0E0E0"/>
<path d="M119.68 98.7078C118.52 98.9624 117.32 98.9624 116.16 98.7078C117.321 98.4628 118.519 98.4628 119.68 98.7078Z" fill="#E0E0E0"/>
<path d="M126.671 98.7078C126.107 98.8951 125.509 98.9599 124.918 98.8979C124.324 98.9596 123.724 98.8948 123.158 98.7078C123.726 98.5294 124.325 98.4672 124.918 98.5248C125.508 98.4668 126.105 98.529 126.671 98.7078Z" fill="#E0E0E0"/>
<path d="M133.697 98.7078C132.537 98.9624 131.336 98.9624 130.177 98.7078C131.337 98.4628 132.536 98.4628 133.697 98.7078Z" fill="#E0E0E0"/>
<path d="M140.716 98.7078C139.556 98.9624 138.355 98.9624 137.196 98.7078C138.356 98.4628 139.555 98.4628 140.716 98.7078Z" fill="#E0E0E0"/>
<path d="M147.741 98.7078C147.175 98.8948 146.575 98.9596 145.981 98.8979C145.39 98.9599 144.793 98.8951 144.228 98.7078C144.794 98.529 145.391 98.4668 145.981 98.5248C146.574 98.4672 147.173 98.5294 147.741 98.7078Z" fill="#E0E0E0"/>
<path d="M154.76 98.7078C153.601 98.9624 152.4 98.9624 151.24 98.7078C152.401 98.4628 153.6 98.4628 154.76 98.7078Z" fill="#E0E0E0"/>
<path d="M161.779 98.7078C160.62 98.9633 159.419 98.9633 158.259 98.7078C159.42 98.4617 160.619 98.4617 161.779 98.7078Z" fill="#E0E0E0"/>
<path d="M168.805 98.7078C167.646 98.9624 166.445 98.9624 165.285 98.7078C166.446 98.4628 167.645 98.4628 168.805 98.7078Z" fill="#E0E0E0"/>
<path d="M174.078 100.468C173.895 99.9004 173.833 99.3008 173.895 98.7078C174.261 99.0739 173.994 98.8134 174.078 98.8979H173.719H173.388H172.832C172.515 98.8627 172.318 98.8205 172.318 98.7641C172.318 98.7078 172.515 98.6726 172.832 98.6374L173.388 98.5952H174.092C174.17 98.6797 173.909 98.4121 174.275 98.7782C174.32 99.3489 174.253 99.9227 174.078 100.468Z" fill="#E0E0E0"/>
<path d="M174.078 107.381C173.834 106.242 173.834 105.064 174.078 103.924C174.322 105.064 174.322 106.242 174.078 107.381Z" fill="#E0E0E0"/>
<path d="M174.078 114.294C173.834 113.155 173.834 111.977 174.078 110.838C174.322 111.977 174.322 113.155 174.078 114.294Z" fill="#E0E0E0"/>
<path d="M174.078 121.208C173.834 120.068 173.834 118.89 174.078 117.751C174.322 118.89 174.322 120.068 174.078 121.208Z" fill="#E0E0E0"/>
<path d="M174.078 128.128C173.834 126.991 173.834 125.815 174.078 124.678C174.322 125.815 174.322 126.991 174.078 128.128Z" fill="#E0E0E0"/>
<path d="M174.078 135.027C173.834 133.888 173.834 132.71 174.078 131.571C174.322 132.71 174.322 133.888 174.078 135.027Z" fill="#E0E0E0"/>
<path d="M174.078 141.94C173.834 140.801 173.834 139.623 174.078 138.484C174.322 139.623 174.322 140.801 174.078 141.94Z" fill="#E0E0E0"/>
<path d="M174.078 148.854C173.834 147.714 173.834 146.536 174.078 145.397C174.322 146.536 174.322 147.714 174.078 148.854Z" fill="#E0E0E0"/>
<path d="M174.078 155.767C173.896 155.209 173.833 154.619 173.895 154.035C173.833 153.454 173.895 152.866 174.078 152.31C174.258 152.867 174.32 153.454 174.261 154.035C174.319 154.619 174.257 155.208 174.078 155.767Z" fill="#E0E0E0"/>
<path d="M174.078 162.673C173.834 161.534 173.834 160.356 174.078 159.217C174.322 160.356 174.322 161.534 174.078 162.673Z" fill="#E0E0E0"/>
<path d="M165.968 167.348L56.7706 173.339C56.3743 173.36 55.9857 173.224 55.6891 172.96C55.3925 172.697 55.212 172.327 55.1866 171.931L51.568 105.853C51.5449 105.457 51.6802 105.067 51.9442 104.77C52.2082 104.473 52.5793 104.293 52.976 104.269L162.166 98.2784C162.563 98.2572 162.951 98.3932 163.248 98.6568C163.544 98.9204 163.725 99.2904 163.75 99.6864L167.376 165.757C167.388 165.954 167.362 166.151 167.298 166.338C167.234 166.525 167.133 166.697 167.002 166.845C166.872 166.993 166.713 167.113 166.535 167.199C166.358 167.286 166.165 167.336 165.968 167.348Z" fill="#1865FF"/>
<path d="M110.268 128.79L119.743 133.239L111.225 139.547L102.7 145.855L101.742 135.098L100.785 124.34L110.268 128.79Z" fill="white"/>
<path d="M158.984 160.815C158.984 160.913 137.505 162.173 111 163.631C84.4941 165.088 63.001 166.179 62.9939 166.081C62.9869 165.982 84.473 164.715 110.986 163.265C137.498 161.814 158.977 160.709 158.984 160.815Z" fill="white"/>
<path d="M64.6694 165.989C64.6816 166.228 64.6227 166.465 64.5001 166.671C64.3775 166.877 64.1967 167.041 63.9806 167.144C63.7645 167.247 63.5227 167.283 63.2859 167.249C63.049 167.215 62.8277 167.111 62.6498 166.951C62.472 166.79 62.3456 166.581 62.2866 166.349C62.2276 166.117 62.2387 165.873 62.3185 165.647C62.3982 165.422 62.5431 165.225 62.7347 165.081C62.9264 164.938 63.1562 164.854 63.3952 164.842C63.5543 164.833 63.7135 164.856 63.8636 164.909C64.0138 164.962 64.1521 165.044 64.2704 165.151C64.3888 165.258 64.485 165.386 64.5535 165.53C64.6219 165.674 64.6613 165.83 64.6694 165.989Z" fill="white"/>
<g opacity="0.3">
<path d="M156.344 98.6938C154.598 102.045 152.824 105.868 154.007 109.451C154.563 111.091 155.69 112.471 156.541 113.978C159.16 118.603 159.069 124.214 158.914 129.522C158.865 131.028 158.738 132.718 157.604 133.704C156.668 134.506 155.338 134.598 154.084 134.64L139.23 135.21V161.364L166.785 155.267L165.496 116.16L164.792 109.564L162.012 98.2995L156.344 98.6938Z" fill="black"/>
</g>
<path d="M132.725 310.168L133.668 332.232L145.58 331.964L144.686 309.859L132.725 310.168Z" fill="#1865FF"/>
<path d="M139.519 331.267C139.617 331.267 139.427 326.431 139.103 320.475C138.78 314.519 138.399 309.697 138.329 309.704C138.259 309.711 138.413 314.54 138.744 320.496C139.075 326.452 139.392 331.274 139.519 331.267Z" fill="#263238"/>
<path d="M133.598 330.711L145.517 330.408L145.58 331.964L133.668 332.232L133.598 330.711Z" fill="#E0E0E0"/>
<path d="M145.292 324.903C145.292 324.903 145.2 324.713 144.968 324.431C144.123 323.443 143.063 322.66 141.87 322.143C140.984 321.757 140.019 321.583 139.054 321.637C138.183 321.672 137.328 321.889 136.545 322.273C135.762 322.658 135.068 323.201 134.506 323.868C134.173 324.27 133.9 324.718 133.697 325.199C133.606 325.37 133.549 325.556 133.528 325.748C133.871 325.145 134.262 324.571 134.696 324.03C135.83 322.801 137.404 322.069 139.075 321.996C140.746 321.968 142.374 322.518 143.686 323.551C144.728 324.312 145.249 324.945 145.292 324.903Z" fill="#263238"/>
<g opacity="0.3">
<path d="M144.94 316.152L145.038 318.581L133.098 318.792L133.014 316.962L144.94 316.152Z" fill="black"/>
</g>
<path d="M103.91 310.746L104.509 324.544C104.509 324.544 90.6752 329.789 90.5344 332.351L117.343 332.154L117.293 310.605L103.91 310.746Z" fill="#1865FF"/>
<path d="M112.64 323.375C112.899 323.454 113.121 323.625 113.262 323.856C113.404 324.087 113.455 324.362 113.407 324.628C113.34 324.891 113.175 325.118 112.946 325.262C112.717 325.406 112.441 325.456 112.175 325.403C111.899 325.322 111.662 325.141 111.512 324.895C111.363 324.648 111.31 324.355 111.366 324.072C111.463 323.805 111.661 323.586 111.917 323.462C112.174 323.338 112.469 323.32 112.739 323.411" fill="#E0E0E0"/>
<path d="M117.343 332.154V329.993L91.4003 330.979C91.4003 330.979 90.2035 331.507 90.3443 332.351L117.343 332.154Z" fill="#E0E0E0"/>
<path d="M104.262 324.636C104.262 324.769 104.966 324.826 105.579 325.241C106.191 325.656 106.579 326.212 106.705 326.163C106.832 326.114 106.621 325.347 105.825 324.854C105.03 324.361 104.234 324.544 104.262 324.636Z" fill="#263238"/>
<path d="M101.439 325.825C101.439 325.959 101.981 326.177 102.432 326.733C102.883 327.29 103.023 327.874 103.136 327.867C103.249 327.86 103.347 327.114 102.77 326.459C102.193 325.804 101.439 325.706 101.439 325.825Z" fill="#263238"/>
<path d="M99.8554 329.233C99.975 329.233 100.158 328.599 99.8131 327.874C99.4682 327.149 98.8486 326.874 98.7923 326.987C98.736 327.099 99.1232 327.48 99.3978 328.071C99.6723 328.662 99.7286 329.219 99.8554 329.233Z" fill="#263238"/>
<path d="M104.481 321.453C104.537 321.573 105.135 321.383 105.889 321.453C106.642 321.524 107.219 321.728 107.297 321.615C107.374 321.503 106.804 321.038 105.924 320.996C105.044 320.954 104.41 321.348 104.481 321.453Z" fill="#263238"/>
<path d="M103.974 318.483C104.416 318.608 104.884 318.608 105.325 318.483C105.812 318.395 106.285 318.246 106.733 318.039C107.001 317.918 107.26 317.78 107.508 317.624C107.657 317.537 107.792 317.427 107.909 317.3C107.997 317.207 108.051 317.086 108.061 316.958C108.072 316.83 108.038 316.702 107.965 316.596C107.901 316.503 107.814 316.426 107.714 316.374C107.613 316.321 107.502 316.293 107.388 316.293C107.217 316.297 107.046 316.323 106.881 316.371C106.593 316.442 106.313 316.541 106.044 316.666C105.588 316.875 105.168 317.153 104.797 317.49C104.178 318.074 103.967 318.574 104.016 318.595C104.065 318.616 104.375 318.222 105.009 317.743C105.376 317.454 105.781 317.217 106.212 317.039C106.471 316.938 106.737 316.858 107.008 316.8C107.29 316.723 107.536 316.716 107.606 316.842C107.677 316.969 107.606 316.913 107.606 316.997C107.521 317.09 107.421 317.168 107.311 317.229C107.084 317.382 106.849 317.52 106.607 317.645C106.189 317.855 105.753 318.027 105.304 318.159C104.853 318.234 104.409 318.342 103.974 318.483Z" fill="#263238"/>
<path d="M104.15 318.673C104.397 318.282 104.518 317.825 104.495 317.363C104.516 316.863 104.449 316.362 104.298 315.885C104.21 315.598 104.092 315.322 103.946 315.061C103.876 314.878 103.759 314.716 103.607 314.593C103.455 314.469 103.273 314.388 103.08 314.357C102.96 314.361 102.843 314.399 102.744 314.466C102.644 314.534 102.565 314.627 102.516 314.737C102.452 314.898 102.408 315.066 102.383 315.237C102.34 315.538 102.34 315.844 102.383 316.145C102.459 316.657 102.663 317.141 102.974 317.553C103.502 318.257 104.058 318.405 104.065 318.356C104.072 318.307 103.65 318.039 103.242 317.37C102.994 316.986 102.837 316.55 102.784 316.096C102.749 315.837 102.749 315.574 102.784 315.315C102.826 315.026 102.932 314.794 103.037 314.822C103.143 314.85 103.404 315.033 103.516 315.265C103.651 315.488 103.765 315.724 103.854 315.969C104.011 316.402 104.103 316.855 104.129 317.314C104.192 318.159 104.079 318.652 104.15 318.673Z" fill="#263238"/>
<g opacity="0.3">
<path d="M117.35 318.884L117.322 321.946H104.396V320.264L117.35 318.884Z" fill="black"/>
</g>
<path d="M157.485 100.841C157.182 100.841 156.401 103.896 156.013 105.431C155.874 105.993 155.955 106.588 156.239 107.092L159.343 112.591C159.924 113.607 160.765 114.45 161.779 115.034L163.335 115.914L163.539 119.18L172.276 119.321L169.615 109.12L168.502 102.904C168.354 102.599 168.135 102.334 167.863 102.132C167.591 101.93 167.274 101.796 166.94 101.742L166.116 101.622L165.806 100.834C165.717 100.61 165.571 100.413 165.384 100.261C165.197 100.11 164.974 100.009 164.736 99.968L164.222 99.9046L163.518 98.1376C163.403 97.8574 163.209 97.6171 162.958 97.4469C162.708 97.2766 162.413 97.1838 162.11 97.1801L157.886 97.2365C157.886 97.2365 156.957 98.4896 159.09 99.081C159.68 99.2483 160.293 99.3243 160.906 99.3062L161.892 103.115C161.892 103.115 162.596 107.114 160.716 107.114C159.069 107.114 158.914 104.959 158.914 104.959C158.914 104.959 159.639 100.602 157.485 100.841Z" fill="#FFBE9D"/>
<path d="M166.144 104.657C166.108 104.388 166.054 104.122 165.982 103.861C165.76 103.241 165.342 102.71 164.792 102.348C164.5 101.744 164.28 101.109 164.138 100.454C164.058 100.187 164.027 99.9079 164.046 99.6301C164.046 99.6301 164.102 99.9398 164.236 100.426C164.41 101.053 164.634 101.665 164.905 102.256L165.334 102.608C165.465 102.732 165.583 102.869 165.686 103.016C165.864 103.263 165.998 103.54 166.081 103.833C166.136 104.028 166.165 104.229 166.165 104.431C166.172 104.507 166.164 104.583 166.144 104.657Z" fill="#EB996E"/>
<path d="M167.489 103.917C167.47 103.78 167.427 103.646 167.362 103.523C167.28 103.376 167.164 103.251 167.023 103.159C166.881 103.067 166.72 103.011 166.552 102.995H166.503V102.953L166.454 102.819C166.245 102.306 166.077 101.776 165.954 101.235C166.214 101.724 166.428 102.235 166.595 102.763L166.644 102.904L166.58 102.854C166.771 102.872 166.954 102.94 167.109 103.052C167.265 103.163 167.389 103.313 167.468 103.488C167.552 103.741 167.51 103.932 167.489 103.917Z" fill="#EB996E"/>
<path d="M160.815 99.3203C160.78 99.3203 160.618 99.1302 160.66 98.8346C160.702 98.5389 160.843 98.3558 160.878 98.377C160.913 98.3981 160.836 98.5952 160.808 98.8486C160.78 99.1021 160.85 99.2992 160.815 99.3203Z" fill="#EB996E"/>
<path d="M116.061 138.927L131.901 138.73L130.134 125.235C130.134 125.235 131.219 125.002 131.289 119.138C131.359 113.274 131.634 103.291 131.634 103.291C128.297 101.858 124.637 101.341 121.034 101.794C117.43 102.247 114.012 103.653 111.133 105.868L110.268 106.572L116.061 138.927Z" fill="#FFBE9D"/>
<path d="M112.105 113.759C112.006 113.717 108.071 112.563 108.198 116.575C108.324 120.588 112.33 119.631 112.33 119.518C112.33 119.405 112.105 113.759 112.105 113.759Z" fill="#FFBE9D"/>
<path d="M130.944 112.922C131.043 112.879 134.619 111.915 134.464 115.928C134.309 119.94 130.332 118.983 130.332 118.863C130.332 118.744 130.944 112.922 130.944 112.922Z" fill="#FFBE9D"/>
<path d="M135.457 101.327C135.497 100.963 135.444 100.594 135.304 100.256C135.164 99.9173 134.94 99.6197 134.654 99.3907C134.359 99.1735 133.996 99.069 133.631 99.0961C133.265 99.1232 132.922 99.2802 132.662 99.5386C132.717 99.2933 132.72 99.0392 132.67 98.7928C132.621 98.5464 132.52 98.3131 132.375 98.108C132.229 97.903 132.043 97.7307 131.826 97.6024C131.61 97.4741 131.37 97.3926 131.12 97.3632C130.163 97.3069 129.346 98.025 128.424 98.2784C127.501 98.4766 126.538 98.3653 125.685 97.9616C124.812 97.6166 124.003 97.1309 123.123 96.8141C121.264 96.1324 119.212 96.2132 117.413 97.0388C115.614 97.8644 114.215 99.3678 113.52 101.221C112.867 101.063 112.181 101.106 111.553 101.345C110.925 101.583 110.383 102.007 110 102.559C109.254 103.694 108.955 105.067 109.162 106.41C109.302 107.31 109.538 108.193 109.866 109.043C109.866 109.12 109.866 109.19 109.866 109.268C109.923 112.492 111.605 122.693 112.985 122.714C115.386 122.749 113.499 111.823 113.499 111.823C116.442 110.683 115.343 106.269 116.083 105.6C116.822 104.931 118.356 103.375 124.531 106.529C126.825 107.554 129.385 107.829 131.845 107.318H132H132.035C132.035 107.318 132.07 107.318 132.092 107.318C132.651 107.167 133.183 106.929 133.668 106.614C134.246 106.284 134.702 105.778 134.971 105.171C135.1 104.865 135.136 104.528 135.076 104.201C135.016 103.875 134.862 103.573 134.633 103.333C135.097 102.759 135.383 102.061 135.457 101.327Z" fill="#263238"/>
<path d="M110.803 113.344C111.401 116.709 111.281 118.476 111.837 120.722C112.717 124.242 114.484 127.002 117.681 128.776C120.877 130.55 125.213 130.515 127.966 128.072C129.874 126.396 131.226 124.502 131.486 121.975C131.747 119.448 132.056 114.984 132.077 112.443C132.077 107.86 132.415 103.481 132.415 103.481L119.321 101.108L111.873 105.537L110.803 113.344Z" fill="#263238"/>
<path d="M124.305 130.768C123.573 131.043 122.779 131.111 122.01 130.965C121.227 130.939 120.466 130.695 119.814 130.261C119.856 130.163 120.82 130.465 122.052 130.599C123.284 130.733 124.291 130.655 124.305 130.768Z" fill="#263238"/>
<path d="M127.706 100.517C127.507 100.589 127.297 100.627 127.086 100.63C126.504 100.635 125.929 100.5 125.411 100.236C124.658 99.8431 123.95 99.3711 123.299 98.8275C122.506 98.1645 121.551 97.7246 120.532 97.5533C119.509 97.414 118.469 97.596 117.554 98.0742C116.811 98.4747 116.185 99.0618 115.738 99.7779C115.33 100.441 115.063 101.182 114.956 101.953C114.958 101.743 114.979 101.533 115.02 101.327C115.135 100.76 115.347 100.217 115.646 99.7216C116.095 98.9807 116.731 98.3712 117.491 97.9546C118.429 97.4551 119.501 97.2654 120.553 97.4125C121.594 97.5807 122.569 98.0339 123.369 98.7219C124.026 99.2582 124.733 99.7297 125.481 100.13C125.983 100.395 126.539 100.542 127.107 100.559C127.487 100.573 127.706 100.496 127.706 100.517Z" fill="#455A64"/>
<path d="M115.132 102.164C114.832 102.018 114.518 101.9 114.196 101.812C113.405 101.635 112.577 101.766 111.88 102.179C111.199 102.616 110.715 103.3 110.528 104.086C110.462 104.416 110.427 104.75 110.422 105.086C110.394 105 110.38 104.909 110.38 104.819C110.358 104.566 110.375 104.312 110.429 104.065C110.506 103.653 110.667 103.26 110.904 102.914C111.14 102.567 111.447 102.273 111.803 102.052C112.16 101.831 112.559 101.686 112.974 101.628C113.39 101.57 113.813 101.599 114.217 101.714C114.464 101.778 114.7 101.875 114.921 102.003C115 102.044 115.072 102.099 115.132 102.164Z" fill="#455A64"/>
<path d="M114.752 116.477C113.914 115.175 113.287 113.75 112.893 112.253C113.731 113.554 114.358 114.98 114.752 116.477Z" fill="#455A64"/>
<path d="M118.18 118.779C117.402 118.349 116.758 117.71 116.322 116.934C115.787 116.223 115.458 115.378 115.372 114.492C115.477 114.492 115.857 115.555 116.632 116.73C117.406 117.906 118.272 118.701 118.18 118.779Z" fill="#455A64"/>
<path d="M121.56 119.525C120.964 119.344 120.426 119.011 119.997 118.561C119.222 117.857 118.751 117.202 118.828 117.153C118.906 117.103 119.49 117.645 120.236 118.293C120.982 118.941 121.616 119.434 121.56 119.525Z" fill="#455A64"/>
<path d="M127.537 114.083C127.627 114.77 127.504 115.468 127.185 116.083C126.974 116.743 126.569 117.324 126.023 117.751C126.261 117.132 126.536 116.528 126.847 115.942C127.043 115.31 127.273 114.69 127.537 114.083Z" fill="#455A64"/>
<path d="M129.536 110.915C129.692 111.74 129.612 112.592 129.304 113.372C129.125 114.187 128.717 114.935 128.128 115.526C128.044 115.463 128.607 114.534 129.001 113.267C129.395 111.999 129.459 110.915 129.536 110.915Z" fill="#455A64"/>
<path d="M131.12 102.784C130.967 102.943 130.792 103.078 130.599 103.185C130.072 103.491 129.482 103.674 128.874 103.72C127.973 103.783 127.068 103.643 126.227 103.312C125.214 102.901 124.235 102.411 123.299 101.848C122.365 101.295 121.364 100.864 120.321 100.566C119.466 100.332 118.564 100.332 117.709 100.566C117.136 100.728 116.611 101.028 116.181 101.439C115.885 101.742 115.773 101.953 115.759 101.939C115.857 101.742 115.985 101.562 116.139 101.404C116.561 100.962 117.093 100.639 117.681 100.468C118.549 100.206 119.472 100.189 120.349 100.419C121.409 100.71 122.425 101.143 123.369 101.707C124.301 102.266 125.273 102.755 126.276 103.171C127.097 103.505 127.982 103.652 128.867 103.601C129.683 103.562 130.469 103.278 131.12 102.784Z" fill="#455A64"/>
<path d="M132.282 104.706C132.218 104.762 132.147 104.81 132.07 104.847C131.868 104.963 131.659 105.066 131.444 105.156C130.019 105.758 128.441 105.901 126.931 105.565C126.693 105.518 126.458 105.457 126.227 105.382C126.072 105.325 125.988 105.29 125.995 105.276C126.002 105.262 126.347 105.361 126.917 105.466C127.663 105.598 128.423 105.631 129.177 105.565C129.928 105.491 130.666 105.321 131.373 105.058C131.951 104.854 132.275 104.685 132.282 104.706Z" fill="#455A64"/>
<path d="M124.988 225.998L128.839 263.141L131.606 319.081H146.369L146.77 200.028L104.502 203.041L95.744 265.507L103.333 320.179H119.532L115.738 268.189L124.988 225.998Z" fill="#263238"/>
<path d="M124.988 225.984C124.12 227.009 123.158 227.952 122.116 228.8C121.156 229.746 120.112 230.604 118.997 231.363C119.869 230.34 120.83 229.398 121.869 228.547C122.828 227.599 123.872 226.741 124.988 225.984Z" fill="#455A64"/>
<path d="M124.946 225.28C124.883 223.691 124.909 222.1 125.023 220.514C125.024 218.924 125.116 217.335 125.298 215.755C125.486 217.339 125.517 218.938 125.389 220.528C125.394 222.123 125.245 223.714 124.946 225.28Z" fill="#455A64"/>
<path d="M129.825 211.39C129.904 211.381 129.984 211.381 130.064 211.39L130.768 211.348L133.584 211.214L143.595 210.792H143.764V210.968C143.764 214.086 143.764 217.62 143.764 221.359V221.683L143.644 221.725L137.139 224.337H137.076H137.012L131.261 222.337H131.169V222.246C130.747 219 130.402 216.297 130.148 214.361C130.036 213.46 129.951 212.735 129.881 212.193C129.811 211.651 129.804 211.446 129.811 211.453C129.832 211.523 129.848 211.593 129.86 211.665C129.86 211.827 129.916 212.017 129.958 212.249C130.043 212.798 130.163 213.53 130.303 214.445C130.592 216.353 131.007 219.007 131.472 222.189L131.373 222.063L137.139 224.02H137.02L143.524 221.394L143.412 221.563V221.366C143.412 217.628 143.412 214.093 143.412 210.975L143.581 211.137L133.683 211.383L130.867 211.432H129.825V211.39Z" fill="#455A64"/>
<path d="M108.515 211.573C108.587 211.564 108.66 211.564 108.733 211.573H109.388L111.922 211.489L121.074 211.277H121.243V211.446C121.144 214.53 121.032 218.085 120.912 221.866V221.964L120.835 222.013L119.779 222.717L114.428 226.237L114.337 226.301L114.238 226.237L108.17 222.464L108.092 222.415V222.33C108.205 219.092 108.303 216.395 108.367 214.459C108.409 213.558 108.444 212.833 108.465 212.298C108.468 212.051 108.484 211.804 108.515 211.559C108.525 211.629 108.525 211.7 108.515 211.77V212.355C108.515 212.904 108.515 213.636 108.515 214.558C108.515 216.466 108.444 219.134 108.402 222.302L108.324 222.168L114.379 225.794H114.189L119.539 222.274L120.595 221.57L120.511 221.718C120.652 217.93 120.778 214.375 120.891 211.291L121.053 211.46L112.02 211.51H108.768L108.515 211.573Z" fill="#455A64"/>
<path d="M142.208 228.399C141.541 228.442 140.871 228.421 140.209 228.335C138.977 228.244 137.28 228.075 135.407 227.836C133.535 227.596 131.852 227.322 130.641 227.096C129.978 227.012 129.324 226.861 128.691 226.646C129.357 226.654 130.021 226.717 130.676 226.836L135.457 227.469L140.237 228.075C140.902 228.128 141.561 228.236 142.208 228.399Z" fill="#455A64"/>
<path d="M141.863 269.801C141.863 269.801 141.807 270.019 141.518 270.273C141.089 270.615 140.553 270.797 140.004 270.787C139.196 270.76 138.42 270.463 137.801 269.942C137.07 269.328 136.398 268.647 135.795 267.907C134.666 266.597 133.665 265.182 132.803 263.683C132.418 263.083 132.104 262.44 131.866 261.768C132.284 262.34 132.67 262.934 133.021 263.549C133.942 264.986 134.96 266.357 136.069 267.654C136.661 268.374 137.311 269.045 138.012 269.66C138.568 270.154 139.27 270.453 140.012 270.512C140.508 270.542 141.001 270.414 141.42 270.146C141.722 269.956 141.842 269.787 141.863 269.801Z" fill="#455A64"/>
<path d="M112.71 271.11C112.71 271.11 112.71 271.301 112.513 271.582C112.252 271.98 111.903 272.313 111.492 272.554C110.877 272.911 110.176 273.093 109.465 273.082C108.597 273.051 107.755 272.783 107.029 272.307C105.751 271.42 104.737 270.204 104.093 268.787C103.788 268.239 103.552 267.655 103.389 267.048C103.749 267.563 104.069 268.105 104.347 268.668C105.037 269.986 106.031 271.12 107.247 271.976C107.922 272.42 108.701 272.678 109.507 272.723C110.161 272.746 110.81 272.603 111.394 272.307C111.911 272.004 112.36 271.597 112.71 271.11Z" fill="#455A64"/>
<path d="M113.654 265.507C113.299 265.817 112.888 266.056 112.443 266.211C111.39 266.639 110.27 266.877 109.134 266.915C107.994 266.966 106.854 266.811 105.769 266.457C105.312 266.343 104.883 266.137 104.509 265.852C105.997 266.325 107.551 266.563 109.113 266.556C110.671 266.439 112.202 266.085 113.654 265.507Z" fill="#455A64"/>
<path d="M161.695 134.408H140.173C140.173 134.408 137.245 132.725 135.837 133C134.8 133.33 133.88 133.953 133.19 134.795L136.041 158.506L143.011 153.352L168.96 150.656C170.072 150.644 171.17 150.408 172.189 149.961C173.207 149.515 174.125 148.868 174.888 148.058C175.716 147.179 176.341 146.129 176.719 144.982C177.097 143.835 177.219 142.619 177.077 141.42L172.276 115.914L162.42 116.244L162.026 122.714L161.695 134.408Z" fill="#455A64"/>
<path d="M102.446 140.385C100.134 141.816 98.3197 143.925 97.2506 146.425C95.9974 149.438 87.3946 164.49 82.903 172.36C82.1042 173.754 81.7774 175.369 81.9715 176.964C82.1657 178.559 82.8702 180.048 83.9802 181.21C86.7258 184.075 91.3299 184.863 95.3357 183.561C97.1309 182.977 104.319 177.14 104.319 177.14L102.446 140.385Z" fill="#455A64"/>
<path d="M106.191 194.163L101.256 151.705L102.446 140.385L115.012 135.034L131.282 133.964L146.777 135.675L143.151 179.224L147.115 203.787L103.72 205.744L106.191 194.163Z" fill="#455A64"/>
<path d="M106.17 193.98C106.072 193.98 104.889 184.539 103.53 172.86C102.172 161.181 101.158 151.74 101.256 151.698C101.355 151.656 102.538 161.146 103.896 172.818C105.255 184.49 106.304 193.966 106.17 193.98Z" fill="#263238"/>
<path d="M146.432 145.2C146.452 145.328 146.452 145.459 146.432 145.587C146.432 145.876 146.376 146.235 146.333 146.678C146.228 147.671 146.094 149.03 145.925 150.677C145.58 154.106 145.116 158.752 144.602 163.891C144.088 169.03 143.708 173.747 143.454 177.112C143.334 178.767 143.236 180.125 143.165 181.125C143.165 181.569 143.102 181.928 143.081 182.216C143.077 182.345 143.059 182.472 143.025 182.596C143.007 182.47 143.007 182.342 143.025 182.216C143.025 181.921 143.025 181.562 143.025 181.118C143.025 180.168 143.109 178.795 143.194 177.098C143.384 173.705 143.743 169.016 144.236 163.856C144.728 158.696 145.256 154 145.644 150.649C145.855 148.966 146.031 147.601 146.172 146.657C146.235 146.221 146.291 145.862 146.333 145.573C146.349 145.445 146.382 145.319 146.432 145.2Z" fill="#263238"/>
<path d="M138.991 187.475C138.778 187.772 138.543 188.052 138.287 188.313C138.013 188.639 137.719 188.947 137.407 189.235C137.041 189.573 136.646 189.981 136.154 190.362C135.634 190.806 135.089 191.22 134.52 191.601C133.878 192.053 133.213 192.471 132.528 192.854C129.37 194.609 125.867 195.655 122.264 195.916C121.433 195.916 120.652 196.008 119.912 195.965C119.23 195.958 118.548 195.911 117.871 195.825C117.311 195.766 116.754 195.679 116.202 195.564C115.781 195.495 115.365 195.399 114.956 195.276C114.603 195.197 114.256 195.089 113.921 194.952C113.921 194.867 115.428 195.332 117.892 195.564C118.566 195.631 119.242 195.664 119.919 195.663C120.623 195.663 121.419 195.62 122.236 195.578C125.78 195.28 129.224 194.252 132.352 192.558C133.056 192.143 133.76 191.777 134.337 191.354C134.915 190.932 135.485 190.545 135.978 190.164C137.942 188.616 138.927 187.419 138.991 187.475Z" fill="#263238"/>
<g opacity="0.3">
<path d="M116.047 195.402C113.935 194.797 113.816 192.804 114.639 191.953C115.463 191.101 116.751 190.988 117.955 191.157C119.108 191.44 120.288 191.598 121.475 191.629C123.404 191.502 124.995 190.157 126.361 188.763C127.727 187.37 128.973 185.807 130.733 185.004C132.493 184.202 134.957 184.49 135.872 186.187C136.137 186.744 136.256 187.359 136.219 187.974C136.182 188.589 135.99 189.186 135.661 189.707C134.997 190.749 134.103 191.625 133.049 192.269C130.593 193.945 127.814 195.089 124.89 195.629C121.965 196.168 118.961 196.091 116.068 195.402" fill="black"/>
</g>
<g opacity="0.2">
<path d="M103.037 167.292C102.657 167.827 98.9894 172.839 98.9894 172.839C98.8909 173.346 95.3357 177.929 95.3357 177.929C95.3357 177.929 98.4966 176.176 100.925 174.923C101.952 174.315 102.925 173.62 103.833 172.846C103.833 172.846 103.284 169.396 103.044 168.108C102.502 165.222 102.136 158.71 102.136 158.71" fill="black"/>
</g>
<path d="M141.708 135.274C142.867 135.694 143.857 136.483 144.524 137.519C145.297 138.482 145.734 139.671 145.77 140.906C145.11 138.612 143.671 136.621 141.701 135.274H141.708Z" fill="#263238"/>
<path d="M103.037 167.292C102.739 167.897 102.383 168.472 101.974 169.009C101.27 170.037 100.299 171.445 99.1936 172.987C96.976 176.056 95.0822 178.513 94.9696 178.372L96.103 176.732L98.919 172.776C100.024 171.234 101.031 169.847 101.784 168.861C102.154 168.302 102.573 167.776 103.037 167.292Z" fill="#263238"/>
</svg>
