<svg width="106" height="103" viewBox="0 0 106 103" fill="none" xmlns="http://www.w3.org/2000/svg">
<path d="M96.0581 53.5979C100.353 49.6321 103.433 44.549 104.945 38.9307C106.458 33.3123 106.341 27.3859 104.61 21.83C102.878 16.2741 99.6009 11.3133 95.1537 7.51561C90.7064 3.71796 85.2688 1.23699 79.4635 0.356794C73.6582 -0.5234 67.7198 0.232764 62.3284 2.53869C56.937 4.84462 52.3105 8.60709 48.9787 13.3953C45.6469 18.1835 43.7444 23.8038 43.4891 29.6128C43.2339 35.4217 44.6362 41.1844 47.5354 46.2409L41.1826 52.1059L42.7026 62.5754L32.8291 59.823L24.8784 67.1928L26.3984 77.6494L16.525 74.9099L9.67854 81.2379L10.601 87.6688L4.58595 86.0096L0.597591 89.688L0 99.373L14.5893 103L61.9428 59.2699C67.5618 61.7543 73.7964 62.5412 79.8653 61.5322C85.9341 60.5232 91.5671 57.7631 96.0581 53.5979ZM91.4332 15.5142C92.6453 16.7992 93.4453 18.4113 93.7317 20.1466C94.0182 21.8818 93.7783 23.6622 93.0425 25.2624C92.3067 26.8627 91.1079 28.2109 89.5979 29.1365C88.088 30.0621 86.3346 30.5235 84.5597 30.4622C82.7848 30.401 81.0681 29.82 79.6269 28.7926C78.1856 27.7652 77.0845 26.3377 76.463 24.6906C75.8414 23.0436 75.7273 21.251 76.135 19.5397C76.5428 17.8284 77.4541 16.2753 78.7536 15.0769C79.6147 14.2805 80.6259 13.66 81.7295 13.2509C82.8331 12.8418 84.0073 12.6521 85.185 12.6927C86.3626 12.7333 87.5207 13.0034 88.5928 13.4876C89.6649 13.9717 90.6301 14.6604 91.4332 15.5142Z" fill="#4B5CDF"/>
</svg>
