<svg width="35" height="53" viewBox="0 0 35 53" fill="none" xmlns="http://www.w3.org/2000/svg">
<mask id="mask0_139_2855" style="mask-type:luminance" maskUnits="userSpaceOnUse" x="0" y="0" width="35" height="53">
<path d="M35 0H0V52.3158H35V0Z" fill="white"/>
</mask>
<g mask="url(#mask0_139_2855)">
<path d="M18.1363 -4.13847e-05C16.1769 0.000528104 14.2979 0.777987 12.9123 2.16143C11.5268 3.54486 10.7482 5.42106 10.7476 7.37752V10.729H7.391C6.41999 10.7282 5.45834 10.9186 4.56108 11.2893C3.66384 11.6599 2.8486 12.2037 2.16201 12.8892C1.47541 13.5748 0.930951 14.3889 0.559763 15.2848C0.188577 16.1807 -0.0020451 17.1409 -0.00119618 18.1104V25.4854H10.7458V32.1884H7.38927C5.42927 32.1881 3.54942 32.9652 2.16316 34.3487C0.776906 35.7323 -0.00224502 37.6088 -0.00292969 39.5658V52.3117H7.39273C8.36282 52.3114 9.32329 52.1202 10.2194 51.7488C11.1154 51.3778 11.9294 50.834 12.615 50.1487C13.3006 49.4635 13.8442 48.65 14.2149 47.7547C14.5856 46.8595 14.7761 45.9005 14.7754 44.9319H14.7849V40.0625L14.7651 40.0651V9.04253L14.7815 9.04639V7.37881C14.7832 6.48963 15.1371 5.63721 15.7659 5.00762C16.3948 4.37802 17.2475 4.02238 18.1381 4.01829H30.9744V7.37881C30.9716 8.26759 30.6165 9.11912 29.9867 9.74717C29.3569 10.3752 28.5036 10.7287 27.6135 10.7303H16.3006V14.7529H27.6118C29.5712 14.7531 31.4504 13.976 32.8361 12.5927C34.2217 11.2094 35.0003 9.33314 35.0005 7.37667V-0.000900269L18.1363 -4.13847e-05ZM10.7476 21.4623H4.03185V18.1108C4.03332 17.2206 4.38763 16.3672 5.01741 15.737C5.64715 15.1068 6.50115 14.7512 7.39273 14.7478H10.7493L10.7476 21.4623ZM10.7476 44.9356C10.7461 45.8242 10.3921 46.6764 9.76304 47.3049C9.13396 47.9338 8.28107 48.2882 7.391 48.2904H4.03012V39.5681C4.03093 38.6787 4.38542 37.8262 5.01564 37.1976C5.6459 36.5691 6.50027 36.2163 7.391 36.2166H10.7476V44.9356ZM16.3006 25.485H24.778V28.8399C24.7748 29.7285 24.4195 30.5797 23.7898 31.2077C23.1601 31.8356 22.3071 32.1892 21.4172 32.1914H16.3006V36.2166H21.4189C22.3893 36.2171 23.3504 36.0266 24.247 35.656C25.1437 35.2855 25.9585 34.7421 26.6446 34.0569C27.3309 33.3717 27.8751 32.5582 28.2462 31.6629C28.6174 30.7676 28.8082 29.808 28.8076 28.839H28.8111V21.4615H16.3006V25.485Z" fill="#750000"/>
</g>
</svg>
