<svg width="318" height="445" viewBox="0 0 318 445" fill="none" xmlns="http://www.w3.org/2000/svg">
<g clip-path="url(#clip0_2_205)">
<g style="mix-blend-mode:soft-light" opacity="0.5">
<path d="M0 169.169H107.654C107.654 169.169 99.9574 146.128 86.9943 149.49C74.0313 152.754 74.5376 155.621 74.5376 155.621C74.5376 155.621 70.6892 135.943 53.3714 138.711C36.0535 141.48 32.2051 155.127 32.2051 155.127C32.2051 155.127 21.1663 150.875 16.3051 155.127C11.5452 159.379 12.4567 161.654 12.4567 161.654C12.4567 161.654 1.9242 157.006 0 169.169Z" fill="white"/>
</g>
<g style="mix-blend-mode:soft-light" opacity="0.8">
<path d="M284.58 126.791C283.364 123.429 280.63 117.595 276.376 116.21C270.3 114.233 261.287 120.759 261.287 120.759C261.287 120.759 256.932 105.431 242.348 104.838C227.765 104.245 230.398 120.463 230.398 120.463C230.398 120.463 226.651 119.375 219.055 117.1C211.46 114.826 208.827 121.649 208.827 121.649C204.067 119.968 202.143 124.418 201.535 126.791H284.58Z" fill="white"/>
</g>
<path d="M58.4351 27.6889C58.4351 27.6889 58.2325 30.26 55.7007 30.5567C58.2325 30.8533 58.4351 33.4245 58.4351 33.4245C58.4351 33.4245 58.6376 30.8533 61.1695 30.5567C58.6376 30.3589 58.4351 27.6889 58.4351 27.6889Z" fill="#FFD08A"/>
<path d="M194.142 68.2334C194.142 68.2334 193.94 70.8045 191.408 71.1011C193.94 71.3978 194.142 73.9689 194.142 73.9689C194.142 73.9689 194.345 71.3978 196.877 71.1011C194.345 70.9034 194.142 68.2334 194.142 68.2334Z" fill="#FFD08A"/>
<path d="M94.8937 58.3445C94.8937 58.3445 94.6911 60.9156 92.1593 61.2122C94.6911 61.5089 94.8937 64.08 94.8937 64.08C94.8937 64.08 95.0962 61.5089 97.6281 61.2122C95.0962 61.0145 94.8937 58.3445 94.8937 58.3445Z" fill="#FFD08A"/>
<path d="M317.696 126.578C317.696 126.578 317.494 129.149 314.962 129.446C317.494 129.742 317.696 132.313 317.696 132.313C317.696 132.313 317.899 129.742 320.431 129.446C317.798 129.248 317.696 126.578 317.696 126.578Z" fill="#FFD08A"/>
<path d="M199.813 185.516C199.813 185.516 199.611 188.087 197.079 188.383C199.611 188.68 199.813 191.251 199.813 191.251C199.813 191.251 200.016 188.68 202.548 188.383C199.915 188.186 199.813 185.516 199.813 185.516Z" fill="#FFD08A"/>
<path d="M155.05 96.9111C155.05 96.9111 154.544 103.833 147.86 104.427C154.544 105.119 155.05 111.942 155.05 111.942C155.05 111.942 155.557 105.02 162.241 104.427C155.557 103.833 155.05 96.9111 155.05 96.9111Z" fill="#FFD08A"/>
<path d="M29.4707 85.7367C29.4707 85.7367 28.9644 92.6589 22.2803 93.2523C28.9644 93.9445 29.4707 100.768 29.4707 100.768C29.4707 100.768 29.9771 93.8456 36.6612 93.2523C29.9771 92.6589 29.4707 85.7367 29.4707 85.7367Z" fill="#FFD08A"/>
<path d="M148.063 27.6889C148.063 27.6889 147.657 32.7322 142.796 33.2267C147.657 33.7211 148.063 38.7645 148.063 38.7645C148.063 38.7645 148.468 33.7211 153.329 33.2267C148.468 32.6333 148.063 27.6889 148.063 27.6889Z" fill="#FFD08A"/>
<path d="M73.5248 121.633C73.5248 121.633 73.221 126.083 68.8662 126.578C73.221 126.973 73.5248 131.522 73.5248 131.522C73.5248 131.522 73.8286 127.072 78.1834 126.578C73.9299 126.083 73.5248 121.633 73.5248 121.633Z" fill="#FFD08A"/>
<path d="M114.946 220.423C114.946 220.423 114.642 224.873 110.287 225.368C114.642 225.763 114.946 230.312 114.946 230.312C114.946 230.312 115.25 225.862 119.605 225.368C115.25 224.873 114.946 220.423 114.946 220.423Z" fill="#FFD08A"/>
<g style="mix-blend-mode:soft-light" opacity="0.5">
<path d="M207 190.925H314.654C314.654 190.925 306.957 167.884 293.994 171.246C281.031 174.509 281.538 177.377 281.538 177.377C281.538 177.377 277.689 157.698 260.371 160.467C243.054 163.236 239.205 176.883 239.205 176.883C239.205 176.883 228.166 172.63 223.305 176.883C218.545 181.135 219.457 183.409 219.457 183.409C219.457 183.409 208.924 178.761 207 190.925Z" fill="white"/>
</g>
<path opacity="0.25" d="M154.103 388.436C224.521 388.436 281.606 375.463 281.606 359.461C281.606 343.459 224.521 330.487 154.103 330.487C83.6842 330.487 26.5988 343.459 26.5988 359.461C26.5988 375.463 83.6842 388.436 154.103 388.436Z" fill="#042030"/>
<path d="M253.959 219.632L154.103 252.958L54.1453 219.632L6.34399 287.47L154.103 336.816L301.76 287.47L253.959 219.632Z" fill="#4E2999"/>
<path opacity="0.45" d="M23.7631 284.701L146.304 330.487L104.175 289.745C104.175 289.745 35.0045 273.428 23.7631 284.701Z" fill="#240F4F"/>
<path opacity="0.45" d="M284.442 284.701L161.901 330.487L204.031 289.745C203.929 289.745 273.099 273.428 284.442 284.701Z" fill="#240F4F"/>
<path d="M154.103 336.816L6.34399 287.47V293.898L154.103 343.243L301.76 293.898V287.47L154.103 336.816Z" fill="#790501"/>
<path d="M75.4128 366.482L92.5281 322.675L147.621 341.068L75.4128 366.482Z" fill="#8A0500"/>
<path opacity="0.45" d="M80.1727 353.825L147.621 341.068L92.5282 322.675L80.1727 353.825Z" fill="#8A0500"/>
<path d="M154.103 338.793L75.4128 366.482L81.2867 372.515L154.103 347.199L226.817 372.515L232.792 366.482L154.103 338.793Z" fill="#790501"/>
<path d="M232.792 366.482L215.576 322.675L160.483 341.068L232.792 366.482Z" fill="#8A0500"/>
<path opacity="0.45" d="M227.931 353.825L160.483 341.068L215.576 322.675L227.931 353.825Z" fill="#8A0500"/>
<path d="M154.103 347.199C157.067 347.199 159.47 344.852 159.47 341.958C159.47 339.063 157.067 336.717 154.103 336.717C151.138 336.717 148.735 339.063 148.735 341.958C148.735 344.852 151.138 347.199 154.103 347.199Z" fill="white" fill-opacity="0.5"/>
<path d="M249.705 219.632L154.103 266.11L58.5 219.632C54.1453 225.269 19.1045 282.328 19.1045 282.328C19.5096 282.328 19.8134 282.427 20.2185 282.427C108.124 291.03 132.531 318.027 140.633 324.553C148.735 331.179 154.204 330.487 154.204 330.487C154.204 330.487 159.673 331.179 167.775 324.553C175.877 318.027 200.284 291.03 288.189 282.427C288.594 282.427 288.898 282.328 289.303 282.328C289.101 282.328 253.959 225.368 249.705 219.632Z" fill="#5F6F8F"/>
<path d="M289.101 282.328C288.696 282.328 288.392 282.427 287.987 282.427C200.081 291.03 175.674 318.027 167.572 324.553C159.47 331.179 154.001 330.487 154.001 330.487C154.001 330.487 148.533 331.179 140.431 324.553C132.329 318.027 107.922 291.03 20.016 282.427C19.6109 282.427 19.3071 282.328 18.902 282.328C18.1931 283.416 18.902 284.207 18.902 284.207C107.719 292.612 131.316 319.708 139.418 326.333C147.52 332.86 153.9 332.366 153.9 332.366C153.9 332.366 160.28 332.86 168.382 326.333C176.484 319.807 200.081 292.711 288.898 284.207C289.101 284.207 289.81 283.416 289.101 282.328Z" fill="#790501"/>
<path d="M246.059 214.193C197.144 202.722 154.001 241.981 154.001 241.981C154.001 241.981 110.859 202.722 61.9434 214.193C61.9434 214.193 48.0689 234.96 28.9281 270.263C28.9281 270.263 125.24 280.845 154.001 320.301C182.763 280.845 279.075 270.263 279.075 270.263C259.934 234.96 246.059 214.193 246.059 214.193Z" fill="#F5EFFB"/>
<path d="M279.075 270.263C279.075 270.263 182.763 280.845 154.001 320.301C125.341 280.845 29.0294 270.263 29.0294 270.263C29.0294 270.263 29.0294 273.428 23.6619 279.658C23.6619 279.658 111.061 285.789 142.861 321.191C150.356 329.498 154.001 328.509 154.001 328.509C154.001 328.509 157.749 329.498 165.142 321.191C196.84 285.789 284.341 279.658 284.341 279.658C279.075 273.329 279.075 270.263 279.075 270.263Z" fill="#DFCBF4"/>
<path d="M240.591 218.347C240.591 218.347 204.031 209.249 154.001 247.123C104.073 209.348 67.4123 218.347 67.4123 218.347L42.7014 265.22C117.847 270.263 154.001 307.347 154.001 307.347C154.001 307.347 190.156 270.263 265.301 265.22L240.591 218.347ZM154.103 302.897C154.103 302.897 120.277 269.077 48.5753 262.451L69.3365 220.324C69.3365 220.324 105.289 213.501 154.103 249.299C202.917 213.501 238.869 220.324 238.869 220.324L259.63 262.451C187.928 269.077 154.103 302.897 154.103 302.897Z" fill="#D84C59"/>
<path opacity="0.2" d="M163.319 282.421C176.822 272.697 219.019 251.178 247.376 254.145" stroke="#D84C59" stroke-width="3" stroke-linecap="round"/>
<path opacity="0.2" d="M163.319 255.133C175.303 245.971 206.461 228.019 235.223 229.51" stroke="#D84C59" stroke-width="3" stroke-linecap="round"/>
<path opacity="0.2" d="M163.319 268.978C176.315 259.111 210.107 239.778 241.3 241.383" stroke="#D84C59" stroke-width="3" stroke-linecap="round"/>
<path opacity="0.2" d="M146.102 282.421C132.599 272.697 90.4014 251.178 62.0447 254.145" stroke="#D84C59" stroke-width="3" stroke-linecap="round"/>
<path opacity="0.2" d="M146.102 255.133C134.118 245.971 102.959 228.019 74.1976 229.51" stroke="#D84C59" stroke-width="3" stroke-linecap="round"/>
<path opacity="0.2" d="M146.102 268.978C133.105 259.111 99.3135 239.778 68.1211 241.383" stroke="#D84C59" stroke-width="3" stroke-linecap="round"/>
<path d="M154.103 241.981C154.103 241.981 155.115 238.52 157.04 239.509C157.04 239.509 155.824 295.579 157.85 317.433C158.356 322.872 163.217 330.289 165.141 333.058H162.61L161.901 335.332C161.901 335.332 154.406 322.971 154.103 318.126C152.584 296.37 153.394 247.222 154.103 241.981Z" fill="#54DAF5"/>
</g>
<defs>
<clipPath id="clip0_2_205">
<rect width="318" height="445" fill="white"/>
</clipPath>
</defs>
</svg>
